<svg width="122" height="150" viewBox="0 0 122 150" fill="none" xmlns="http://www.w3.org/2000/svg">
<path d="M26.2852 79.8201C26.2852 62.9301 26.2852 46.0401 26.2852 29.1401C26.2852 25.8701 27.1552 22.9901 29.8352 20.8601C31.1752 19.7901 32.6352 19.0101 34.3752 19.0101C55.0552 19.0001 75.7452 19.0101 96.4252 19.0101C96.4252 26.3201 96.4252 33.6301 96.4252 40.9401C96.4252 42.9501 97.0952 43.6201 99.1152 43.6201C106.425 43.6201 113.735 43.6201 121.045 43.6201C121.475 44.0101 121.295 44.5301 121.295 44.9901C121.295 76.8701 121.305 108.75 121.295 140.63C121.295 145.65 117.385 149.79 112.255 149.78C86.5952 149.71 60.9252 149.7 35.2652 149.8C31.1252 149.82 26.7452 145.96 26.4952 141.88C26.4252 140.79 26.3152 139.7 26.2752 138.6C26.2952 134.12 26.3252 129.63 26.3452 125.15C26.9152 125.12 27.4852 125.06 28.0552 125.06C52.0452 125.06 76.0352 125.06 100.025 125.06C104.955 125.06 107.725 122.29 107.725 117.36C107.725 107.44 107.635 97.5101 107.765 87.5901C107.825 82.8301 104.535 79.7801 99.9652 79.8101C75.9352 79.9301 51.8952 79.8701 27.8652 79.8601C27.3352 79.8601 26.8052 79.8301 26.2852 79.8201Z" fill="#E8EBEE"/>
<path d="M26.2852 79.8199C26.8152 79.8399 27.3452 79.8599 27.8652 79.8599C51.8952 79.8599 75.9352 79.9199 99.9652 79.8099C104.535 79.7899 107.825 82.8299 107.765 87.5899C107.635 97.5099 107.725 107.43 107.725 117.36C107.725 122.29 104.955 125.06 100.025 125.06C76.0352 125.06 52.0452 125.06 28.0552 125.06C27.4852 125.06 26.9152 125.12 26.3452 125.15C24.3352 125.15 22.3152 125.2 20.3052 125.11C16.2852 124.92 13.9152 126.93 12.8652 130.67C12.8452 129.66 12.8152 128.65 12.8152 127.63C12.8152 114.23 12.8152 100.83 12.8152 87.4199C12.8152 82.6099 15.5552 79.8599 20.3252 79.8499C22.3052 79.8499 24.2952 79.8199 26.2752 79.8099L26.2852 79.8199ZM60.2952 115.96C63.0152 115.96 65.3552 115.07 67.2152 113.12C70.7052 109.48 69.7452 103.96 65.2352 101.73C64.4552 101.34 63.6152 101.05 62.7752 100.79C61.1752 100.3 59.5552 99.9099 57.9652 99.3899C56.8452 99.0199 55.8452 98.4299 55.7752 97.0499C55.7052 95.6399 56.4852 94.7399 57.6252 94.0899C60.1152 92.6799 63.0252 93.4099 64.9752 95.9199C65.9752 97.2199 67.3152 97.5299 68.3852 96.7299C69.4852 95.8999 69.5652 94.5599 68.6052 93.2199C66.1552 89.7899 62.0252 88.2199 57.9052 89.1599C53.3152 90.1999 50.5252 94.1999 51.4352 98.5199C52.0952 101.63 54.4452 103.02 57.1952 103.92C58.9452 104.49 60.7452 104.92 62.5052 105.48C63.6852 105.85 64.7052 106.42 64.7352 107.9C64.7752 109.39 63.9252 110.26 62.7152 110.88C60.2452 112.15 57.4152 111.39 55.5652 108.99C54.4952 107.61 53.3352 107.3 52.1852 108.11C51.0052 108.94 50.8952 110.31 51.9452 111.7C54.0352 114.47 56.7852 115.99 60.2752 115.96H60.2952ZM33.1752 102.45C33.1752 101.08 33.1752 99.7199 33.1752 98.3499C33.1852 95.5799 34.9352 93.5599 37.4452 93.3999C39.9152 93.2399 41.8752 95.0899 42.1852 97.8699C42.3452 99.2999 43.3252 100.26 44.5752 100.19C45.8352 100.12 46.6852 99.0899 46.6852 97.6399C46.6852 93.0199 42.6852 89.0099 37.9752 88.8899C33.1052 88.7699 28.8252 92.5899 28.6852 97.3199C28.5852 100.76 28.5752 104.2 28.6852 107.64C28.8452 112.27 33.0752 116.08 37.7752 115.99C42.5752 115.9 46.5652 112.05 46.6652 107.43C46.7052 105.79 45.9652 104.83 44.6052 104.74C43.1852 104.65 42.3152 105.53 42.1552 107.23C41.9152 109.8 40.0052 111.51 37.4652 111.43C35.0652 111.35 33.2152 109.46 33.1652 106.96C33.1352 105.46 33.1652 103.96 33.1652 102.46L33.1752 102.45ZM82.9752 105.43C82.8952 105.43 82.8052 105.43 82.7252 105.43C81.2752 100.59 79.8352 95.7499 78.3752 90.9099C77.9052 89.3399 76.7152 88.5899 75.4352 88.9899C74.1552 89.3899 73.5552 90.5899 73.9952 92.0899C76.1852 99.4599 78.4052 106.82 80.6252 114.19C80.9452 115.27 81.6452 115.94 82.8152 115.95C84.0452 115.96 84.7452 115.29 85.0952 114.14C87.2952 106.77 89.5152 99.4099 91.7152 92.0399C92.1552 90.5599 91.5552 89.3799 90.2552 88.9799C89.0552 88.6099 87.8852 89.2999 87.4352 90.6899C86.9652 92.1499 86.5452 93.6299 86.1052 95.1099C85.0652 98.5499 84.0252 101.99 82.9952 105.43H82.9752Z" fill="#428E17"/>
<path d="M121.045 43.61C113.735 43.61 106.425 43.61 99.1152 43.61C97.0952 43.61 96.4252 42.94 96.4252 40.93C96.4252 33.62 96.4252 26.31 96.4252 19C96.6652 19.19 96.9152 19.37 97.1352 19.58C104.915 27.35 112.685 35.12 120.455 42.9C120.665 43.11 120.845 43.37 121.035 43.61H121.045Z" fill="#C8D0DD"/>
<path d="M12.8752 130.67C13.9252 126.93 16.2852 124.92 20.3152 125.11C22.3252 125.2 24.3452 125.14 26.3552 125.15C26.3352 129.63 26.3052 134.12 26.2852 138.6C24.3052 138.6 22.3352 138.6 20.3552 138.6C15.4552 138.6 12.5852 135.55 12.8852 130.67H12.8752Z" fill="#5BA165"/>
<path d="M60.2952 115.96C56.8052 115.99 54.0552 114.47 51.9652 111.7C50.9052 110.3 51.0252 108.94 52.2052 108.11C53.3452 107.3 54.5152 107.61 55.5852 108.99C57.4352 111.39 60.2552 112.15 62.7352 110.88C63.9352 110.26 64.7852 109.39 64.7552 107.9C64.7152 106.42 63.7052 105.85 62.5252 105.48C60.7652 104.93 58.9652 104.5 57.2152 103.92C54.4752 103.02 52.1152 101.63 51.4552 98.5201C50.5452 94.2001 53.3352 90.2001 57.9252 89.1601C62.0552 88.2201 66.1852 89.7901 68.6252 93.2201C69.5852 94.5601 69.5052 95.9001 68.4052 96.7301C67.3352 97.5401 66.0052 97.2201 64.9952 95.9201C63.0552 93.4101 60.1352 92.6801 57.6452 94.0901C56.5052 94.7401 55.7152 95.6401 55.7952 97.0501C55.8652 98.4301 56.8552 99.0301 57.9852 99.3901C59.5752 99.9101 61.2052 100.29 62.7952 100.79C63.6352 101.05 64.4752 101.34 65.2552 101.73C69.7552 103.96 70.7252 109.49 67.2352 113.12C65.3752 115.06 63.0252 115.95 60.3152 115.96H60.2952Z" fill="#FBFDFB"/>
<path d="M33.1752 102.45C33.1752 103.95 33.1452 105.45 33.1752 106.95C33.2352 109.45 35.0752 111.34 37.4752 111.42C40.0152 111.5 41.9252 109.79 42.1652 107.22C42.3252 105.52 43.1952 104.64 44.6152 104.73C45.9752 104.82 46.7152 105.78 46.6752 107.42C46.5652 112.05 42.5852 115.89 37.7852 115.98C33.0852 116.07 28.8452 112.25 28.6952 107.63C28.5752 104.19 28.5952 100.75 28.6952 97.3099C28.8352 92.5799 33.1152 88.7499 37.9852 88.8799C42.6952 88.9999 46.6852 93.0099 46.6952 97.6299C46.6952 99.0799 45.8452 100.11 44.5852 100.18C43.3352 100.25 42.3452 99.2899 42.1952 97.8599C41.8952 95.0799 39.9352 93.2299 37.4552 93.3899C34.9352 93.5499 33.1952 95.5699 33.1852 98.3399C33.1852 99.7099 33.1852 101.07 33.1852 102.44L33.1752 102.45Z" fill="#FBFDFB"/>
<path d="M82.9752 105.43C84.0152 101.99 85.0552 98.55 86.0852 95.11C86.5252 93.64 86.9452 92.16 87.4152 90.69C87.8652 89.3 89.0352 88.62 90.2352 88.98C91.5352 89.38 92.1352 90.56 91.6952 92.04C89.5052 99.41 87.2752 106.77 85.0752 114.14C84.7352 115.29 84.0252 115.96 82.7952 115.95C81.6252 115.94 80.9352 115.27 80.6052 114.19C78.3952 106.83 76.1752 99.46 73.9752 92.09C73.5352 90.59 74.1352 89.39 75.4152 88.99C76.6952 88.59 77.8752 89.33 78.3552 90.91C79.8152 95.75 81.2552 100.59 82.7052 105.43C82.7852 105.43 82.8752 105.43 82.9552 105.43H82.9752Z" fill="#FBFDFB"/>
<circle cx="28.1163" cy="27.3011" r="27.3011" fill="white"/>
<path fill-rule="evenodd" clip-rule="evenodd" d="M6.81728 29.0279L26.8294 29.0279L19.9188 35.9216L22.8862 38.8817L33.3791 28.4145L34.8628 26.9344L33.3791 25.4544L22.8862 14.9871L19.9188 17.9472L26.8294 24.841L6.81518 24.841C7.86868 14.2628 16.8171 5.99994 27.6982 5.99994C39.2888 5.99994 48.6841 15.3723 48.6841 26.9344C48.6841 38.4965 39.2888 47.8689 27.6982 47.8689C16.8171 47.8689 7.86868 39.6061 6.81728 29.0279Z" fill="#428E17"/>
</svg>
