<svg width="48" height="48" viewBox="0 0 48 48" fill="none" xmlns="http://www.w3.org/2000/svg">
<circle cx="24" cy="24" r="23.5" fill="#FBFCFC" stroke="url(#paint0_linear_86_86)"/>
<path d="M36.9508 30.4107C37.861 29.8016 39.0825 30.0716 39.7262 31.0267C40.3076 31.8884 40.0688 33.1688 39.2244 33.7259C38.2936 34.3419 37.0235 34.1101 36.4214 33.2519C35.75 32.2933 36.0234 31.0128 36.9508 30.4107Z" fill="#428E17"/>
<path d="M24.2435 38.0481C25.2333 38.5222 25.6209 39.7092 25.1295 40.7508C24.6831 41.6887 23.4615 42.1385 22.5514 41.6956C21.5478 41.2076 21.0979 39.9999 21.5304 39.0413C22.0115 37.9755 23.2538 37.5602 24.2435 38.0481Z" fill="#428E17"/>
<path d="M10.3047 32.2449C10.3704 33.3385 9.51916 34.2555 8.37026 34.3282C7.33209 34.3905 6.34929 33.5392 6.29393 32.5322C6.2351 31.4179 7.07594 30.4385 8.12102 30.352C9.28723 30.2586 10.2527 31.141 10.3047 32.2449Z" fill="#428E17"/>
<path d="M37.0893 17.0667C38.0029 17.6723 39.2245 17.3989 39.8612 16.4403C40.4392 15.5751 40.1968 14.2982 39.3525 13.741C38.4216 13.1285 37.1516 13.3604 36.5495 14.2221C35.8816 15.1841 36.1584 16.4611 37.0859 17.0632L37.0893 17.0667Z" fill="#428E17"/>
<path d="M13.3885 15.3538C13.776 15.5926 14.1325 15.8279 14.5027 16.0425C15.4163 16.5719 16.5098 16.0044 16.5479 14.9801C16.5652 14.5406 16.4199 14.1391 16.0496 13.9003C15.1429 13.3155 14.2397 12.7238 13.2916 12.2151C12.3745 11.7237 11.0733 12.0247 10.3812 12.7895C11.6547 14.1668 11.5163 15.8659 10.8311 16.9352C10.0109 18.2156 8.69936 18.6828 6.93447 18.3125C6.71992 18.9181 6.73725 19.5237 6.95872 20.1224C7.17328 20.6968 7.55739 21.1364 8.07301 21.4617C8.79626 21.9185 9.523 22.3752 10.2566 22.8182C11.1149 23.3338 12.1184 22.9047 12.3018 21.9496C12.3987 21.4443 12.2396 21.0049 11.8277 20.69C11.5128 20.4477 11.1598 20.2539 10.8241 20.0393C10.7445 19.9874 10.665 19.939 10.5715 19.8802C11.5093 18.3714 12.4403 16.8764 13.385 15.3572L13.3885 15.3538Z" fill="#428E17"/>
<path d="M25.6523 11.7203C25.6523 12.1771 25.635 12.6027 25.6488 13.0318C25.6765 14.0873 26.7285 14.7206 27.6213 14.2223C28.0054 14.0077 28.2719 13.6755 28.2823 13.2325C28.3065 12.1563 28.3411 11.0766 28.2823 10.0004C28.2234 8.96218 27.2857 8.0106 26.2752 7.82027C25.7665 9.62322 24.2438 10.3949 22.9773 10.3707C21.4581 10.3395 20.3749 9.46398 19.7693 7.76831C19.1395 7.89981 18.6343 8.23204 18.2398 8.73382C17.8591 9.21484 17.6861 9.77199 17.6792 10.381C17.6688 11.2358 17.6549 12.094 17.6653 12.9522C17.6757 13.9523 18.5616 14.5856 19.4752 14.243C19.9562 14.063 20.2469 13.6963 20.3023 13.1841C20.3438 12.7896 20.3264 12.3881 20.3334 11.9902C20.3334 11.8967 20.3334 11.7999 20.3368 11.6891C22.1156 11.703 23.877 11.7133 25.6627 11.7272L25.6523 11.7203Z" fill="#428E17"/>
<path d="M35.4732 20.0014C35.0753 20.2264 34.6981 20.427 34.3313 20.6485C33.4281 21.1953 33.4004 22.4238 34.2759 22.9533C34.6531 23.1782 35.0718 23.2474 35.4628 23.0364C36.411 22.5242 37.3662 22.0189 38.2659 21.4306C39.138 20.8631 39.5014 19.5792 39.1657 18.6068C37.3455 19.0602 35.9231 18.1223 35.3175 17.0045C34.5908 15.6688 34.8123 14.295 35.9889 12.9281C35.5597 12.4471 35.0234 12.1736 34.3901 12.0767C33.7845 11.9867 33.2136 12.1114 32.6806 12.409C31.9297 12.8243 31.1821 13.2395 30.4416 13.6686C29.5799 14.1704 29.4692 15.257 30.2201 15.8799C30.6146 16.2086 31.0784 16.2813 31.549 16.0702C31.9124 15.911 32.2515 15.6965 32.601 15.5062C32.6841 15.4612 32.7671 15.4127 32.864 15.3608C33.736 16.9111 34.5977 18.4477 35.4732 20.0049V20.0014Z" fill="#428E17"/>
<path d="M32.7463 32.3176C32.3379 32.1134 31.9607 31.9127 31.5731 31.7327C30.6145 31.2898 29.5799 31.9542 29.6318 32.9751C29.656 33.4146 29.8359 33.7987 30.227 34.0064C31.1821 34.5047 32.1337 35.0133 33.1269 35.4355C34.0854 35.8439 35.3521 35.4252 35.9715 34.6016C34.5804 33.3454 34.5596 31.6428 35.1479 30.5146C35.8504 29.165 37.1135 28.5802 38.9026 28.7878C39.0618 28.1649 38.9891 27.5628 38.7122 26.9883C38.4492 26.4346 38.0236 26.0332 37.4837 25.7564C36.719 25.3688 35.9577 24.9778 35.186 24.6041C34.2862 24.168 33.3241 24.687 33.2307 25.656C33.1823 26.1682 33.3795 26.5938 33.8155 26.8672C34.1512 27.0783 34.518 27.241 34.871 27.4244C34.9541 27.4694 35.0406 27.5109 35.1375 27.5628C34.3381 29.1512 33.5491 30.7257 32.7463 32.321V32.3176Z" fill="#428E17"/>
<path d="M20.465 35.297C20.4546 34.8403 20.4546 34.4146 20.4338 33.9855C20.3785 32.93 19.3057 32.3279 18.4267 32.8539C18.0495 33.0788 17.7935 33.418 17.7935 33.861C17.7969 34.9372 17.7935 36.0203 17.8869 37.0896C17.9769 38.1278 18.9389 39.0518 19.9563 39.2144C20.4166 37.3976 21.9115 36.5844 23.1815 36.574C24.7007 36.5636 25.808 37.4045 26.4621 39.0863C27.0884 38.9375 27.5833 38.5915 27.964 38.0759C28.3308 37.5845 28.4865 37.0204 28.4761 36.4113C28.4623 35.5566 28.4519 34.6984 28.4208 33.8436C28.3827 32.8435 27.476 32.2379 26.5763 32.6047C26.1022 32.7985 25.8184 33.1758 25.7804 33.6879C25.7492 34.0824 25.7804 34.4838 25.7804 34.8818C25.7804 34.9752 25.7804 35.0721 25.7838 35.1828C24.0051 35.2209 22.2437 35.259 20.4615 35.2936L20.465 35.297Z" fill="#428E17"/>
<path d="M10.8863 27.6182C11.2808 27.3898 11.6579 27.1856 12.0213 26.9641C12.921 26.4104 12.9384 25.1819 12.0559 24.6594C11.6787 24.4379 11.2565 24.3722 10.869 24.5867C9.92424 25.1058 8.97602 25.6214 8.07628 26.2132C7.20768 26.7876 6.85469 28.0749 7.20075 29.0474C9.01754 28.5802 10.4467 29.5076 11.0627 30.6185C11.7998 31.9473 11.5888 33.3246 10.426 34.7019C10.8586 35.1795 11.3984 35.4494 12.0317 35.5394C12.6407 35.6259 13.2083 35.4944 13.7378 35.1933C14.4853 34.7711 15.2293 34.3524 15.9664 33.9129C16.8246 33.4042 16.9249 32.3142 16.1705 31.7017C15.7725 31.3764 15.3088 31.3106 14.8382 31.5217C14.4749 31.6844 14.1392 31.9023 13.7897 32.0961C13.7066 32.1411 13.6235 32.1895 13.5266 32.2449C12.6442 30.7015 11.7687 29.172 10.8794 27.6251L10.8863 27.6182Z" fill="#428E17"/>
<path d="M10.0137 15.2432C10.0795 14.1496 9.22815 13.2326 8.07924 13.1599C7.04108 13.0976 6.05828 13.9489 6.00291 14.9559C5.94408 16.0702 6.785 17.0496 7.83009 17.1361C8.9963 17.2295 9.96181 16.3471 10.0137 15.2432Z" fill="#428E17"/>
<path d="M25.1019 6.98971C25.1019 8.07978 24.1848 9.0003 23.0982 8.98992C22.0082 8.97953 21.1119 8.08325 21.1084 6.99663C21.1049 5.89964 22.0151 4.99643 23.1121 4.99989C24.2056 5.00335 25.0984 5.89963 25.1019 6.98971Z" fill="#428E17"/>
<defs>
<linearGradient id="paint0_linear_86_86" x1="24" y1="0" x2="24" y2="48" gradientUnits="userSpaceOnUse">
<stop stop-color="#428E17"/>
<stop offset="0.845" stop-color="white"/>
</linearGradient>
</defs>
</svg>
