<svg width="149" height="127" viewBox="0 0 149 127" fill="none" xmlns="http://www.w3.org/2000/svg">
<path d="M29.0174 113V28.9857C29.7893 27.1809 31.1879 26.322 33.1087 25.997C37.3162 25.289 41.5003 24.4475 45.6961 23.6583C60.9473 20.8089 76.2042 17.9536 91.4553 15.0926C94.1887 14.5819 96.214 16.2242 96.2256 19.0214C96.2372 22.132 96.2256 25.2426 96.2256 28.3532C96.2256 29.3978 96.7286 29.9201 97.7345 29.9201C113.177 29.9201 128.614 29.9201 144.057 29.9201C147.161 29.9201 148.496 31.2722 148.496 34.406C148.496 58.7916 148.467 83.1771 148.537 107.568C148.543 110.302 146.86 112.124 143.946 112.107C128.469 112.014 112.986 112.078 97.5082 112.037C96.4113 112.037 96.1734 112.35 96.1908 113.383C96.2547 116.61 96.2256 119.837 96.2082 123.069C96.1966 125.704 94.1364 127.41 91.5482 126.928C84.4565 125.605 77.3649 124.265 70.2732 122.936C57.9586 120.626 45.6497 118.293 33.3235 116.03C31.3445 115.67 29.7951 114.939 29 113H29.0174ZM141.039 71.112C141.039 60.2598 141.027 49.4076 141.062 38.5612C141.062 37.5688 140.784 37.3599 139.832 37.3657C132.287 37.4063 124.743 37.3889 117.199 37.3889C110.548 37.3889 103.898 37.4005 97.247 37.3715C96.4462 37.3715 96.1734 37.5572 96.2024 38.3929C96.2663 40.221 96.2663 42.049 96.2024 43.877C96.1734 44.7359 96.481 44.8926 97.2644 44.8868C100.532 44.8462 103.799 44.8636 107.066 44.8694C109.521 44.8694 111.181 46.4131 111.158 48.6474C111.134 50.8178 109.48 52.3209 107.084 52.3267C103.816 52.3325 100.549 52.3615 97.2818 52.3035C96.3823 52.2861 96.1734 52.5646 96.2024 53.4119C96.2663 55.1993 96.2663 56.9925 96.2024 58.78C96.1734 59.5866 96.3939 59.8362 97.2296 59.8246C100.538 59.7781 103.84 59.7955 107.147 59.8072C109.521 59.813 111.163 61.3624 111.158 63.5503C111.152 65.7323 109.498 67.2528 107.118 67.2586C103.811 67.2644 100.508 67.2818 97.2006 67.247C96.4694 67.2412 96.185 67.4037 96.2082 68.1987C96.2663 70.0616 96.2663 71.9303 96.2082 73.799C96.185 74.594 96.4636 74.7623 97.2006 74.7565C100.508 74.7217 103.811 74.7333 107.118 74.7449C109.504 74.7507 111.158 76.277 111.163 78.459C111.169 80.6469 109.521 82.1964 107.153 82.2022C103.845 82.208 100.543 82.2312 97.2354 82.1847C96.4055 82.1731 96.1792 82.4169 96.2082 83.2235C96.2663 85.011 96.2721 86.8042 96.2082 88.5916C96.1792 89.4389 96.3823 89.7175 97.2818 89.7058C100.584 89.6478 103.892 89.6768 107.2 89.6884C109.498 89.6942 111.14 91.2379 111.158 93.3677C111.175 95.573 109.538 97.1341 107.182 97.1399C103.915 97.1515 100.648 97.1689 97.3805 97.1225C96.51 97.1109 96.1502 97.2734 96.1966 98.2483C96.2837 99.9951 96.2779 101.748 96.1966 103.495C96.156 104.435 96.4636 104.638 97.3573 104.638C111.512 104.609 125.672 104.603 139.826 104.649C140.94 104.649 141.05 104.266 141.05 103.332C141.021 92.5959 141.033 81.8656 141.033 71.1294L141.039 71.112ZM77.6318 89.6594C77.7421 89.6478 77.9336 89.6362 78.1251 89.5956C81.1834 89.0153 82.2396 85.6667 80.1098 83.2177C76.4886 79.051 72.8615 74.89 69.1938 70.7638C68.6251 70.1255 68.6715 69.7598 69.1764 69.1215C72.8789 64.4208 76.535 59.6853 80.2143 54.9614C80.9571 54.0096 81.4736 52.9767 81.2183 51.7405C80.8991 50.1562 79.9647 49.0942 78.3456 48.7344C76.7207 48.3688 75.4614 48.9898 74.4748 50.2549C71.1031 54.5784 67.7313 58.8902 64.3944 63.2369C63.7793 64.0378 63.4543 64.2583 62.6825 63.3298C60.0361 60.1728 57.2738 57.1144 54.5752 53.998C53.5713 52.8374 52.3816 52.1003 50.8089 52.4079C47.7853 52.9999 46.7465 56.3078 48.8299 58.7103C51.9579 62.3258 55.1033 65.9297 58.2777 69.5045C58.7942 70.0848 58.8058 70.4214 58.3242 71.0366C55.1207 75.0931 51.9695 79.1902 48.7951 83.2642C48.0523 84.2159 47.53 85.2373 47.7679 86.485C48.0639 88.0287 48.9576 89.0559 50.5071 89.4737C52.1843 89.9264 53.49 89.317 54.5056 88.0229C57.4305 84.2914 60.3553 80.5598 63.2222 76.7877C63.8083 76.0216 64.0695 76.1145 64.644 76.7819C67.8648 80.525 71.1437 84.2159 74.3761 87.9416C75.2292 88.9282 76.2216 89.5898 77.6376 89.6594H77.6318Z" fill="#428E17"/>
<path d="M126.066 52.321C124.824 52.321 123.577 52.3384 122.335 52.321C120.234 52.2803 118.65 50.6844 118.638 48.6243C118.626 46.5641 120.199 44.9101 122.288 44.8811C124.813 44.8405 127.343 44.8463 129.867 44.8811C131.974 44.9101 133.553 46.5235 133.564 48.5778C133.576 50.6902 131.974 52.292 129.798 52.3268C128.556 52.3442 127.308 52.3268 126.066 52.3268V52.321Z" fill="#428E17"/>
<path d="M126.037 67.2526C124.795 67.2526 123.548 67.2758 122.306 67.2526C120.217 67.2062 118.638 65.587 118.644 63.5269C118.644 61.4667 120.228 59.8418 122.323 59.8127C124.848 59.7779 127.378 59.7779 129.902 59.8127C131.991 59.8418 133.57 61.4841 133.564 63.5443C133.564 65.6044 131.98 67.2178 129.885 67.2584C128.602 67.2816 127.32 67.2584 126.037 67.2584V67.2526Z" fill="#428E17"/>
<path d="M126.055 82.1906C124.813 82.1906 123.565 82.2138 122.323 82.1906C120.228 82.15 118.644 80.5424 118.638 78.4823C118.638 76.4221 120.211 74.7797 122.3 74.7507C124.824 74.7159 127.355 74.7159 129.879 74.7507C131.98 74.7797 133.558 76.4047 133.564 78.4648C133.564 80.525 131.991 82.15 129.902 82.1964C128.62 82.2254 127.337 82.1964 126.055 82.1964V82.1906Z" fill="#428E17"/>
<path d="M126.107 97.1286C124.865 97.1286 123.617 97.146 122.375 97.1286C120.257 97.0937 118.667 95.521 118.644 93.4667C118.621 91.3543 120.211 89.7061 122.37 89.6829C124.859 89.6539 127.343 89.6539 129.833 89.6829C131.997 89.7061 133.587 91.3484 133.564 93.4609C133.541 95.5152 131.951 97.0937 129.838 97.1286C128.597 97.1518 127.349 97.1286 126.107 97.1286Z" fill="#428E17"/>
<circle cx="27.3011" cy="27.3011" r="27.3011" fill="white"/>
<path fill-rule="evenodd" clip-rule="evenodd" d="M6.0021 29.0279L26.0142 29.0279L19.1036 35.9216L22.071 38.8817L32.5639 28.4145L34.0476 26.9344L32.5639 25.4544L22.071 14.9871L19.1036 17.9472L26.0142 24.841L6 24.841C7.05349 14.2628 16.0019 5.99994 26.8831 5.99994C38.4736 5.99994 47.869 15.3723 47.869 26.9344C47.869 38.4965 38.4736 47.8689 26.8831 47.8689C16.0019 47.8689 7.05349 39.6061 6.0021 29.0279Z" fill="#428E17"/>
</svg>
