<svg width="43" height="57" viewBox="0 0 43 57" fill="none" xmlns="http://www.w3.org/2000/svg">
<path d="M27.8421 0.302307C29.4424 1.92287 31.0371 3.54878 32.6458 5.164C35.8659 8.39443 39.0916 11.6195 42.3145 14.8499C42.3982 14.9328 42.4707 15.0238 42.5487 15.1093C37.837 15.1093 33.1225 15.1093 28.4108 15.1093C27.9703 15.1093 27.7501 14.8927 27.7501 14.4595C27.7473 9.74223 27.7445 5.02494 27.7417 0.304982C27.7752 0.304982 27.8114 0.304982 27.8449 0.304982L27.8421 0.302307Z" fill="#428E17"/>
<path d="M42.6943 17.2856C42.7003 27.7959 42.6973 38.3061 42.6973 48.8163C42.6973 49.1276 42.6852 49.442 42.6641 49.7533C42.3922 53.558 39.214 56.5546 35.3711 56.5605C26.0268 56.5755 16.6826 56.5665 7.33827 56.5635C5.92742 56.5635 4.61927 56.1804 3.4501 55.411C1.1178 53.8754 0 51.6991 0 48.9301C0.00302111 35.1629 0.00302406 21.3927 0.00302406 7.62554C0.00302406 7.47886 0.00301779 7.33217 0.0060389 7.1825C0.123862 3.91657 2.2326 1.20744 5.36851 0.282444C5.67666 0.189645 6.02107 0.207605 6.29599 0.00105286H26.477C26.483 5.28161 26.486 10.5622 26.4891 15.8427C26.4891 16.3297 26.7277 16.5732 27.2051 16.5732H42.5281C42.8 16.7588 42.6943 17.0431 42.6943 17.2856Z" fill="#428E17"/>
<circle cx="21.699" cy="34.9951" r="12.6989" transform="rotate(-180 21.699 34.9951)" fill="#F9FCFA"/>
<path fill-rule="evenodd" clip-rule="evenodd" d="M20.5689 23.6952L20.5689 34.4983L16.8475 30.7678L15.2495 32.3697L20.9 38.0341L21.699 38.835L22.498 38.0341L28.1485 32.3697L26.5506 30.7678L22.8291 34.4983L22.8291 23.6941C28.5395 24.2628 33.0001 29.0934 33.0001 34.9674C33.0001 41.2243 27.9406 46.2962 21.699 46.2962C15.4574 46.2962 10.3979 41.2243 10.3979 34.9674C10.3979 29.0934 14.8585 24.2628 20.5689 23.6952Z" fill="#428E17"/>
</svg>
