<svg width="120" height="143" viewBox="0 0 120 143" fill="none" xmlns="http://www.w3.org/2000/svg">
<path d="M119.952 60.0837C119.952 84.8082 119.975 109.533 119.952 134.257C119.952 138.937 115.883 142.983 111.192 142.983C84.9231 143.006 58.6656 143.006 32.3966 142.983C27.7053 142.983 23.6595 138.948 23.6479 134.257C23.6249 109.533 23.6479 84.8082 23.6479 60.0837C24.0168 60.0837 24.3972 60.1183 24.766 60.1183C56.1182 60.1183 87.4704 60.1183 118.823 60.1183C119.191 60.1183 119.572 60.0953 119.941 60.0837H119.952ZM49.6403 101.21C51.7843 99.7696 52.6487 97.8908 52.8332 95.5394C52.9715 93.8104 53.0061 92.0929 53.0522 90.3755C53.0983 88.9116 53.5017 87.8627 55.2076 87.7013C56.441 87.5745 56.879 86.5833 56.879 85.4767C56.879 84.3241 56.2911 83.5864 55.0923 83.3212C51.5768 82.5374 48.3724 85.0272 48.2687 88.635C48.211 90.6867 48.0957 92.7384 48.0727 94.7902C48.0612 96.5422 47.2428 97.7755 45.8365 98.7322C43.3122 100.461 43.3238 102.006 45.8827 103.746C47.2658 104.691 47.9574 105.913 48.0611 107.585C48.1879 109.636 48.2456 111.677 48.2917 113.728C48.3724 117.221 51.45 119.722 54.8503 119.134C56.2104 118.904 56.9251 118.154 56.879 116.887C56.8329 115.699 56.3257 114.812 55.0117 114.662C53.5593 114.489 53.0752 113.544 53.0522 112.23C53.0291 110.789 53.0752 109.337 53.0291 107.896C52.9369 105.233 52.326 102.79 49.6288 101.21H49.6403ZM93.8792 101.107C90.7209 104.403 90.5595 104.761 90.4097 109.152C90.3751 110.27 90.548 111.377 90.4097 112.495C90.2598 113.659 89.8449 114.443 88.5885 114.593C87.1592 114.766 86.5944 115.665 86.6405 117.013C86.6866 118.293 87.4589 118.973 88.9573 119.134C92.3346 119.492 95.0549 117.094 95.2508 113.521C95.343 111.896 95.2969 110.259 95.3315 108.622C95.3891 106.593 95.8387 104.807 97.7521 103.585C100.15 102.063 100.138 100.288 97.7521 98.7438C96.0923 97.6718 95.3776 96.1849 95.3315 94.2945C95.2854 92.4272 95.3084 90.5599 95.2508 88.7041C95.1586 85.3499 92.4499 82.8717 89.1994 83.1368C87.5511 83.2751 86.7443 83.9091 86.629 85.1655C86.4907 86.5717 87.0785 87.3671 88.7383 87.7359C89.8334 87.978 90.2483 88.5774 90.3636 89.6608C90.5249 91.1939 90.4904 92.7384 90.5595 94.2715C90.6863 97.0033 91.1935 99.5852 93.8561 101.084L93.8792 101.107ZM60.0257 107.562C60.0257 110.155 60.0833 110.213 62.3656 110.213C65.0974 110.213 65.2588 110.063 65.2588 107.619C65.2588 105.21 65.0628 105.014 62.6423 105.014C60.1525 105.014 60.0257 105.129 60.0257 107.562ZM83.586 107.642C83.586 105.153 83.4707 105.026 81.0386 105.026C78.5489 105.026 78.3529 105.21 78.3529 107.55C78.3529 110.028 78.5258 110.213 80.8888 110.213C82.6869 110.213 83.586 109.352 83.586 107.631V107.642ZM74.3532 107.504C74.3532 105.095 74.2841 105.014 71.8174 105.014C69.3046 105.014 69.2469 105.072 69.2469 107.608C69.2469 109.344 70.0922 110.213 71.7828 110.213C73.4734 110.213 74.3301 109.31 74.3532 107.504Z" fill="#F3F1F1"/>
<path d="M119.952 60.0838C119.583 60.0838 119.203 60.1184 118.834 60.1184C87.482 60.1184 56.1298 60.1184 24.7776 60.1184C24.4087 60.1184 24.0283 60.0953 23.6595 60.0838C23.6595 55.9919 23.648 51.8884 23.6595 47.7965C23.6595 47.3931 23.5096 46.9551 23.89 46.6093C29.2498 46.6323 34.6212 46.6323 39.9811 46.69C41.1337 46.7015 42.2172 46.5171 43.2315 46.056C45.8596 44.8573 48.1188 43.0591 48.2225 40.0276C48.43 34.1145 48.2456 28.1783 48.2225 22.2652C48.6605 21.8503 49.2023 22.0462 49.6864 22.0462C69.9731 22.0462 90.2598 22.0347 110.535 22.0462C116.137 22.0462 119.952 25.8385 119.964 31.4173C119.964 40.9728 119.964 50.5398 119.964 60.0953L119.952 60.0838ZM107.388 42.5174C107.296 42.5289 107.192 42.5519 107.1 42.5635C105.509 40.1544 103.792 37.8145 102.363 35.3018C101.441 33.6996 100.334 33.1232 98.5474 33.2846C97.5446 33.3768 97.1873 33.5612 97.1988 34.6332C97.2564 38.7828 97.2103 42.9323 97.2334 47.0934C97.2334 49.4448 96.9337 49.0299 99.3428 49.1682C100.737 49.2489 101.233 48.88 101.152 47.4161C101.026 44.984 101.118 42.5404 101.118 40.0968C102.962 42.3329 104.61 44.5806 105.982 46.9897C106.962 48.7071 108.149 49.3987 110.109 49.1912C111.111 49.0875 111.319 48.7878 111.307 47.8657C111.261 43.8544 111.284 39.8432 111.284 35.832C111.284 33.25 111.284 33.3077 108.702 33.2615C107.653 33.2385 107.331 33.5382 107.365 34.5986C107.434 37.2382 107.388 39.8778 107.388 42.5174ZM86.9056 33.227C82.3526 33.227 78.9523 36.6273 78.9292 41.1803C78.8947 45.6641 82.6408 49.4333 87.09 49.3987C91.6776 49.3641 95.0779 45.8946 95.0664 41.2725C95.0664 36.5466 91.6891 33.227 86.9172 33.2385L86.9056 33.227ZM67.299 44.4654C66.8379 44.6037 65.8005 44.0043 65.4893 44.7305C65.1089 45.6065 65.7775 46.5055 66.3653 47.2548C66.7687 47.7735 67.2874 48.1769 67.8753 48.4651C69.6619 49.3641 71.5638 49.4679 73.4541 49.0299C75.8055 48.4881 77.2464 46.7822 77.3616 44.6844C77.4654 42.7248 76.4165 41.3532 74.0535 40.385C72.9355 39.9239 71.7943 39.5205 70.6763 39.0479C70.0423 38.7828 69.5466 38.3678 69.5697 37.5955C69.5812 37.0307 69.8579 36.5927 70.3881 36.4083C71.0912 36.1547 72.0133 36.1662 72.3015 36.7887C73.0276 38.3678 74.3301 37.9183 75.5058 37.9413C77.2809 37.9759 77.523 37.5379 76.6931 35.9357C76.3012 35.175 75.7364 34.5641 74.9872 34.1376C73.3274 33.1924 71.5407 32.9734 69.7195 33.3538C67.0223 33.907 65.6046 35.4055 65.4662 37.6532C65.351 39.7049 66.5613 41.2379 69.0971 42.1831C70.0538 42.5404 71.0336 42.8516 71.9787 43.2205C72.6934 43.5086 73.3158 43.9121 73.2582 44.8457C73.2236 45.4221 72.97 45.8601 72.4283 46.0214C71.5984 46.275 70.5149 46.4133 70.1345 45.6065C69.5351 44.304 68.5784 44.3847 67.2875 44.4769L67.299 44.4654ZM62.8497 39.5666C62.8497 38.3102 62.8497 37.0538 62.8497 35.7974C62.8497 33.2846 62.8497 33.3538 60.3715 33.2731C59.1497 33.227 58.9192 33.6765 58.9422 34.7946C59.0114 37.9067 58.9653 41.0304 58.9653 44.1541C58.9653 44.984 58.6656 45.6526 57.7896 45.7909C56.9251 45.9408 56.3142 45.4566 56.1528 44.6383C56.026 43.9582 55.6917 43.8314 55.1039 43.8544C54.4584 43.889 53.8014 43.9121 53.1559 43.8544C52.2799 43.7738 52.1531 44.2118 52.2223 44.9379C52.4874 47.589 54.7581 49.3065 57.9624 49.2489C60.7749 49.2028 62.7575 47.3931 62.8497 44.7535C62.9074 43.0361 62.8497 41.3071 62.8612 39.5896L62.8497 39.5666Z" fill="#428E17"/>
<path d="M49.6403 101.211C52.3259 102.801 52.9368 105.233 53.0406 107.896C53.0867 109.337 53.0406 110.789 53.0636 112.23C53.0867 113.544 53.5708 114.489 55.0231 114.662C56.3372 114.812 56.8443 115.699 56.8904 116.887C56.9365 118.155 56.2219 118.892 54.8618 119.134C51.4615 119.722 48.3839 117.221 48.3032 113.728C48.2571 111.677 48.1994 109.625 48.0726 107.585C47.9689 105.913 47.2888 104.68 45.8941 103.746C43.3237 102.006 43.3237 100.461 45.848 98.7324C47.2543 97.7757 48.0726 96.5424 48.0842 94.7903C48.1072 92.7386 48.2225 90.6869 48.2801 88.6352C48.3838 85.0158 51.5882 82.5376 55.1038 83.3214C56.3026 83.5865 56.8904 84.3242 56.8904 85.4769C56.8904 86.595 56.4524 87.5863 55.2191 87.7015C53.5016 87.8744 53.1097 88.9118 53.0636 90.3757C53.0175 92.0931 52.983 93.8221 52.8446 95.5396C52.6602 97.891 51.8072 99.7698 49.6518 101.211H49.6403Z" fill="#428E17"/>
<path d="M93.8791 101.107C91.205 99.5967 90.7094 97.0262 90.5826 94.2945C90.5134 92.7614 90.5364 91.2284 90.3866 89.6838C90.2713 88.6003 89.8564 88.001 88.7614 87.7589C87.1131 87.3901 86.5252 86.5947 86.652 85.1885C86.7673 83.9206 87.5741 83.2866 89.2224 83.1598C92.4729 82.8947 95.1817 85.3729 95.2739 88.7271C95.32 90.5944 95.3084 92.4617 95.3545 94.3175C95.4006 96.2079 96.1153 97.6948 97.7751 98.7668C100.161 100.311 100.173 102.086 97.7751 103.608C95.8617 104.818 95.4122 106.605 95.3545 108.645C95.3084 110.282 95.3546 111.907 95.2739 113.544C95.0779 117.117 92.3461 119.515 88.9804 119.157C87.4819 118.996 86.7097 118.316 86.6636 117.036C86.6174 115.688 87.1822 114.789 88.6115 114.616C89.8564 114.466 90.2829 113.694 90.4327 112.518C90.571 111.388 90.3981 110.282 90.4327 109.175C90.571 104.784 90.7439 104.426 93.9022 101.13L93.8791 101.107Z" fill="#428E17"/>
<path d="M60.0257 107.562C60.0257 105.141 60.1525 105.026 62.6422 105.014C65.0628 105.014 65.2588 105.21 65.2588 107.619C65.2588 110.063 65.0974 110.213 62.3656 110.213C60.0833 110.213 60.0257 110.155 60.0257 107.562Z" fill="#428E17"/>
<path d="M83.5859 107.642C83.5859 109.364 82.6869 110.224 80.8887 110.224C78.5258 110.224 78.3414 110.04 78.3529 107.562C78.3529 105.21 78.5489 105.026 81.0386 105.037C83.4707 105.037 83.5859 105.164 83.5859 107.654V107.642Z" fill="#428E17"/>
<path d="M74.3532 107.504C74.3532 109.31 73.4964 110.213 71.7828 110.213C70.0692 110.213 69.2239 109.344 69.2469 107.608C69.2469 105.072 69.3046 105.014 71.8174 105.014C74.284 105.014 74.3532 105.083 74.3532 107.504Z" fill="#428E17"/>
<path d="M107.388 42.5173C107.388 39.8777 107.434 37.2381 107.365 34.5985C107.331 33.5381 107.653 33.2499 108.702 33.2615C111.284 33.3076 111.284 33.2615 111.284 35.8319C111.284 39.8431 111.261 43.8544 111.307 47.8656C111.307 48.7877 111.111 49.0874 110.108 49.1911C108.149 49.3986 106.962 48.7186 105.982 46.9896C104.622 44.5805 102.962 42.3329 101.118 40.0967C101.118 42.5403 101.026 44.984 101.152 47.4161C101.233 48.8799 100.737 49.2488 99.3427 49.1681C96.9337 49.0298 97.2449 49.4447 97.2333 47.0933C97.2218 42.9438 97.2679 38.7827 97.1988 34.6331C97.1872 33.5612 97.5446 33.3767 98.5474 33.2845C100.346 33.1232 101.452 33.688 102.363 35.3017C103.792 37.8029 105.509 40.1428 107.1 42.5634C107.192 42.5519 107.296 42.5288 107.388 42.5173Z" fill="#F9FAFD"/>
<path d="M86.9056 33.2269C91.6776 33.2269 95.0549 36.5465 95.0549 41.2609C95.0549 45.883 91.666 49.3525 87.0785 49.3871C82.6408 49.4217 78.8947 45.6525 78.9177 41.1686C78.9523 36.6157 82.3526 33.2269 86.8941 33.2153L86.9056 33.2269ZM82.9405 41.0419C82.9289 43.8313 84.4504 45.5603 86.9286 45.6064C89.4991 45.6525 91.1474 43.9004 91.1474 41.1225C91.1474 38.4138 89.5336 36.6157 87.0785 36.6041C84.6233 36.5811 82.9635 38.3677 82.9405 41.0534V41.0419Z" fill="#F9FAFD"/>
<path d="M67.2989 44.4653C68.6014 44.3731 69.5466 44.2924 70.146 45.5949C70.5148 46.4018 71.6099 46.2635 72.4398 46.0099C72.9815 45.8485 73.2351 45.4105 73.2697 44.8342C73.3273 43.9005 72.7049 43.4971 71.9902 43.209C71.045 42.8286 70.0653 42.5289 69.1086 42.1716C66.5727 41.2264 65.3509 39.7049 65.4777 37.6416C65.6045 35.394 67.0338 33.8955 69.731 33.3422C71.5637 32.9618 73.3504 33.1809 74.9987 34.126C75.7479 34.5525 76.3127 35.1634 76.7046 35.9242C77.5345 37.5264 77.2924 37.9644 75.5173 37.9298C74.3416 37.9067 73.0391 38.3563 72.313 36.7771C72.0248 36.1547 71.1027 36.1432 70.3995 36.3968C69.8693 36.5812 69.5927 37.0192 69.5812 37.584C69.5581 38.3563 70.0538 38.7712 70.6877 39.0363C71.8058 39.4974 72.9469 39.9124 74.065 40.3734C76.4394 41.3417 77.4884 42.7133 77.3731 44.6728C77.2579 46.7706 75.817 48.4766 73.4656 49.0183C71.5753 49.4563 69.6734 49.3526 67.8868 48.4535C67.2874 48.1538 66.7802 47.7504 66.3768 47.2432C65.7889 46.5055 65.1204 45.6065 65.5008 44.7189C65.812 44.0043 66.8494 44.5921 67.3104 44.4538L67.2989 44.4653Z" fill="#F9FAFD"/>
<path d="M62.8497 39.5667C62.8497 41.2841 62.8958 43.0131 62.8497 44.7306C62.769 47.3701 60.7749 49.1798 57.9624 49.2259C54.7465 49.2836 52.4758 47.5661 52.2222 44.915C52.1531 44.1888 52.2798 43.7508 53.1559 43.8315C53.8013 43.8891 54.4584 43.8661 55.1039 43.8315C55.6917 43.8084 56.026 43.9352 56.1528 44.6153C56.3141 45.4452 56.9135 45.9178 57.7895 45.768C58.6655 45.6181 58.9653 44.9611 58.9653 44.1312C58.9653 41.0075 59.0113 37.8953 58.9422 34.7716C58.9191 33.6651 59.1497 33.2156 60.3715 33.2501C62.8497 33.3308 62.8497 33.2617 62.8497 35.7744C62.8497 37.0308 62.8497 38.2872 62.8497 39.5436V39.5667Z" fill="#F9FAFD"/>
<path d="M82.9404 41.0421C82.952 38.3679 84.6118 36.5813 87.0785 36.5928C89.5336 36.6159 91.1473 38.4025 91.1473 41.1112C91.1473 43.8891 89.499 45.6412 86.9286 45.5951C84.4504 45.5605 82.9289 43.82 82.9404 41.0306V41.0421Z" fill="#428E17"/>
<circle cx="27.9315" cy="27.3011" r="27.3011" fill="white"/>
<path fill-rule="evenodd" clip-rule="evenodd" d="M6.63247 29.0279L26.6446 29.0279L19.734 35.9216L22.7014 38.8817L33.1943 28.4145L34.678 26.9344L33.1943 25.4544L22.7014 14.9871L19.734 17.9472L26.6446 24.841L6.63037 24.841C7.68386 14.2628 16.6322 5.99994 27.5134 5.99994C39.1039 5.99994 48.4993 15.3723 48.4993 26.9344C48.4993 38.4965 39.1039 47.8689 27.5134 47.8689C16.6322 47.8689 7.68386 39.6061 6.63247 29.0279Z" fill="#428E17"/>
</svg>
