<svg width="73" height="73" viewBox="0 0 73 73" fill="none" xmlns="http://www.w3.org/2000/svg">
<circle cx="36.5" cy="36.5" r="36.5" fill="#428E17"/>
<path d="M42 19C42.3125 19 42.6125 19.1594 42.8 19.425C44.9688 22.4996 47.6812 24.3988 51.1437 26.8293C51.4688 27.0551 51.8 27.2941 52.1437 27.5332C53.95 28.8082 55 30.9664 55 33.2508C55 35.15 54.2938 36.8699 53.1375 38.125H30.8625C29.7125 36.8633 29 35.1434 29 33.2508C29 30.9664 30.0437 28.8082 31.8562 27.5332C32.1938 27.2941 32.5312 27.0617 32.8562 26.8293C36.3188 24.3988 39.0313 22.4996 41.2 19.425C41.3875 19.1594 41.6875 19 42 19ZM35 53V48.2188C35 47.3355 34.3313 46.625 33.5 46.625C32.6687 46.625 32 47.3355 32 48.2188V53H29C27.8937 53 27 52.0504 27 50.875V42.375C27 41.1996 27.8937 40.25 29 40.25H55C56.1063 40.25 57 41.1996 57 42.375V50.875C57 52.0504 56.1063 53 55 53H52V48.2188C52 47.3355 51.3313 46.625 50.5 46.625C49.6688 46.625 49 47.3355 49 48.2188V53H45V49.1484C45 47.8867 44.475 46.6914 43.5625 45.8812L42 44.5L40.4375 45.8812C39.525 46.6914 39 47.8867 39 49.1484V53H35ZM21.4 19.3453C21.5727 19.2063 21.7834 19.1311 22 19.1311C22.2166 19.1311 22.4273 19.2063 22.6 19.3453L23.6 20.1422C25.7375 21.8488 27 24.525 27 27.3672V27.5H17V27.3672C17 24.525 18.2625 21.8488 20.4 20.1422L21.4 19.3453ZM17 29.625H27V38.6961C25.8063 39.4332 25 40.8012 25 42.375V50.875C25 51.5125 25.1313 52.1102 25.3625 52.6547C24.95 52.8805 24.4875 53 24 53H20C18.3438 53 17 51.5723 17 49.8125V30.6875V29.625Z" fill="white"/>
</svg>
