<svg width="110" height="147" viewBox="0 0 110 147" fill="none" xmlns="http://www.w3.org/2000/svg">
<path d="M77.0613 25.4666C80.5018 28.9506 83.9302 32.4461 87.3887 35.9186C94.3116 42.8636 101.246 49.7972 108.175 56.7422C108.355 56.9204 108.511 57.1159 108.679 57.2999C98.5493 57.2999 88.4136 57.2999 78.284 57.2999C77.337 57.2999 76.8635 56.8342 76.8635 55.9028C76.8575 45.7612 76.8515 35.6196 76.8455 25.4723C76.9174 25.4723 76.9954 25.4723 77.0673 25.4723L77.0613 25.4666Z" fill="#428E17"/>
<path d="M109.606 61.9788C109.619 84.5745 109.613 107.17 109.613 129.766C109.613 130.435 109.587 131.111 109.541 131.78C108.957 139.96 102.124 146.402 93.8625 146.415C73.7734 146.447 53.6843 146.428 33.5952 146.422C30.5621 146.422 27.7497 145.598 25.2361 143.944C20.222 140.642 17.8188 135.964 17.8188 130.011C17.8253 100.413 17.8253 70.8086 17.8253 41.2108C17.8253 40.8955 17.8253 40.5801 17.8318 40.2583C18.0851 33.237 22.6187 27.4127 29.3605 25.424C30.023 25.2245 30.7634 25.2632 31.3545 24.8191H74.7412C74.7541 36.1717 74.7607 47.5242 74.7671 58.8768C74.7671 59.9237 75.2802 60.4471 76.3065 60.4471H109.249C109.834 60.8461 109.606 61.4575 109.606 61.9788Z" fill="#428E17"/>
<circle cx="27.7467" cy="27.3011" r="27.3011" fill="#F9FCFA"/>
<path fill-rule="evenodd" clip-rule="evenodd" d="M6.81447 29.3946L26.8266 29.3946L19.916 36.2883L22.8834 39.2484L33.3763 28.7812L34.86 27.3011L33.3763 25.821L22.8834 15.3538L19.916 18.3139L26.8266 25.2077L6.81238 25.2077C7.86587 14.6295 16.8143 6.36664 27.6954 6.36664C39.2859 6.36664 48.6813 15.739 48.6813 27.3011C48.6813 38.8632 39.2859 48.2356 27.6954 48.2356C16.8143 48.2356 7.86587 39.9728 6.81447 29.3946Z" fill="#428E17"/>
<path d="M36.7799 108V86.144H45.0039C46.8173 86.144 48.3213 86.4 49.5159 86.912C50.7106 87.4027 51.6066 88.2027 52.2039 89.312C52.8226 90.4213 53.1319 91.904 53.1319 93.76C53.1319 95.616 52.8226 97.1307 52.2039 98.304C51.6066 99.456 50.7106 100.309 49.5159 100.864C48.3213 101.397 46.8173 101.664 45.0039 101.664H41.1959V108H36.7799ZM41.1959 98.048H44.8759C46.2199 98.048 47.1799 97.696 47.7559 96.992C48.3319 96.2667 48.6199 95.2 48.6199 93.792C48.6199 92.3413 48.3319 91.3067 47.7559 90.688C47.1799 90.0693 46.2199 89.76 44.8759 89.76H41.1959V98.048ZM55.9674 108V86.144H64.3194C66.0261 86.144 67.4554 86.3893 68.6074 86.88C69.7807 87.3493 70.7194 88.0427 71.4234 88.96C72.1274 89.8773 72.6288 90.9867 72.9274 92.288C73.2474 93.5893 73.4074 95.072 73.4074 96.736C73.4074 98.4213 73.2581 99.9467 72.9594 101.312C72.6821 102.677 72.2021 103.861 71.5194 104.864C70.8368 105.867 69.9194 106.645 68.7674 107.2C67.6154 107.733 66.1754 108 64.4474 108H55.9674ZM60.3834 104.288H64.1914C65.1941 104.288 66.0047 104.096 66.6234 103.712C67.2421 103.328 67.7114 102.795 68.0314 102.112C68.3728 101.408 68.5968 100.608 68.7034 99.712C68.8314 98.7947 68.8954 97.8027 68.8954 96.736C68.8954 95.712 68.8314 94.784 68.7034 93.952C68.5754 93.0987 68.3407 92.3733 67.9994 91.776C67.6794 91.1573 67.2101 90.688 66.5914 90.368C65.9941 90.0267 65.1941 89.856 64.1914 89.856H60.3834V104.288ZM76.7174 108V86.144H90.8294V89.856H81.1334V96.448H89.0694V100.16H81.1334V108H76.7174Z" fill="white"/>
</svg>
