<svg width="48" height="48" viewBox="0 0 48 48" fill="none" xmlns="http://www.w3.org/2000/svg">
<circle cx="24" cy="24" r="23.5" fill="#FBFCFC" stroke="url(#paint0_linear_86_85)"/>
<path d="M18.0243 22.089C19.6604 22.089 21.2295 21.396 22.3864 20.1626C23.5432 18.9291 24.1932 17.2562 24.1932 15.5119C24.1932 13.7675 23.5432 12.0946 22.3864 10.8612C21.2295 9.62775 19.6604 8.93481 18.0243 8.93481C16.3883 8.93481 14.8192 9.62775 13.6623 10.8612C12.5054 12.0946 11.8555 13.7675 11.8555 15.5119C11.8555 17.2562 12.5054 18.9291 13.6623 20.1626C14.8192 21.396 16.3883 22.089 18.0243 22.089ZM31.9042 22.089C33.1312 22.089 34.308 21.5693 35.1757 20.6442C36.0434 19.7191 36.5308 18.4644 36.5308 17.1562C36.5308 15.8479 36.0434 14.5932 35.1757 13.6681C34.308 12.7431 33.1312 12.2234 31.9042 12.2234C30.6771 12.2234 29.5003 12.7431 28.6327 13.6681C27.765 14.5932 27.2776 15.8479 27.2776 17.1562C27.2776 18.4644 27.765 19.7191 28.6327 20.6442C29.5003 21.5693 30.6771 22.089 31.9042 22.089ZM10.8916 24.5554C10.1247 24.5554 9.38923 24.8802 8.84694 25.4584C8.30465 26.0365 8 26.8207 8 27.6384V28.666C8 28.666 8 36.0652 18.0243 36.0652C28.0487 36.0652 28.0487 28.666 28.0487 28.666V27.6384C28.0487 26.8207 27.744 26.0365 27.2017 25.4584C26.6594 24.8802 25.9239 24.5554 25.157 24.5554H10.8916ZM27.7973 33.672C28.8583 34.1308 30.2024 34.421 31.9034 34.421C40 34.421 40 27.8439 40 27.8439V27.6384C40 26.8209 39.6955 26.0368 39.1533 25.4586C38.6112 24.8805 37.8759 24.5556 37.1091 24.5554H28.5167C29.21 25.4123 29.5907 26.5067 29.5893 27.6384V28.703L29.5886 28.7499L29.5839 28.8732C29.5798 28.968 29.5708 29.0859 29.557 29.2267C29.5183 29.5939 29.4565 29.9578 29.3719 30.3161C29.0795 31.5424 28.5424 32.6871 27.7973 33.672Z" fill="#428E17"/>
<defs>
<linearGradient id="paint0_linear_86_85" x1="24" y1="0" x2="24" y2="48" gradientUnits="userSpaceOnUse">
<stop stop-color="#428E17"/>
<stop offset="0.845" stop-color="white"/>
</linearGradient>
</defs>
</svg>
