<svg width="48" height="48" viewBox="0 0 48 48" fill="none" xmlns="http://www.w3.org/2000/svg">
<circle cx="24" cy="24" r="23.5" fill="#FBFCFC" stroke="url(#paint0_linear_42_2284)"/>
<path d="M18.7501 28.875C18.638 28.875 18.526 28.8928 18.4191 28.9304C17.8116 29.1441 17.1727 29.2812 16.5001 29.2812C15.8274 29.2812 15.1885 29.1441 14.5805 28.9304C14.4737 28.8928 14.3621 28.875 14.2501 28.875C11.341 28.875 8.98461 31.4384 9.00008 34.594C9.00664 35.9275 10.0187 37 11.2501 37H21.75C22.9814 37 23.9935 35.9275 24 34.594C24.0155 31.4384 21.6591 28.875 18.7501 28.875ZM16.5001 27.25C18.9854 27.25 21 25.0674 21 22.375C21 19.6826 18.9854 17.5 16.5001 17.5C14.0148 17.5 12.0001 19.6826 12.0001 22.375C12.0001 25.0674 14.0148 27.25 16.5001 27.25ZM36.75 11H18.7501C17.5093 11 16.5001 12.1299 16.5001 13.5182V15.875C17.5979 15.875 18.6141 16.2193 19.5 16.7789V14.25H36V28.875H33V25.625H27V28.875H23.4263C24.3216 29.7225 24.9788 30.8418 25.2868 32.125H36.75C37.9908 32.125 39 30.9951 39 29.6068V13.5182C39 12.1299 37.9908 11 36.75 11Z" fill="#428E17"/>
<defs>
<linearGradient id="paint0_linear_42_2284" x1="24" y1="0" x2="24" y2="48" gradientUnits="userSpaceOnUse">
<stop stop-color="#428E17"/>
<stop offset="0.845" stop-color="white"/>
</linearGradient>
</defs>
</svg>
