<svg width="91" height="122" viewBox="0 0 91 122" fill="none" xmlns="http://www.w3.org/2000/svg">
<path d="M63.7005 21.2144C66.561 24.1111 69.4115 27.0173 72.2869 29.9045C78.0428 35.6788 83.8087 41.4435 89.5696 47.2178C89.7191 47.366 89.8486 47.5285 89.9882 47.6815C81.5661 47.6815 73.1391 47.6815 64.7171 47.6815C63.9297 47.6815 63.536 47.2943 63.536 46.5199C63.531 38.0879 63.526 29.6559 63.5211 21.2191C63.5809 21.2191 63.6456 21.2191 63.7054 21.2191L63.7005 21.2144Z" fill="#428E17"/>
<path d="M90.7594 51.5714C90.7702 70.3581 90.7648 89.1449 90.7648 107.932C90.7648 108.488 90.7432 109.05 90.7054 109.606C90.2194 116.407 84.5385 121.763 77.6695 121.774C60.9669 121.801 44.2642 121.785 27.5616 121.779C25.0397 121.779 22.7015 121.095 20.6116 119.719C16.4427 116.974 14.4447 113.084 14.4447 108.135C14.4501 83.5265 14.4501 58.9127 14.4501 34.3043C14.4501 34.0421 14.4501 33.7799 14.4555 33.5124C14.6661 27.6747 18.4354 22.8322 24.0407 21.1788C24.5915 21.0129 25.2071 21.045 25.6986 20.6758H61.7715C61.7823 30.1146 61.7877 39.5535 61.7931 48.9923C61.7931 49.8627 62.2197 50.2979 63.0729 50.2979H90.4624C90.9484 50.6297 90.7594 51.138 90.7594 51.5714Z" fill="#428E17"/>
<circle cx="22.6989" cy="22.7395" r="22.6989" fill="#F9FCFA"/>
<path fill-rule="evenodd" clip-rule="evenodd" d="M24.4395 40.1438L24.4395 23.5051L30.1712 29.2508L32.6323 26.7836L23.9296 18.0595L22.699 16.8259L21.4684 18.0595L12.7657 26.7836L15.2268 29.2508L20.9584 23.5051L20.9584 40.1455C12.1634 39.2696 5.29347 31.8297 5.29347 22.7827C5.29347 13.1461 13.0859 5.33448 22.699 5.33448C32.312 5.33448 40.1045 13.1461 40.1045 22.7827C40.1045 31.8297 33.2345 39.2696 24.4395 40.1438Z" fill="#428E17"/>
<path d="M31.5384 91.6502C30.2104 91.6502 29.1544 91.4262 28.3704 90.9782C27.6024 90.5302 27.0504 89.8502 26.7144 88.9382C26.3784 88.0262 26.2104 86.8822 26.2104 85.5062C26.2104 84.0182 26.4184 82.8022 26.8344 81.8582C27.2664 80.9142 27.8904 80.2182 28.7064 79.7702C29.5224 79.3062 30.5304 79.0742 31.7304 79.0742C33.5064 79.0742 34.8424 79.5222 35.7384 80.4182C36.6504 81.3142 37.1064 82.7302 37.1064 84.6662L36.9624 86.4422H29.4264C29.4424 87.3382 29.6264 88.0102 29.9784 88.4582C30.3304 88.9062 30.9384 89.1302 31.8024 89.1302C32.2984 89.1302 32.8424 89.1222 33.4344 89.1062C34.0264 89.0742 34.6104 89.0422 35.1864 89.0102C35.7784 88.9782 36.2824 88.9462 36.6984 88.9142L36.7704 91.1462C36.3704 91.2102 35.8664 91.2822 35.2584 91.3622C34.6504 91.4422 34.0184 91.5062 33.3624 91.5542C32.7224 91.6182 32.1144 91.6502 31.5384 91.6502ZM29.4264 84.4022H33.9144C33.9144 83.3142 33.7384 82.5542 33.3864 82.1222C33.0504 81.6902 32.4984 81.4742 31.7304 81.4742C30.9784 81.4742 30.4024 81.6982 30.0024 82.1462C29.6184 82.5942 29.4264 83.3462 29.4264 84.4022ZM38.2209 91.3862L41.4369 85.3862L38.2209 79.3382H41.6769L43.8129 83.5142L45.9729 79.3382H49.2369L46.0929 85.3142L49.2129 91.3862H45.7329L43.5969 87.3542L41.5329 91.3862H38.2209ZM55.7973 91.6502C54.4213 91.6502 53.3413 91.4422 52.5573 91.0262C51.7893 90.5942 51.2453 89.9062 50.9253 88.9622C50.6213 88.0182 50.4693 86.7782 50.4693 85.2422C50.4693 83.7222 50.6453 82.5142 50.9973 81.6182C51.3493 80.7062 51.9173 80.0582 52.7013 79.6742C53.5013 79.2742 54.5413 79.0742 55.8213 79.0742C56.1573 79.0742 56.5493 79.0982 56.9973 79.1462C57.4453 79.1942 57.8933 79.2582 58.3413 79.3382C58.8053 79.4022 59.1973 79.4662 59.5173 79.5302L59.3973 82.0982C59.0933 82.0662 58.7493 82.0422 58.3653 82.0262C57.9813 81.9942 57.6053 81.9702 57.2373 81.9542C56.8853 81.9222 56.5973 81.9062 56.3733 81.9062C55.6853 81.9062 55.1413 82.0182 54.7413 82.2422C54.3573 82.4502 54.0853 82.8022 53.9253 83.2982C53.7813 83.7782 53.7093 84.4262 53.7093 85.2422C53.7093 86.1222 53.7813 86.8262 53.9253 87.3542C54.0693 87.8822 54.3253 88.2582 54.6933 88.4822C55.0773 88.7062 55.6373 88.8182 56.3733 88.8182C56.5973 88.8182 56.8933 88.8102 57.2613 88.7942C57.6293 88.7622 58.0053 88.7302 58.3893 88.6982C58.7893 88.6662 59.1413 88.6422 59.4453 88.6262L59.5413 91.1942C59.2213 91.2582 58.8373 91.3222 58.3893 91.3862C57.9413 91.4662 57.4853 91.5302 57.0213 91.5782C56.5733 91.6262 56.1653 91.6502 55.7973 91.6502ZM66.4837 91.6502C65.1557 91.6502 64.0997 91.4262 63.3157 90.9782C62.5477 90.5302 61.9957 89.8502 61.6597 88.9382C61.3237 88.0262 61.1557 86.8822 61.1557 85.5062C61.1557 84.0182 61.3637 82.8022 61.7797 81.8582C62.2117 80.9142 62.8357 80.2182 63.6517 79.7702C64.4677 79.3062 65.4757 79.0742 66.6757 79.0742C68.4517 79.0742 69.7877 79.5222 70.6837 80.4182C71.5957 81.3142 72.0517 82.7302 72.0517 84.6662L71.9077 86.4422H64.3717C64.3877 87.3382 64.5717 88.0102 64.9237 88.4582C65.2757 88.9062 65.8837 89.1302 66.7477 89.1302C67.2437 89.1302 67.7877 89.1222 68.3797 89.1062C68.9717 89.0742 69.5557 89.0422 70.1317 89.0102C70.7237 88.9782 71.2277 88.9462 71.6437 88.9142L71.7157 91.1462C71.3157 91.2102 70.8117 91.2822 70.2037 91.3622C69.5957 91.4422 68.9637 91.5062 68.3077 91.5542C67.6677 91.6182 67.0597 91.6502 66.4837 91.6502ZM64.3717 84.4022H68.8597C68.8597 83.3142 68.6837 82.5542 68.3317 82.1222C67.9957 81.6902 67.4437 81.4742 66.6757 81.4742C65.9237 81.4742 65.3477 81.6982 64.9477 82.1462C64.5637 82.5942 64.3717 83.3462 64.3717 84.4022ZM74.2702 91.3862V74.4182H77.4622V91.3862H74.2702Z" fill="white"/>
</svg>
