<?xml version="1.0" encoding="UTF-8"?>
<svg id="Layer_2" data-name="Layer 2" xmlns="http://www.w3.org/2000/svg" viewBox="0 0 113.37 125.48">
  <defs>
    <style>
      .cls-1 {
        fill: #8fa954;
      }

      .cls-1, .cls-2, .cls-3, .cls-4, .cls-5 {
        stroke-width: 0px;
      }

      .cls-2 {
        fill-rule: evenodd;
      }

      .cls-2, .cls-4 {
        fill: #387e36;
      }

      .cls-3 {
        fill: #5b8e41;
      }

      .cls-5 {
        fill: #779046;
      }
    </style>
  </defs>
  <g id="Layer_1-2" data-name="Layer 1">
    <g>
      <path class="cls-5" d="M90.59,15.2c0,2.16-.68,4.07-2.03,5.74-1.9-.96-3.78-1.95-5.65-2.94-.97-.51-1.45-1.06-1.45-1.64,0,.64.59-1.37,1.79-6.03.87.71,2.46,1.61,4.78,2.7,1.7.8,2.56,1.53,2.56,2.17Z"/>
      <path class="cls-1" d="M81.47,104.53c0,2.16-.68,4.07-2.03,5.74-1.9-.96-3.78-1.95-5.65-2.94-.96-.52-1.45-1.07-1.45-1.64,0,.64.6-1.37,1.79-6.03.87.71,2.46,1.61,4.78,2.7,1.7.8,2.56,1.53,2.56,2.17Z"/>
      <path class="cls-5" d="M109.17,89.43c-2.67-3.31-5.39-4.97-8.16-4.97-2.16,0-3.94,1.24-5.36,3.72-1.22,2.15-1.83,4.53-1.83,7.14,0,1.74.32,3.02.96,3.86.77,1,2.43,1.49,4.97,1.49.42,0,1.06-.01,1.93-.05.87-.03,1.51-.05,1.93-.05,3.89,0,6.27,1.14,7.14,3.43.29.7-2.08,2.29-7.09,4.73-5.31,2.58-11.02,4.77-17.13,6.61-7.4,2.25-13.64,3.38-18.72,3.38-6.5,0-11.36-1.51-14.58-4.54-2.57-2.41-3.86-5.55-3.86-9.41,0-.7.12-1.68.36-2.92.24-1.24.36-2.15.36-2.73,0-.68-.16-1.01-.48-1.01-.61,0-1.11.8-1.5,2.41-.71,2.9-1.06,5.34-1.06,7.34,0,5.18,1.5,9.35,4.49,12.5,3.28,3.41,7.9,5.12,13.85,5.12,8.17,0,16.97-1.82,26.4-5.45,7.59-2.89,13.66-6.08,18.19-9.56.74-.58,1.48-1.88,2.22-3.91.8-2.22,1.19-4.31,1.16-6.27-.03-3.83-1.43-7.45-4.2-10.86ZM100.87,94.4c-2.16-.07-3.36-.56-3.62-1.5.58-1.32,1.53-1.95,2.84-1.88.93.03,1.8.34,2.61.92.29.19,1.22.98,2.8,2.37-1.54.03-3.09.06-4.63.1Z"/>
      <path class="cls-3" d="M42.18,31.88c0,2.16-.67,4.07-2.03,5.74-1.9-.96-3.78-1.95-5.65-2.94-.97-.51-1.45-1.06-1.45-1.64,0,.64.6-1.37,1.79-6.03.87.71,2.46,1.61,4.78,2.7,1.7.8,2.56,1.53,2.56,2.17Z"/>
      <path class="cls-4" d="M48.65,77.77c0,2.16-.68,4.07-2.03,5.74-1.9-.96-3.78-1.95-5.65-2.94-.97-.51-1.45-1.06-1.45-1.64,0,.64.59-1.36,1.79-6.03.87.7,2.46,1.61,4.78,2.7,1.7.8,2.56,1.53,2.56,2.17Z"/>
      <path class="cls-4" d="M59.37,75.84c0,2.16-.68,4.07-2.03,5.74-1.9-.96-3.78-1.95-5.65-2.94-.96-.51-1.45-1.06-1.45-1.64,0,.65.59-1.36,1.79-6.03.87.71,2.46,1.61,4.78,2.7,1.7.8,2.56,1.53,2.56,2.17Z"/>
      <path class="cls-3" d="M81.47,77.87c0,4.7-1.06,7.93-3.19,9.7-4.12,3.41-9.7,6.24-16.75,8.49-11,3.51-19.8,5.26-26.4,5.26-6.14,0-10.94-1.56-14.38-4.68-3.28-2.96-4.92-6.93-4.92-11.92,0-3.38.98-7.21,2.94-11.49.35-.74.64-1.11.87-1.11.1.03.15.15.15.34s-.03.45-.1.77l-.72,4.4c-.32,1.96-.48,3.52-.48,4.68,0,3.99,1.93,7.11,5.79,9.36,3.22,1.89,7,2.84,11.34,2.84,6.34,0,13.71-1.21,22.1-3.62,5.21-1.51,9.91-3.1,14.09-4.78,5.02-2.02,7.5-3.52,7.43-4.49-.1-1.48-.89-3.23-2.36-5.26-1.48-2.03-2.22-3.11-2.22-3.23,0-.16.18-.98.56-2.46.37-1.48.59-2.51.65-3.09,1.22.29,2.48,1.74,3.76,4.34,1.22,2.45,1.84,4.43,1.84,5.93Z"/>
      <path class="cls-1" d="M60.18,50.24c.19.55.29,1.17.29,1.88,0,1.68-.48,3.57-1.45,5.69-.87,1.9-1.69,3.09-2.46,3.57-5.63,3.48-11.41,6.2-17.33,8.16-2.51.83-6.75,1.91-12.74,3.24-6.08,1.38-10.35,2.2-12.79,2.46-1,0-2.93-.44-5.79-1.3-3.31-1-5.76-2.04-7.34-3.14-.39-.19-.58-.32-.58-.38,0-.13.89-.31,2.66-.54,4.02-.39,9.57-.95,16.65-1.69,1.67-2.03,2.88-3.7,3.62-5.02.19-1.29.29-3.67.29-7.15,0-5.18-.87-13.62-2.61-25.34-1.99-13.06-3.07-20.88-3.23-23.45-.19-.48-.53-1.04-1.01-1.69.35-.84.95-2.35,1.79-4.54.06-.68.24-1.01.53-1.01.32,0,.68.41,1.06,1.25,3.38,7.63,5.07,12.05,5.07,13.27,0,.36-.1.53-.29.53-.16,0-.39-.1-.67-.29-.45-.48-1.3-1.35-2.56-2.6.77,4.5,1.54,8.99,2.32,13.47,1.16,7.2,2.03,14.45,2.61,21.72.16,1.96.1,4.39-.19,7.29-.29,2.9-.69,4.99-1.21,6.28,4.18-4.89,7.03-8.05,8.54-9.46,5.7-5.31,10.75-7.95,15.15-7.91,2.57.03,5.16.93,7.77,2.7,2.19,1.51,3.49,2.85,3.91,4.01ZM57.14,55.69c-3.67-3.73-7.08-5.6-10.23-5.6-3.99,0-8.59,2.32-13.8,6.95-1.64,1.45-5.04,4.99-10.18,10.62,5.89-.93,12.77-2.87,20.66-5.79,6.85-2.58,11.37-4.63,13.56-6.18Z"/>
      <path class="cls-2" d="M99.06,45.36c-.14-.26-.2-.54-.34-.8-.4-.71-.89-1.36-1.38-2.02-.27-.36-.56-.69-.88-1-.66-.66-1.36-1.27-2.06-1.9-.64-.56-1.26-1.15-2-1.58-.06-.04-.12-.1-.16-.16-.2-.33-.51-.53-.81-.75-.36-.26-.72-.53-1.07-.8-1.07-.86-2.21-1.64-3.28-2.51-.61-.5-1.26-.97-1.92-1.41-.87-.58-1.71-1.2-2.57-1.81-.21-.15-.39-.32-.61-.44-.74-.43-1.36-1.02-2.02-1.56-.03-.02-.06-.05-.08-.08-.12-.14-.11-.28.01-.41.3-.32.69-.42,1.11-.38.21.02.43.08.64.07.51-.03,1.01.02,1.51.06.29.03.58.02.86-.09.41-.15.48-.32.28-.71-.03-.05-.07-.1-.11-.14-.18-.17-.37-.35-.56-.5-.91-.7-1.91-1.26-2.94-1.78-.52-.26-1.03-.53-1.55-.8-.12-.07-.25-.13-.33-.24-.15-.21-.36-.28-.59-.35-.54-.16-1.06-.4-1.53-.71-.28-.19-.58-.32-.89-.41-.64-.17-1.27-.35-1.84-.68-.05-.03-.11-.06-.16-.07-.43-.04-.82-.22-1.23-.35-.4-.12-.79-.22-1.12.15-.01.01-.04.03-.05.02-.25-.02-.28.15-.29.33,0,.05-.03.11-.06.17-.34.91-.47,1.88-.8,2.8-.1.29.01.62-.15.91-.02.03.02.11.05.15.07.1.12.19.12.32,0,.19.13.27.29.32.09.03.19.03.29.05.5.1.99.2,1.45.41.5.22.98.47,1.1,1.1.04.22.17.45.32.61.46.51.76,1.12,1.26,1.6.5.47.95,1.01,1.43,1.52.13.14.3.25.43.39.38.44.74.89,1.26,1.19.11.07.21.17.3.27.43.42.88.83,1.38,1.16.91.62,1.78,1.3,2.68,1.94,1.07.77,2.21,1.46,3.2,2.33.09.07.19.13.29.2.29.19.58.38.87.58,1.03.73,1.99,1.54,2.95,2.36.68.58,1.33,1.19,2.03,1.75.92.75,1.8,1.54,2.67,2.35.57.53,1.1,1.09,1.66,1.64.27.26.46.57.69.87.08.12.06.22-.01.32-.12.18-.28.32-.44.46-1.25,1.08-2.59,2.05-3.91,3.03-1.08.8-2.12,1.64-3.24,2.38-.68.45-1.32.96-1.97,1.44-1.07.78-2.19,1.47-3.32,2.16-1.4.87-2.75,1.82-4.12,2.74-.66.44-1.34.86-2.01,1.29-.64.41-1.27.83-1.91,1.22-.46.28-.96.51-1.42.8-.67.43-1.37.82-2.09,1.16-1.28.6-2.57,1.2-4.01,1.32-.06,0-.12.02-.17.05-.43.18-.87.16-1.32.09-.25-.04-.49-.1-.74-.12-.64-.07-1.2-.33-1.69-.73-.24-.2-.47-.41-.7-.62-.8-.76-1.42-1.65-1.73-2.72-.19-.63-.36-1.27-.5-1.92-.31-1.38-.34-2.77-.06-4.16.33-1.64.86-3.23,1.46-4.78.08-.2.17-.39.27-.58.35-.65.65-1.33,1.06-1.95.08-.13.14-.28.19-.42.18-.46.39-.89.7-1.27.23-.29.47-.57.66-.88.45-.75.88-1.51,1.32-2.26.12-.2.21-.41.24-.65.02-.13-.01-.23-.1-.32-.16-.16-.35-.17-.52-.03-.26.21-.47.46-.65.75-.23.36-.43.74-.66,1.1-.57.9-1.16,1.79-1.73,2.69-.2.31-.4.62-.54.97-.15.36-.3.72-.5,1.05-.33.51-.56,1.06-.83,1.6-.67,1.37-1.08,2.83-1.59,4.26-.06.18-.1.37-.14.56-.15.7-.28,1.41-.44,2.11-.18.82-.26,1.65-.25,2.24.08,1.44.23,2.63.53,3.81.22.87.49,1.72.81,2.55.31.82.71,1.59,1.23,2.3.58.79,1.28,1.46,2.02,2.09.56.49,1.22.83,1.97.94.33.05.65.11.97.21.47.13.92.09,1.38-.04.13-.04.26-.09.39-.09.61,0,1.18-.21,1.75-.4.76-.25,1.47-.61,2.19-.94.56-.26,1.14-.48,1.67-.83.23-.15.46-.29.7-.41.61-.3,1.2-.65,1.76-1.02.8-.51,1.57-1.07,2.38-1.56.37-.22.72-.46,1.07-.71.79-.56,1.57-1.15,2.36-1.7.74-.53,1.53-1,2.3-1.48,1.07-.66,2.1-1.39,3.1-2.18.5-.4,1-.79,1.53-1.16.65-.46,1.29-.93,1.9-1.44.46-.39.91-.78,1.39-1.16.75-.58,1.51-1.14,2.26-1.73.63-.49,1.23-1,1.85-1.5.52-.41.96-.91,1.31-1.47.26-.41.55-.8.69-1.28.32-1.04.59-2.09.68-3.18.09-1.09.05-2.17-.5-3.17Z"/>
    </g>
  </g>
</svg>