<?xml version="1.0" encoding="UTF-8"?>
<svg id="Layer_2" data-name="Layer 2" xmlns="http://www.w3.org/2000/svg" xmlns:xlink="http://www.w3.org/1999/xlink" viewBox="0 0 73.93 94.09">
  <defs>
    <style>
      .cls-1 {
        fill: url(#linear-gradient);
        stroke-width: 0px;
      }
    </style>
    <linearGradient id="linear-gradient" x1="-2614.65" y1="516.85" x2="-2611.18" y2="522.86" gradientTransform="translate(41843.63 8364.71) scale(16 -16)" gradientUnits="userSpaceOnUse">
      <stop offset="0" stop-color="#4c883c"/>
      <stop offset="1" stop-color="#83a14d"/>
    </linearGradient>
  </defs>
  <g id="Layer_1-2" data-name="Layer 1">
    <path class="cls-1" d="M63.85,0H10.08C4.52,0,0,4.52,0,10.08v73.93c0,5.56,4.52,10.08,10.08,10.08h53.76c5.56,0,10.08-4.52,10.08-10.08V10.08c0-5.56-4.52-10.08-10.08-10.08ZM67.21,84.01c0,1.85-1.51,3.36-3.36,3.36H10.08c-1.85,0-3.36-1.51-3.36-3.36V10.08c0-1.85,1.51-3.36,3.36-3.36h53.76c1.85,0,3.36,1.51,3.36,3.36v73.93ZM35.98,14.43c1.31,1.31,1.31,3.44,0,4.75l-10.08,10.08c-.66.66-1.52.98-2.38.98s-1.72-.33-2.38-.98l-6.72-6.72c-1.31-1.31-1.31-3.44,0-4.75,1.31-1.31,3.44-1.31,4.75,0l4.34,4.34,7.71-7.71c1.31-1.31,3.44-1.31,4.75,0h0ZM60.49,23.52c0,1.85-1.5,3.36-3.36,3.36h-10.08c-1.86,0-3.36-1.51-3.36-3.36s1.5-3.36,3.36-3.36h10.08c1.86,0,3.36,1.51,3.36,3.36ZM35.98,64.83c1.31,1.31,1.31,3.44,0,4.75l-10.08,10.08c-.66.66-1.52.98-2.38.98s-1.72-.33-2.38-.98l-6.72-6.72c-1.31-1.31-1.31-3.44,0-4.75,1.31-1.31,3.44-1.31,4.75,0l4.34,4.34,7.71-7.71c1.31-1.31,3.44-1.31,4.75,0h0ZM60.49,73.93c0,1.85-1.5,3.36-3.36,3.36h-10.08c-1.86,0-3.36-1.51-3.36-3.36s1.5-3.36,3.36-3.36h10.08c1.86,0,3.36,1.51,3.36,3.36ZM60.49,48.72c0,1.85-1.5,3.36-3.36,3.36h-10.08c-1.86,0-3.36-1.51-3.36-3.36s1.5-3.36,3.36-3.36h10.08c1.86,0,3.36,1.51,3.36,3.36ZM14.43,51.39l4.34-4.34-4.34-4.34c-1.31-1.31-1.31-3.44,0-4.75,1.31-1.31,3.44-1.31,4.75,0l4.34,4.34,4.34-4.34c1.31-1.31,3.44-1.31,4.75,0s1.31,3.44,0,4.75l-4.34,4.34,4.34,4.34c1.31,1.31,1.31,3.44,0,4.75-.66.66-1.52.98-2.38.98s-1.72-.33-2.38-.98l-4.34-4.34-4.34,4.34c-.66.66-1.52.98-2.38.98s-1.72-.33-2.38-.98c-1.31-1.31-1.31-3.44,0-4.75h0Z"/>
  </g>
</svg>