<?xml version="1.0" encoding="UTF-8"?>
<svg id="Layer_2" data-name="Layer 2" xmlns="http://www.w3.org/2000/svg" xmlns:xlink="http://www.w3.org/1999/xlink" viewBox="0 0 133.36 112.87">
  <defs>
    <style>
      .cls-1 {
        fill: url(#linear-gradient);
        stroke-width: 0px;
      }
    </style>
    <linearGradient id="linear-gradient" x1="-46.51" y1="676.5" x2="-46.51" y2="568.15" gradientTransform="translate(115.13 704.72) scale(1.04 -1.04)" gradientUnits="userSpaceOnUse">
      <stop offset="0" stop-color="#21732d"/>
      <stop offset="1" stop-color="#baba5e"/>
    </linearGradient>
  </defs>
  <g id="Layer_1-2" data-name="Layer 1">
    <path id="Layer_1-3" data-name="Layer_1" class="cls-1" d="M15.27,36.29c-1.72,0-3.47,1.6-4.52,3.44-1.35,2.34-1.84,5.44.31,6.67l109.15,63.03,2.8-4.86c1.54-2.67.61-6.12-2.06-7.68L16.66,36.66c-.46-.25-.92-.37-1.38-.37h0ZM120.74,112.87c-.25,0-.49-.06-.74-.18L9.59,48.92c-3.72-2.15-3.5-6.98-1.38-10.66,2.12-3.66,6.21-6.27,9.93-4.12l104.3,60.2c4.09,2.37,5.47,7.59,3.13,11.65l-3.56,6.15c-.18.34-.52.58-.89.68-.12.03-.25.06-.37.06ZM80.82,73.48c-.49,0-.98-.25-1.26-.74-.4-.71-.15-1.6.52-2l42.19-24.37c2.15-1.23,1.66-4.33.31-6.67s-3.78-4.3-5.93-3.07l-49.26,28.49c-.71.4-1.6.15-2-.52-.4-.71-.15-1.6.52-2l49.29-28.46c3.72-2.15,7.81.46,9.93,4.12s2.34,8.51-1.38,10.66l-42.19,24.37c-.25.12-.49.18-.74.18h0ZM12.6,112.87c-.49,0-.98-.25-1.26-.74l-3.53-6.12c-2.34-4.09-.95-9.31,3.13-11.65l40.87-23.6c.71-.4,1.6-.15,2,.52.4.71.15,1.6-.52,2l-40.87,23.6c-2.67,1.54-3.6,4.98-2.06,7.68l2.8,4.86,52.79-30.48c.71-.4,1.6-.15,2,.52.4.71.15,1.6-.52,2l-54.09,31.19c-.22.15-.49.22-.74.22ZM7.13,18.29c-.12,0-.25.03-.37.06-.37.09-.65.31-.83.65l-2.83,4.92c-.37.65-.15,1.51.49,1.87l63.09,36.42,63.06-36.45c.31-.18.55-.49.65-.83.09-.37.06-.74-.12-1.04l-2.83-4.92c-.18-.31-.49-.55-.83-.65-.37-.09-.74-.06-1.04.12l-58.17,33.59c-.46.25-1.01.25-1.44,0L7.81,18.47c-.22-.12-.43-.18-.68-.18h0ZM66.68,65.3c-.25,0-.49-.06-.74-.18L2.15,28.27c-2.06-1.17-2.77-3.81-1.57-5.87l2.83-4.92c.58-.98,1.51-1.69,2.61-2s2.27-.15,3.26.43l57.4,33.16L124.09,15.95c2.06-1.17,4.67-.49,5.87,1.57l2.83,4.92c.58.98.71,2.15.43,3.26-.31,1.11-1.01,2.03-2,2.61l-63.83,36.81c-.22.12-.46.18-.71.18h0ZM66.68,37.86c-.65,0-1.2-.43-1.38-1.04-4.39-14.63-16.63-18.62-28.46-22.46-7.59-2.49-14.81-4.82-18.75-10.05l-7.99,13.83c-.4.71-1.29.92-2,.52s-.92-1.29-.52-2L16.78.74C17.06.28,17.55,0,18.07,0c.52.03,1.01.34,1.26.8,2.86,5.72,10.05,8.05,18.38,10.79,10.94,3.56,23.23,7.56,28.95,20.59,5.72-13.03,17.98-17.02,28.95-20.59,8.33-2.7,15.52-5.07,18.38-10.79.25-.49.71-.8,1.26-.8.52-.03,1.04.28,1.29.74l9.19,15.92c.4.71.15,1.6-.52,2-.71.4-1.6.15-2-.52l-7.99-13.83c-3.93,5.22-11.16,7.59-18.75,10.05-11.83,3.84-24.03,7.84-28.46,22.46-.12.61-.68,1.04-1.32,1.04h0ZM66.68,52.21c-.8,0-1.44-.65-1.44-1.44v-14.35c0-.8.65-1.44,1.44-1.44s1.44.65,1.44,1.44v14.35c0,.8-.65,1.44-1.44,1.44ZM66.68,74.58c-.8,0-1.44-.65-1.44-1.44s.65-1.44,1.44-1.44,1.44.65,1.44,1.44-.65,1.44-1.44,1.44Z"/>
  </g>
</svg>