<?xml version="1.0" encoding="utf-8"?>
<!-- Generator: Adobe Illustrator 28.2.0, SVG Export Plug-In . SVG Version: 6.00 Build 0)  -->
<svg version="1.1" id="Layer_1" xmlns="http://www.w3.org/2000/svg" xmlns:xlink="http://www.w3.org/1999/xlink" x="0px" y="0px"
	 viewBox="0 0 818.8 196.9" style="enable-background:new 0 0 818.8 196.9;" xml:space="preserve">
<style type="text/css">
	.st0{fill:url(#SVGID_1_);}
	.st1{fill:url(#SVGID_00000053521468183367777760000002162932656094564790_);}
	.st2{fill:url(#SVGID_00000106142373228277670160000004745164943459269775_);}
	.st3{fill:url(#SVGID_00000052091001786114779190000014931843336104666798_);}
	.st4{fill:url(#SVGID_00000015312886917277453560000012960548986036078783_);}
	.st5{fill:url(#SVGID_00000023986640911027632790000005952440532058755492_);}
	.st6{fill:url(#SVGID_00000126281244176807216640000015869844782385306000_);}
	.st7{fill:url(#SVGID_00000030479436650468637620000000702332725939665800_);}
	.st8{fill:url(#SVGID_00000010300251825820393860000013704041743121152150_);}
	.st9{fill:url(#SVGID_00000114776929091472192850000001263533837415162757_);}
	.st10{fill:url(#SVGID_00000156576608468242056690000006854777794553011637_);}
	.st11{fill:url(#SVGID_00000163046310224171223530000013705026363096049802_);}
	.st12{fill:url(#SVGID_00000172439927564615698580000008852849475061020813_);}
	.st13{fill:url(#SVGID_00000177478321539632028320000016337755761414061750_);}
	.st14{fill:url(#SVGID_00000169544433641161725510000016631383277428385980_);}
	.st15{fill:url(#SVGID_00000127745819903472040740000015684633391314381732_);}
	.st16{fill:#FFFFFF;}
	.st17{fill:url(#SVGID_00000024692154281865052550000011705146692709421213_);}
	.st18{fill:#3E8030;}
	.st19{enable-background:new    ;}
	.st20{fill:#92A54B;}
	.st21{fill:url(#SVGID_00000146485169707833522470000017388503259324067232_);}
	.st22{fill:url(#SVGID_00000036963649739228763700000013825292793355517330_);}
	.st23{fill:url(#SVGID_00000111181979599253603950000012490551657646031002_);}
	.st24{fill:url(#SVGID_00000005987910993073715990000009360917130515872133_);}
	.st25{fill:url(#SVGID_00000080188457610510198030000009124834996030226048_);}
	.st26{fill:url(#SVGID_00000070090942932976068570000001348603744320405942_);}
	.st27{fill:url(#SVGID_00000048502002979297423290000012452125321291247746_);}
	.st28{fill:url(#SVGID_00000000217155152644532270000013881027350706821805_);}
	.st29{fill:url(#SVGID_00000074409653931904766570000005011166076771131041_);}
	.st30{fill:url(#SVGID_00000057861226485615428440000002332149228965602201_);}
	.st31{fill:url(#SVGID_00000086652926491094728820000003432024392506419599_);}
	.st32{fill:url(#SVGID_00000150792698331102281890000012465860869164265606_);}
	.st33{fill:url(#SVGID_00000093864080645097389120000011184203450552861114_);}
	.st34{fill:url(#SVGID_00000052073241113056881620000016351933042573493386_);}
	.st35{fill:url(#SVGID_00000057124908326359585230000005141118410888157877_);}
	.st36{fill:url(#SVGID_00000065046945978652860290000007606856963269502857_);}
	.st37{fill:url(#SVGID_00000147905482926786435570000007103775279837102264_);}
</style>
<g>
	<g>
		<g>
			
				<linearGradient id="SVGID_1_" gradientUnits="userSpaceOnUse" x1="91.152" y1="160.479" x2="91.152" y2="244.7234" gradientTransform="matrix(1 0 0 -1 0 326.1102)">
				<stop  offset="0" style="stop-color:#146D22"/>
				<stop  offset="8.000000e-02" style="stop-color:#115E1C"/>
				<stop  offset="0.26" style="stop-color:#0C4012"/>
				<stop  offset="0.39" style="stop-color:#146D22"/>
				<stop  offset="0.42" style="stop-color:#115E1C"/>
				<stop  offset="0.5" style="stop-color:#0C4012"/>
				<stop  offset="0.6" style="stop-color:#146D22"/>
				<stop  offset="0.64" style="stop-color:#115E1C"/>
				<stop  offset="0.73" style="stop-color:#0C4012"/>
				<stop  offset="0.86" style="stop-color:#146D22"/>
				<stop  offset="0.9" style="stop-color:#115E1C"/>
				<stop  offset="1" style="stop-color:#0C4012"/>
			</linearGradient>
			<path class="st0" d="M121,88.4c-8.4,6.1-18.7,9.7-29.8,9.7s-21.5-3.6-29.8-9.7c-0.6-0.4-1.2-0.9-1.8-1.3v82.1
				c0,1.2,1.5,1.9,2.4,1l26.8-25.9c0.5-0.5,1.4-0.5,1.9,0l29.7,26.2c0.9,0.8,2.4,0.2,2.4-1.1V87.1C122.2,87.5,121.6,88,121,88.4
				L121,88.4z M91.2,122.3L91.2,122.3L91.2,122.3L91.2,122.3L91.2,122.3c-0.1-0.1-0.6-0.6-1.3-1.1h2.7
				C91.8,121.7,91.3,122.2,91.2,122.3z"/>
			
				<linearGradient id="SVGID_00000015355593453966796860000015234859247843122059_" gradientUnits="userSpaceOnUse" x1="91.1521" y1="170.621" x2="91.1521" y2="221.0281" gradientTransform="matrix(1 0 0 -1 0 326.1102)">
				<stop  offset="0" style="stop-color:#146D22"/>
				<stop  offset="1" style="stop-color:#B7B757"/>
			</linearGradient>
			<path style="fill:url(#SVGID_00000015355593453966796860000015234859247843122059_);" d="M91.1,98.1c-11.1,0-21.5-3.6-29.8-9.7
				v76.2c0,1.2,1.4,1.8,2.3,1l0.7-0.7l2-2l22.6-21.9c0.5-0.5,1.3-0.5,1.8,0l25.2,22.3l2,1.8l0.8,0.7c0.9,0.8,2.2,0.2,2.2-1V88.4
				C112.6,94.5,102.3,98.1,91.1,98.1L91.1,98.1z M91.2,119.7L91.2,119.7L91.2,119.7L91.2,119.7L91.2,119.7c-0.1-0.1-0.6-0.6-1.3-1.1
				h2.5C91.7,119.1,91.3,119.6,91.2,119.7z"/>
			
				<linearGradient id="SVGID_00000023272053658682664970000011243136207732108453_" gradientUnits="userSpaceOnUse" x1="116.9492" y1="164.4743" x2="116.9492" y2="220.369" gradientTransform="matrix(1 0 0 -1 0 326.1102)">
				<stop  offset="0" style="stop-color:#B7B757"/>
				<stop  offset="0.56" style="stop-color:#E3E3BE"/>
				<stop  offset="0.65" style="stop-color:#D6D6A1"/>
				<stop  offset="0.81" style="stop-color:#C5C579"/>
				<stop  offset="0.93" style="stop-color:#BABA60"/>
				<stop  offset="1" style="stop-color:#B7B757"/>
			</linearGradient>
			<polygon style="fill:url(#SVGID_00000023272053658682664970000011243136207732108453_);" points="118,109.5 118,165.1 
				115.9,163.3 115.9,109.5 			"/>
			
				<linearGradient id="SVGID_00000147219734569483478680000010721048468186331064_" gradientUnits="userSpaceOnUse" x1="6260.3618" y1="164.4743" x2="6260.3618" y2="220.369" gradientTransform="matrix(-1 0 0 -1 6325.6514 326.1102)">
				<stop  offset="0" style="stop-color:#B7B757"/>
				<stop  offset="0.56" style="stop-color:#E3E3BE"/>
				<stop  offset="0.65" style="stop-color:#D6D6A1"/>
				<stop  offset="0.81" style="stop-color:#C5C579"/>
				<stop  offset="0.93" style="stop-color:#BABA60"/>
				<stop  offset="1" style="stop-color:#B7B757"/>
			</linearGradient>
			<polygon style="fill:url(#SVGID_00000147219734569483478680000010721048468186331064_);" points="64.3,109.5 64.3,165.1 
				66.3,163.3 66.3,109.5 			"/>
		</g>
		<g>
			
				<linearGradient id="SVGID_00000008115395601538193980000012389488482849128832_" gradientUnits="userSpaceOnUse" x1="6761.0728" y1="160.479" x2="6761.0728" y2="244.7234" gradientTransform="matrix(-1 0 0 -1 6832.7515 326.1102)">
				<stop  offset="0" style="stop-color:#146D22"/>
				<stop  offset="8.000000e-02" style="stop-color:#115E1C"/>
				<stop  offset="0.26" style="stop-color:#0C4012"/>
				<stop  offset="0.39" style="stop-color:#146D22"/>
				<stop  offset="0.42" style="stop-color:#115E1C"/>
				<stop  offset="0.5" style="stop-color:#0C4012"/>
				<stop  offset="0.6" style="stop-color:#146D22"/>
				<stop  offset="0.64" style="stop-color:#115E1C"/>
				<stop  offset="0.73" style="stop-color:#0C4012"/>
				<stop  offset="0.86" style="stop-color:#146D22"/>
				<stop  offset="0.9" style="stop-color:#115E1C"/>
				<stop  offset="1" style="stop-color:#0C4012"/>
			</linearGradient>
			<path style="fill:url(#SVGID_00000008115395601538193980000012389488482849128832_);" d="M40.1,87.1v82.4c0,1.2,1.5,1.9,2.4,1.1
				l29.7-26.2c0.6-0.5,1.4-0.5,1.9,0l26.8,25.9c0.9,0.9,2.4,0.2,2.4-1V87.1c-0.6,0.5-1.2,0.9-1.8,1.3c-8.4,6.1-18.7,9.7-29.8,9.7
				c-11.2,0-21.5-3.6-29.8-9.7C41.2,88,40.6,87.5,40.1,87.1L40.1,87.1z M70.3,121.2H73c-0.7,0.5-1.2,1-1.3,1.1v0l0,0l0,0v0
				C71.6,122.2,71.1,121.7,70.3,121.2z"/>
			
				<linearGradient id="SVGID_00000085243541200710986260000000688584501766860964_" gradientUnits="userSpaceOnUse" x1="6761.0752" y1="170.621" x2="6761.0752" y2="221.0281" gradientTransform="matrix(-1 0 0 -1 6832.7515 326.1102)">
				<stop  offset="0" style="stop-color:#146D22"/>
				<stop  offset="1" style="stop-color:#B7B757"/>
			</linearGradient>
			<path style="fill:url(#SVGID_00000085243541200710986260000000688584501766860964_);" d="M41.8,88.4v76.4c0,1.2,1.4,1.8,2.2,1
				l0.8-0.7l2-1.8L72.1,141c0.5-0.4,1.3-0.4,1.8,0l22.6,21.9l2,2l0.7,0.7c0.9,0.8,2.3,0.2,2.3-1V88.4c-8.4,6.1-18.7,9.7-29.8,9.7
				C60.5,98.1,50.2,94.5,41.8,88.4L41.8,88.4z M70.4,118.6h2.5c-0.7,0.5-1.1,1-1.2,1.1v0c0,0,0,0,0,0l0,0v0
				C71.6,119.6,71.1,119.1,70.4,118.6z"/>
			
				<linearGradient id="SVGID_00000009553466462245126690000001274109830216313005_" gradientUnits="userSpaceOnUse" x1="6786.8687" y1="164.4743" x2="6786.8687" y2="220.369" gradientTransform="matrix(-1 0 0 -1 6832.7515 326.1102)">
				<stop  offset="0" style="stop-color:#B7B757"/>
				<stop  offset="0.56" style="stop-color:#E3E3BE"/>
				<stop  offset="0.65" style="stop-color:#D6D6A1"/>
				<stop  offset="0.81" style="stop-color:#C5C579"/>
				<stop  offset="0.93" style="stop-color:#BABA60"/>
				<stop  offset="1" style="stop-color:#B7B757"/>
			</linearGradient>
			<polygon style="fill:url(#SVGID_00000009553466462245126690000001274109830216313005_);" points="44.9,109.5 44.9,165.1 
				46.9,163.3 46.9,109.5 			"/>
			
				<linearGradient id="SVGID_00000178188082404277951600000009267160755110606464_" gradientUnits="userSpaceOnUse" x1="-409.5577" y1="164.4743" x2="-409.5577" y2="220.369" gradientTransform="matrix(1 0 0 -1 507.1 326.1102)">
				<stop  offset="0" style="stop-color:#B7B757"/>
				<stop  offset="0.56" style="stop-color:#E3E3BE"/>
				<stop  offset="0.65" style="stop-color:#D6D6A1"/>
				<stop  offset="0.81" style="stop-color:#C5C579"/>
				<stop  offset="0.93" style="stop-color:#BABA60"/>
				<stop  offset="1" style="stop-color:#B7B757"/>
			</linearGradient>
			<polygon style="fill:url(#SVGID_00000178188082404277951600000009267160755110606464_);" points="98.6,109.5 98.6,165.1 
				96.5,163.3 96.5,109.5 			"/>
		</g>
	</g>
	<g>
		
			<linearGradient id="SVGID_00000109742289623925208740000018188373325269366701_" gradientUnits="userSpaceOnUse" x1="81.4147" y1="138.0315" x2="81.4147" y2="222.2758" gradientTransform="matrix(1 0 0 -1 0 326.1102)">
			<stop  offset="0" style="stop-color:#146D22"/>
			<stop  offset="8.000000e-02" style="stop-color:#115E1C"/>
			<stop  offset="0.26" style="stop-color:#0C4012"/>
			<stop  offset="0.39" style="stop-color:#146D22"/>
			<stop  offset="0.42" style="stop-color:#115E1C"/>
			<stop  offset="0.5" style="stop-color:#0C4012"/>
			<stop  offset="0.6" style="stop-color:#146D22"/>
			<stop  offset="0.64" style="stop-color:#115E1C"/>
			<stop  offset="0.73" style="stop-color:#0C4012"/>
			<stop  offset="0.86" style="stop-color:#146D22"/>
			<stop  offset="0.9" style="stop-color:#115E1C"/>
			<stop  offset="1" style="stop-color:#0C4012"/>
		</linearGradient>
		<path style="fill:url(#SVGID_00000109742289623925208740000018188373325269366701_);" d="M111.3,110.8c-8.4,6.1-18.7,9.7-29.8,9.7
			S60,117,51.6,110.9c-0.6-0.4-1.2-0.9-1.8-1.3v82.1c0,1.2,1.5,1.9,2.4,1l26.8-25.9c0.5-0.5,1.4-0.5,1.9,0l29.7,26.2
			c0.9,0.8,2.4,0.2,2.4-1.1v-82.4C112.4,110,111.9,110.4,111.3,110.8L111.3,110.8z M81.4,144.8L81.4,144.8L81.4,144.8L81.4,144.8
			L81.4,144.8c-0.1-0.1-0.6-0.6-1.3-1.1h2.7C82,144.2,81.5,144.7,81.4,144.8z"/>
		
			<linearGradient id="SVGID_00000052786889045809217590000016713661245897883058_" gradientUnits="userSpaceOnUse" x1="81.4147" y1="148.1734" x2="81.4147" y2="198.5805" gradientTransform="matrix(1 0 0 -1 0 326.1102)">
			<stop  offset="0" style="stop-color:#146D22"/>
			<stop  offset="1" style="stop-color:#B7B757"/>
		</linearGradient>
		<path style="fill:url(#SVGID_00000052786889045809217590000016713661245897883058_);" d="M81.4,120.6c-11.1,0-21.5-3.6-29.8-9.7
			V187c0,1.2,1.4,1.8,2.3,1l0.7-0.7l2-2l22.6-21.9c0.5-0.5,1.3-0.5,1.8,0l25.2,22.3l2,1.8l0.8,0.7c0.9,0.8,2.2,0.2,2.2-1v-76.4
			C102.9,117,92.6,120.6,81.4,120.6L81.4,120.6z M81.4,142.1L81.4,142.1L81.4,142.1L81.4,142.1L81.4,142.1c-0.1-0.1-0.6-0.6-1.3-1.1
			h2.5C82,141.6,81.5,142.1,81.4,142.1z"/>
		
			<linearGradient id="SVGID_00000137124304406597677930000010459362755554149306_" gradientUnits="userSpaceOnUse" x1="107.2106" y1="142.0267" x2="107.2106" y2="197.9215" gradientTransform="matrix(1 0 0 -1 0 326.1102)">
			<stop  offset="0" style="stop-color:#B7B757"/>
			<stop  offset="0.56" style="stop-color:#E3E3BE"/>
			<stop  offset="0.65" style="stop-color:#D6D6A1"/>
			<stop  offset="0.81" style="stop-color:#C5C579"/>
			<stop  offset="0.93" style="stop-color:#BABA60"/>
			<stop  offset="1" style="stop-color:#B7B757"/>
		</linearGradient>
		<polygon style="fill:url(#SVGID_00000137124304406597677930000010459362755554149306_);" points="108.2,131.9 108.2,187.5 
			106.2,185.7 106.2,131.9 		"/>
		
			<linearGradient id="SVGID_00000160883805873369664390000016852403596923903628_" gradientUnits="userSpaceOnUse" x1="6270.1016" y1="142.0267" x2="6270.1016" y2="197.9215" gradientTransform="matrix(-1 0 0 -1 6325.6514 326.1102)">
			<stop  offset="0" style="stop-color:#B7B757"/>
			<stop  offset="0.56" style="stop-color:#E3E3BE"/>
			<stop  offset="0.65" style="stop-color:#D6D6A1"/>
			<stop  offset="0.81" style="stop-color:#C5C579"/>
			<stop  offset="0.93" style="stop-color:#BABA60"/>
			<stop  offset="1" style="stop-color:#B7B757"/>
		</linearGradient>
		<polygon style="fill:url(#SVGID_00000160883805873369664390000016852403596923903628_);" points="54.5,131.9 54.5,187.5 
			56.6,185.7 56.6,131.9 		"/>
	</g>
	
		<radialGradient id="SVGID_00000052813282906822235740000011892033194899439288_" cx="81.4147" cy="252.1511" r="122.5907" gradientTransform="matrix(1 0 0 -1 0 327.5802)" gradientUnits="userSpaceOnUse">
		<stop  offset="0" style="stop-color:#309840"/>
		<stop  offset="0.2" style="stop-color:#2B8C39"/>
		<stop  offset="0.57" style="stop-color:#1E6C29"/>
		<stop  offset="1" style="stop-color:#0C4012"/>
	</radialGradient>
	<path style="fill:url(#SVGID_00000052813282906822235740000011892033194899439288_);" d="M115.4,132.1H47.5
		c-5.1,0-9.8-1.6-13.6-4.4c-5.7-4.2-9.4-10.9-9.4-18.5V41.4c0-4.9,1.6-9.5,4.2-13.2c4.2-5.9,11-9.7,18.8-9.7h67.9
		c7.9,0,14.8,3.9,19,10c2.5,3.7,4,8.2,4,13v67.8c0,5.8-2.1,11.1-5.7,15.1C128.5,129.1,122.3,132.1,115.4,132.1L115.4,132.1z"/>
	
		<radialGradient id="SVGID_00000099625109268145147870000000653910002701508255_" cx="81.4153" cy="251.0373" r="125.3905" gradientTransform="matrix(1 0 0 -1 0 326.1102)" gradientUnits="userSpaceOnUse">
		<stop  offset="0" style="stop-color:#309840"/>
		<stop  offset="0.2" style="stop-color:#2B8C39"/>
		<stop  offset="0.57" style="stop-color:#1E6C29"/>
		<stop  offset="1" style="stop-color:#0C4012"/>
	</radialGradient>
	<path style="fill:url(#SVGID_00000099625109268145147870000000653910002701508255_);" d="M145.7,91.5l-48,47.9
		c-3.7,3.7-8.3,5.8-13.1,6.5c-6.9,0.9-14.1-1.2-19.4-6.5l-48-47.9c-4.7-4.7-7-11-6.7-17.2c0.2-5.5,2.5-11,6.7-15.2l48-47.9
		c4.3-4.3,9.9-6.5,15.5-6.7c6.1-0.2,12.3,2,17,6.7l48,47.9c5.1,5,7.3,11.8,6.6,18.4C151.8,82.6,149.6,87.6,145.7,91.5L145.7,91.5z"
		/>
	
		<radialGradient id="SVGID_00000077324067568877986940000011397153923322999186_" cx="81.4171" cy="252.1511" r="54.6579" gradientTransform="matrix(1 0 0 -1 0 327.5802)" gradientUnits="userSpaceOnUse">
		<stop  offset="0" style="stop-color:#B7B757"/>
		<stop  offset="0.93" style="stop-color:#E3E3BE"/>
		<stop  offset="0.94" style="stop-color:#D6D6A1"/>
		<stop  offset="0.97" style="stop-color:#C5C579"/>
		<stop  offset="0.99" style="stop-color:#BABA60"/>
		<stop  offset="1" style="stop-color:#B7B757"/>
	</radialGradient>
	
		<ellipse style="fill:url(#SVGID_00000077324067568877986940000011397153923322999186_);" cx="81.4" cy="75.3" rx="54.6" ry="54.5"/>
	
		<radialGradient id="SVGID_00000077289954307057095150000015081783173289465515_" cx="81.4171" cy="252.1511" r="68.8012" gradientTransform="matrix(1 0 0 -1 0 327.5802)" gradientUnits="userSpaceOnUse">
		<stop  offset="0" style="stop-color:#309840"/>
		<stop  offset="0.18" style="stop-color:#2D913C"/>
		<stop  offset="0.44" style="stop-color:#257D32"/>
		<stop  offset="0.74" style="stop-color:#185E21"/>
		<stop  offset="0.99" style="stop-color:#0C4012"/>
	</radialGradient>
	
		<ellipse style="fill:url(#SVGID_00000077289954307057095150000015081783173289465515_);" cx="81.4" cy="75.3" rx="52.5" ry="52.4"/>
	
		<image style="overflow:visible;enable-background:new    ;" width="454" height="455" xlink:href="BD192B2.png"  transform="matrix(0.2423 0 0 0.2423 26.4163 20.2005)">
	</image>
	<g>
		<g>
			<g>
				<path class="st16" d="M101.8,73.4c-0.3-3.5-0.6-5.8-0.8-7.6c0,0,0.1,0.1,0.1,0.2l0.1,0.1c0.1,0.1,0.2,0.1,0.3,0.1
					c0.1,0,0.2,0,0.2-0.1c0.2-0.2,0.5-0.4-1.8-6c0,0,0,0,0,0l-0.3-0.7l0,0l-1.3,3l0.1,0.1l0,0.1c0.1,0.3,0.2,0.6,0.4,1
					c0.1,1.2,0.3,2.2,0.4,3.3c0.3,1.9,0.6,4.4,0.9,8.6c0.2,1.9,0.2,3.3,0.3,4.2c-0.1,0.1-0.2,0.1-0.6,0.3l0,0
					c-1,0.4-2.2,0.5-3.2,0.2c-1-0.3-2.1-1.1-2.8-2.2c0-0.1-0.1-0.1-0.1-0.2c0,0,0.1-0.1,0.1-0.1c1.3-1,1.8-2,2.1-3.6
					c0.1-0.5,0.2-1.7,0-2.4c-0.5-2.1-1.9-3.9-2.9-3.7c-1.8,0.3-2.9,2.9-2.8,5.2c0,1.1,0.3,2.3,0.7,3.5c-0.1,0-0.1,0-0.2,0.1v0
					l-0.5,0.2c0,0-0.1,0-0.1,0l-0.1,0c-1.2,0.6-2.5,1.2-3.8,2c-1.3,0.8-2.5,1.8-3.8,3.1c-0.4,0.4-0.7,0.8-1.1,1.2
					c-1,1.1-2,2.2-3.1,3.1l0.1,1.1c0,0-2,1.2-2.6,1c-0.2-0.1-0.3-0.4-0.4-0.8c-0.2,0-0.3,0-0.5,0c-0.6-0.1-1-0.3-1.3-0.8
					c-0.7-1-0.5-2.9-0.1-4.2c0.4-1.3,0.8-2,1-2.5c0.1-0.2,0.2-0.4,0.3-0.6l0-0.1c0.1-0.2,0.1-0.4,0-0.6l-0.1-0.1l-0.2,0
					c-0.5,0.1-1.5,2.2-2.1,4c-0.4,1.4-0.6,4,0.5,5.7c0.6,0.9,1.5,1.5,2.6,1.7h0.2c1.1,0,2-0.5,2.5-0.8c1.3-0.9,2.5-2.3,3.5-3.5
					c0.4-0.4,0.7-0.8,1-1.2c2.6-2.8,4.9-4.1,6.9-5l0.5-0.2c0.2-0.1,0.5-0.2,0.7-0.3l0,0l0.6-0.3c0,0,0.1,0,0.1-0.1
					c0.3,0.6,0.7,1.2,1.1,1.7c0.8,1.1,1.8,1.9,2.9,2.3l0,0l0.2,0.1l0.3,0.1l0,0c0.4,0.1,0.8,0.2,1.3,0.2c0.5,0,1.1-0.1,1.6-0.2l0,0
					l0.5-0.2h0l0.1-0.1v0c0.2-0.1,0.5-0.3,0.7-0.4c0.4-0.3,0.6-0.6,0.8-0.9c0,0,0-0.1,0.1-0.1l0-0.1c0,0,0,0,0,0
					C102,80.1,102.3,79.1,101.8,73.4L101.8,73.4z M92.6,75.9c-0.6-1.3-1.1-2.4-1.1-3c0-0.8,0.8-1.8,1.2-1.9c0,0,0,0,0.1,0
					c0.4,0,1.1,0.8,1.7,2c0.2,0.5,0.4,1,0.4,1.1c-0.1,0.2-0.3,0.6-0.9,1C93.5,75.5,93,75.7,92.6,75.9L92.6,75.9z"/>
				<path class="st16" d="M102.3,37.6c0.1,0.2,0.2,0.4,0.2,0.6c0,0.1,0.1,0.3,0.1,0.4c0.1,1.2,0.4,5.8,0.7,11.6
					c0.6,10.7,2.1,33.4,2.5,37.7c0,0.4,0.1,0.8,0.1,1.1l0,0.5c0,1.1,0.1,1.2,0.3,1.2c0,0,0,0,0.1,0c0.2,0,0.3-0.2,0.4-0.4l0,0
					c0.2-0.5,0.4-1.2,0.5-2.1c0.2-0.8,0.1-1.9,0.1-2.7c-0.3-4.1-1.7-25.2-2.3-35.8c-0.2-3.7-0.4-7-0.6-9.5c0.1,0.1,0.2,0.3,0.4,0.5
					l0.1,0.1c0.1,0.1,0.2,0.2,0.3,0.2c0.1,0,0.1,0,0.2,0c0.5-0.3-0.8-3.9-1.7-6l-0.2-0.8l-1.3,3.1l0,0l0,0L102.3,37.6L102.3,37.6z
					 M106.3,90.3L106.3,90.3C106.3,90.3,106.3,90.3,106.3,90.3L106.3,90.3C106.2,90.3,106.3,90.3,106.3,90.3L106.3,90.3z"/>
				<path class="st16" d="M96.5,34.6c0.1,0.2,0.2,0.4,0.2,0.6c0,0.1,0.1,0.3,0.1,0.4c0.1,1.4,0.2,2.7,0.4,4.3
					c0.2,1.8,1,12.1,1.2,15.7c0,0.4,0.1,0.8,0.1,1.1l0,0.5c0,1.1,0.1,1.2,0.3,1.2c0,0,0,0,0.1,0c0.2,0,0.3-0.2,0.4-0.4l0,0
					c0.2-0.5,0.4-1.2,0.5-2.1c0.2-0.8,0.1-1.9,0.1-2.7c-0.3-3.6-1-14-1.2-15.8c0.1,0.1,0.2,0.2,0.3,0.4l0.1,0.1
					c0.1,0.1,0.2,0.2,0.3,0.2c0.1,0,0.1,0,0.2,0c0.5-0.3-0.8-3.9-1.7-6l-0.2-0.8l-1.3,3.1l0,0l0,0L96.5,34.6L96.5,34.6z M98.9,58
					L98.9,58C98.9,58,98.9,58,98.9,58L98.9,58C98.8,58,98.9,58,98.9,58L98.9,58z"/>
				<path class="st16" d="M107.5,41.8c0.1,0.2,0.2,0.4,0.2,0.6c0,0.1,0.1,0.3,0.1,0.4c0.1,1.1,0.3,5,0.6,10
					c0.6,9.6,1.4,30.8,1.8,35.2c0,0.4,0.1,0.8,0.1,1.1l0,0.5c0,1.1,0.1,1.2,0.3,1.2c0,0,0,0,0.1,0c0.2,0,0.3-0.2,0.4-0.4l0,0
					c0.2-0.5,0.4-1.2,0.5-2.1c0.2-0.8,0.1-1.9,0.1-2.7c-0.3-4.1-1-23.8-1.6-33.2c-0.2-3.1-0.4-5.8-0.5-7.9c0.1,0.1,0.2,0.3,0.4,0.5
					l0.1,0.1c0.1,0.1,0.2,0.2,0.3,0.2c0.1,0,0.1,0,0.2,0c0.5-0.3-0.8-3.9-1.7-6l-0.2-0.8l-1.3,3.1l0,0l0,0L107.5,41.8L107.5,41.8z
					 M110.7,90.4L110.7,90.4C110.7,90.4,110.7,90.4,110.7,90.4L110.7,90.4C110.6,90.4,110.6,90.4,110.7,90.4L110.7,90.4z"/>
				<path class="st16" d="M122.6,90.4c-0.3-4.1-1.3-24-1.6-29.6c-0.1-1.3-0.2-2.6-0.2-3.8c0.1,0.1,0.2,0.3,0.4,0.5l0.1,0.1
					c0.1,0.1,0.2,0.2,0.3,0.2c0.1,0,0.1,0,0.2,0c0.5-0.3-0.8-3.9-1.7-6l-0.2-0.8l-1.3,3.1l0,0l0,0l0.1,0.1c0.1,0.2,0.2,0.4,0.2,0.6
					c0,0.1,0.1,0.3,0.1,0.4c0.1,1.1,0.2,3.6,0.4,6.7c0.4,5.7,1.4,26.4,1.8,30.8c0,0.4,0.1,0.8,0.1,1.1l0,0.5c0,1.1,0.1,1.2,0.3,1.2
					c0,0,0,0,0.1,0c0.2,0,0.3-0.2,0.4-0.4l0,0c0.2-0.5,0.4-1.2,0.5-2.1C122.7,92.3,122.7,91.2,122.6,90.4L122.6,90.4z M121.5,95
					L121.5,95C121.6,95,121.6,95,121.5,95L121.5,95C121.5,95,121.5,95,121.5,95L121.5,95z"/>
				<path class="st16" d="M57,101.8l0.2,0.1c-0.2,0.1-0.4,0.2-0.6,0.3c0.1-0.2,0.2-0.3,0.3-0.3L57,101.8L57,101.8z"/>
				<path class="st16" d="M58.5,91.9c-0.9,1.1-0.8,1.5-0.6,1.8c0.2,0.3,1,1.1,2.8,1.3c0.4,0.1,0.7,0.1,1,0.1
					c1.1,0.2,1.6,0.2,2.1,0.5c0.3,0.2,0.4,0.4,0.6,0.8l0,0l0,0.1c0.1,0.3,0.2,0.7,0.2,1.2c0,0.8-0.2,1.9-0.9,3l0,0v0
					c-0.2,0.3-0.5,0.7-0.9,1c-0.2,0.2-1.1,0.9-2.4,1.8c0,0,0,0,0,0c0,0-0.2,0.1-0.3,0.2c-0.1,0.1-0.2,0.2-0.3,0.2l0,0
					c-1.3,0.8-4.2,2.4-6.8,2.8c-0.4,0.1-0.8,0.1-1.2,0.1c-0.1,0-0.3,0-0.4,0c-0.1,0-0.2,0-0.2,0c0,0-0.1,0-0.1,0
					c-1.8-0.1-4.8-0.9-5.8-4.7c-1-3.8,1.1-7.9,1.6-8.3l0.2-0.1l0.2,0.1c0.2,0.2,0.1,0.4,0.1,0.5l-0.1,0.4c-0.4,1.2-1.3,3.7-0.6,6
					c0.6,1.8,2.4,3,4.7,3.2c0.9,0.1,1.9,0,2.8-0.3c0.1,0,0.1,0,0.2-0.1c0.2,0,0.3-0.1,0.5-0.1c0.3-0.1,0.6-0.2,0.9-0.3
					c0.3-0.1,0.7-0.3,1-0.4c0,0,0,0,0,0c0.3-0.2,0.7-0.3,0.9-0.4v0c0.1-0.1,0.2-0.1,0.4-0.2c0.1,0,0.1-0.1,0.2-0.1
					c0.2-0.1,0.3-0.2,0.4-0.2c0,0,0,0,0.1,0c0,0,0,0,0,0c2-1.1,3.6-2.3,4.2-2.8c0.2-0.2,0.4-0.3,0.6-0.6c0,0-0.1,0-0.1-0.1
					c-0.3-0.2-0.9-0.3-2.1-0.5l-0.7-0.1c-1.7-0.3-3.5-0.8-3.7-2.7c-0.3-2.7,1.5-5.3,1.9-5.8c1.7-2.2,3.6-3.6,4.9-3.4
					c0.3,0,0.8,0.2,1.1,0.6c0.2,0.3,0.3,0.6,0.3,1c0,0.2,0,0.4-0.1,0.6l-0.2,1c0,0.2-0.2,0.3-0.2,0.3c-0.2,0.1-0.3-0.1-0.5-0.2
					c-0.2-0.2-0.5-0.5-1-0.5C61.9,88.6,60.2,89.6,58.5,91.9L58.5,91.9z"/>
				<path class="st16" d="M117,102.9C117,102.9,117,102.9,117,102.9L117,102.9l-0.1,0.1c0,0,0,0.1-0.1,0.1c-0.2,0.3-0.4,0.7-0.8,0.9
					c-0.1,0.1-0.4,0.3-0.7,0.4v0l-0.1,0.1l-0.5,0.2l0,0c-0.5,0.1-0.9,0.2-1.4,0.2c-0.6,0-1.3-0.1-1.8-0.4l0,0l-0.3-0.2h0l-0.2-0.1
					l0,0c-0.6-0.4-1.1-1.1-1.2-1.9c-0.1-0.4-0.1-0.8-0.1-1.4c-0.3,0.1-0.6,0.1-0.9,0.2l-1.5,0.3c-5.6,0.9-17.2,2.8-26.3,2.8
					c-0.2,0-0.5,0-0.7,0h-0.3c-0.1,0-0.2,0-0.2,0c-0.6,0-1.3,0-1.9-0.2l0,0l-0.3-0.2l-0.2-0.1v0c-0.6-0.4-1.2-1.3-1.5-2.5
					c-0.1-0.5-0.3-1.1-0.4-2.1l0-0.2c0-0.2-0.1-0.6-0.1-0.8c-0.1,0.2-0.2,0.6-0.3,0.8c-0.1,0.3-0.2,0.6-0.4,0.9
					c-0.2,0.6-0.5,0.9-0.8,1.2c-0.3,0.2-0.5,0.4-0.8,0.5l-0.1,0.1v0l-0.5,0.2l0-0.1c-0.2,0-0.3,0.1-0.5,0.1c-0.1,0-0.2,0-0.3,0
					c0,0.1,0,0.2,0.1,0.2c0.1,0.4,0.1,0.7,0.1,1c0,0.1,0,0.1,0,0.1v0l0,0.1c0,0.1,0,0.3,0,0.4c0,0.1,0,0.2,0,0.3c0,0,0,0.1,0,0.1
					c0,0.3-0.1,0.6-0.2,0.8c0,0.1,0,0.2-0.1,0.3c-0.1,0.4-0.4,1.1-0.8,1.7c-1.9,2.4-7.5,7.1-11.1,7.1h0c-2.1,0-4.2-1.9-4.3-6.1
					c0-0.4,0-0.9,0.1-1.3c0.3-0.1,0.7-0.2,1-0.4c-0.1,0.4-0.1,0.8-0.1,1.2c0.1,3.4,2.7,3.7,3.5,3.7h0c3.4,0,8.8-4.6,10.6-6.9
					l0.2-0.2l0.1-0.1c0,0,0,0,0-0.1c-0.3-1.4-1-3-1.9-4.2l-0.1-0.1l0.1-0.5l0.5-2.7l0-0.1l0.4,0.6c0.3,0.3,0.4,0.5,0.6,0.7
					c0.2,0.3,0.3,0.4,0.6,0.7c0.6,0.5,1.7,0.7,2.3,0.4h0c0.4-0.2,0.7-0.5,1.2-1.4c0.2-0.4,0.3-0.8,0.4-1.2c0.2-0.5,0.3-0.9,0.7-1.1
					c0.2-0.1,0.4-0.1,0.5,0c0.3,0.2,0.4,0.5,0.6,1.4c0.1,0.3,0.1,0.5,0.1,0.8c0.1,0.4,0.1,0.9,0.2,1.4c0.2,0.7,0.4,1.2,0.7,1.6
					s0.5,0.6,0.7,0.7c0.6,0.3,1.4,0.3,2.2,0.3h0l0,0l0.2,0H81c9.1,0.1,20.9-1.9,26.6-2.8l1.5-0.2c0.4-0.1,0.8-0.2,1.1-0.2
					c0.6-0.1,1-0.2,1.2-0.3c0,0,0,0,0.1,0c-0.3-0.6-2.2-2.4-5.1-2.4c-1.8-0.1-4.8,0.4-8.3,0.9c-4.6,0.7-9.7,1.4-14.1,1.4l-0.3,0
					c-1.5-0.1-4.5-0.3-4.8-2.1c-0.3-2.8,1.7-5.1,3.8-6.9c2.4-2,9.4-5.7,11.8-5.2c0.2,0,0.4,0.2,0.5,0.4c0.1,0.2,0.2,0.4,0.2,0.7
					c0,0.2,0,0.4-0.1,0.7v0l-0.3,1l-0.1,0.3c0,0.2-0.1,0.4-0.4,0.5c-0.2,0-0.4-0.2-0.4-0.3c-0.1-0.1-0.2-0.3-0.4-0.4
					c-1.8-0.5-7.3,2.3-10.5,4.6c-1.9,1.3-2.7,2.4-2.7,2.7c0.4,0.9,2.7,1.3,4.5,1.3c4.3,0,9.3-0.7,13.8-1.4c3.4-0.5,6.4-1,8.2-0.9
					c1.8,0,4.3,0.7,5.5,2.5c0.7,1,0.8,2.3,0.2,3.6c-0.1,0.1-0.1,0.2-0.2,0.4c-0.4,0.9-0.7,1.6-1.1,1.8c-0.1,0-0.1,0.1-0.2,0.1
					c0.2,0.3,0.4,0.6,0.8,0.8c1.1,0.6,2.5,0.6,3.6,0.1l0,0c0.4-0.2,0.5-0.3,0.6-0.3c-0.1-1-0.1-2.3-0.3-4.3
					c-0.3-3.7-0.8-14.5-1.2-24.1c-0.3-7.9-1.1-24.6-1.2-26.1c-0.1-0.4-0.3-0.7-0.4-1l0-0.1l-0.1-0.1l1.3-3l0,0l0.3,0.7
					c2.3,5.7,2.1,5.9,1.8,6c0,0-0.1,0.1-0.2,0.1c-0.1,0-0.2,0-0.3-0.1l-0.1-0.1c-0.2-0.2-0.4-0.4-0.5-0.5c0.2,3.2,0.8,17.1,1,22.1
					c0.4,9.6,0.9,20.4,1.2,24.1C117.8,100.5,117.5,101.5,117,102.9L117,102.9z"/>
				<path class="st16" d="M50.3,53.4c-0.1-2.3-0.1-6.9-0.4-9.1c-0.1-1-0.4-2.1-0.6-2.9l-0.2-0.8l-1.3,3.1l0,0.1
					c0.2,0.7,0.4,1.8,0.6,2.8c0.2,1.9,0.3,6.5,0.3,8.4c0,1.1,0.1,1.4,0.1,2.7l1.5-2l0,0C50.4,54.5,50.4,54.5,50.3,53.4L50.3,53.4z
					 M97,60c-0.5-0.7-1.1-1.1-1.9-1.2c-0.7-0.1-1.7,0.1-3,0.6c-0.2-1-0.5-2.1-0.6-4.3c-0.3-3.9-0.6-16.2-0.9-19.3
					c0.1,0.1,0.1,0.2,0.2,0.3l0.1,0.1c0.1,0.1,0.2,0.2,0.3,0.2c0.1,0,0.1,0,0.2-0.1c0.4-0.3-0.2-2.3-1.7-6l-0.2-0.9l-0.1,0.2l-1.2,3
					l0.1,0.1c0.1,0.2,0.2,0.4,0.2,0.6c0.1,0.2,0.1,0.3,0.2,0.5c0.3,3.2,0.8,17,1.3,23.5c0.1,1.4,0.2,2.3,0.4,3
					c-0.1,0-0.1,0.1-0.1,0.1c-0.1,0.1-0.3,0.2-0.4,0.2c-1,0.6-2.5,0.8-3.4,0.2h0c-0.1-0.1-0.4-0.3-0.7-0.9c-0.1-0.2,0-0.5,0-0.7
					c0.1-0.2,0.1-0.4-0.1-0.6c-0.2-0.1-0.4,0-0.5,0c-0.2,0.1-0.4,0.4-0.6,0.8c-0.5,0.9-1.4,2.3-2.9,2.3h0c-0.3,0-0.6-0.1-0.8-0.3
					c-0.3-0.3-0.3-0.8-0.3-1.1c0.1-0.4,0.2-0.6,0.2-0.8c0.1-0.2,0.1-0.3,0.1-0.5c-0.1-0.1-0.1-0.2-0.3-0.2l0,0l0,0
					c-0.6,0-0.9,0.6-1.4,1.3c-0.7,1-1.6,2.3-3.2,2.3c-0.3,0-1.8-0.1-2.2-1.3c-0.1-0.5,0.1-1,0.1-1.3c0.1-0.3,0.2-0.5,0-0.7
					c-0.2-0.2-0.5,0-0.7,0.1c-0.2,0.1-0.5,0.4-0.7,0.6l-0.1,0.1c-0.2,0.2-0.4,0.5-0.7,0.7c-0.4,0.4-0.8,0.8-1.1,1.1h0
					c-1.5,0.9-16.9,1.3-18.4,0.4c-0.4-0.3-1.2-0.6-1.5-3.4c-0.4,0.8-0.9,1.7-1.5,2.2c0.4,2.6,1.4,3.5,2.1,4l0.1,0.1c0,0,0,0,0,0
					l0.4,0.3l0-0.1c0.8,0.3,2.1,0.5,3.5,0.5c1.9,0,13.4-0.3,14.6-0.8l0,0.1l0.6-0.4h0l0.1-0.1l0,0c0.5-0.4,1-1,1.4-1.5l0.1-0.1
					c0.1-0.2,0.2-0.3,0.3-0.3c0,0,0,0.1,0,0.1c0,0.2,0.1,0.6,0.3,1.1c0.5,1.3,1.7,1.8,2.8,1.8c0,0,0.1,0,0.1,0
					c2.1,0,3.2-1.6,3.7-2.4c0,0.1,0,0.2,0.1,0.2c0.4,1.2,1.3,1.6,2,1.6c1.9,0,2.9-1.5,3.4-2.6c0,0.1,0.1,0.2,0.2,0.3
					c0.3,0.5,0.6,0.8,0.8,1v0l0.1,0.1l0.4,0.3l0-0.1c0.4,0.2,0.9,0.3,1.3,0.3c0.6,0,1.2-0.1,1.8-0.4l0,0.1l0.5-0.3l0.1-0.1
					c0.1-0.1,0.2-0.1,0.3-0.2c0.3-0.2,0.5-0.3,0.7-0.4c0,0,0,0,0.1,0c1,2.5,2.5,2.9,3.8,3h0.1c1.4,0,2.4-1,2.8-2.9
					C97.8,61.8,97.6,60.8,97,60L97,60z M95.1,62.9c-0.8-0.1-1.5-0.3-2.1-1c0.9-0.2,1.4-0.2,1.6-0.2c1,0.1,1.4,0.7,1.6,1
					C96,62.8,95.6,62.9,95.1,62.9L95.1,62.9z"/>
				<path class="st16" d="M76.4,71.7l-0.2-0.8L74.8,74l0,0l0.1,0.1c0.1,0.2,0.2,0.4,0.2,0.6c0,0.1,0.1,0.3,0.1,0.4
					c0.1,1.4,0.2,2.7,0.4,4.3c0,0.3,0.1,1,0.2,1.9l1.7,0.2c-0.2-2-0.2-3.8-0.3-4.5c0.1,0.1,0.2,0.2,0.3,0.4l0.1,0.1
					c0.1,0.1,0.2,0.2,0.3,0.2c0.1,0,0.1,0,0.2,0C78.5,77.4,77.2,73.8,76.4,71.7L76.4,71.7z M78,88.4c-0.2-2.2-0.5-7.1-0.8-10.8
					c-0.4,0-1,0.1-1.7,0c0.3,3.3,0.7,8.7,0.9,11.9L78,89C78,88.8,78,88.6,78,88.4L78,88.4z M76.6,91.8l0,0.5c0,1.1,0.1,1.2,0.3,1.2
					c0,0,0,0,0.1,0c0.2,0,0.3-0.2,0.4-0.4l0,0c0.2-0.5,0.4-1.2,0.5-2.1c0,0,0-0.1,0-0.1c-0.4,0.2-0.8,0.4-1.3,0.5
					C76.6,91.6,76.6,91.7,76.6,91.8L76.6,91.8z M76.9,93L76.9,93L76.9,93L76.9,93C76.8,93,76.9,93,76.9,93z"/>
			</g>
			<path class="st16" d="M82.8,56c-0.3-0.2-0.5-0.4-0.8-0.6c-0.6-0.4-1.2-0.8-1.8-1.2c-0.2-0.1-0.2-0.2-0.1-0.4
				c0.3-0.7,0.7-1.4,1-2.1c0-0.1,0.1-0.1,0.2-0.2c1,0.5,1.9,1.2,2.8,1.9C83.9,54.4,83.4,55.2,82.8,56L82.8,56z"/>
			<path class="st16" d="M74.6,38.1c-0.2,0.8-0.9,2.2-1.4,2.6c-0.8-0.6-1.7-1.2-2.6-1.8c-0.4,0.7-0.6,1.4-1.1,2
				c-0.9-0.6-1.9-1.3-2.8-1.9c0.2-0.5,0.4-1,0.7-1.4c0.1-0.3,0.3-0.5,0.4-0.8c0.2-0.3,0.3-0.4,0.6-0.2c0.7,0.4,1.3,0.9,2,1.3
				c0.1,0.1,0.2,0.2,0.4,0.3c0.2-0.3,0.3-0.6,0.4-0.9c0.1-0.3,0.3-0.6,0.4-0.9c0.1-0.2,0.2-0.2,0.4-0.1C73,36.8,73.9,37.3,74.6,38.1
				L74.6,38.1z"/>
			<path class="st16" d="M88.8,73.2c-0.2,0.8-0.9,2.2-1.4,2.6c-0.8-0.6-1.7-1.2-2.6-1.8c-0.4,0.7-0.6,1.4-1.1,2
				c-0.9-0.6-1.9-1.3-2.8-1.9c0.2-0.5,0.4-1,0.7-1.4c0.1-0.3,0.3-0.5,0.4-0.8c0.2-0.3,0.3-0.4,0.6-0.2c0.7,0.4,1.3,0.9,2,1.3
				c0.1,0.1,0.2,0.2,0.4,0.3c0.2-0.3,0.3-0.6,0.4-0.9c0.1-0.3,0.3-0.6,0.4-0.9c0.1-0.2,0.2-0.2,0.4-0.1C87.1,71.9,88,72.4,88.8,73.2
				L88.8,73.2z"/>
			<path class="st16" d="M53.6,68.5c-0.2,0.8-0.9,2.2-1.4,2.6c-0.8-0.6-1.7-1.2-2.6-1.8c-0.4,0.7-0.6,1.4-1.1,2
				c-0.9-0.6-1.9-1.3-2.8-1.9c0.2-0.5,0.4-1,0.7-1.4c0.1-0.3,0.3-0.5,0.4-0.8c0.2-0.3,0.3-0.4,0.6-0.2c0.7,0.4,1.3,0.9,2,1.3
				c0.1,0.1,0.2,0.2,0.4,0.3c0.2-0.3,0.3-0.6,0.4-0.9c0.1-0.3,0.3-0.6,0.4-0.9c0.1-0.2,0.2-0.2,0.4-0.1
				C51.9,67.3,52.8,67.8,53.6,68.5L53.6,68.5z"/>
			<path class="st16" d="M68.8,91c-0.8-0.2-2-0.8-2.3-1.2c0.5-0.8,1.1-1.5,1.6-2.3c-0.6-0.3-1.2-0.6-1.8-1c0.6-0.9,1.2-1.7,1.7-2.5
				c0.4,0.2,0.9,0.4,1.3,0.6c0.2,0.1,0.5,0.2,0.7,0.4c0.3,0.2,0.3,0.2,0.2,0.5c-0.4,0.6-0.8,1.2-1.2,1.8c-0.1,0.1-0.2,0.2-0.3,0.4
				c0.3,0.1,0.5,0.3,0.8,0.4c0.3,0.1,0.5,0.3,0.8,0.4c0.2,0.1,0.2,0.2,0.1,0.4C70,89.5,69.5,90.3,68.8,91L68.8,91z"/>
			<path class="st16" d="M64.2,42.7c-0.2,0.8-0.9,2.2-1.4,2.6c-0.8-0.6-1.7-1.2-2.6-1.8c-0.4,0.7-0.6,1.4-1.1,2
				c-0.9-0.6-1.9-1.3-2.8-1.9c0.2-0.5,0.4-1,0.7-1.4c0.1-0.3,0.3-0.5,0.4-0.8c0.2-0.3,0.3-0.4,0.6-0.2c0.7,0.4,1.3,0.9,2,1.3
				c0.1,0.1,0.2,0.2,0.4,0.3c0.2-0.3,0.3-0.6,0.4-0.9c0.1-0.3,0.3-0.6,0.4-0.9c0.1-0.2,0.2-0.2,0.4-0.1C62.5,41.4,63.4,42,64.2,42.7
				L64.2,42.7z"/>
			<path class="st16" d="M84.6,118.1c-0.4,2.3-1.1,3.5-2.1,3.5c-1,0-1.5-0.9-1.5-2.6c0-2.1,0.6-4.3,1.8-6.6c0.3-0.6,0.5-0.8,0.6-0.8
				c0,0.1-0.1,0.4-0.3,0.9c-0.8,2.4-1.2,4.1-1.2,5c0,1.3,0.3,2,1,2c0.4,0,0.9-0.5,1.4-1.5c0.1-0.1,0.2-0.2,0.2-0.2
				c0.1-0.1,0.1,0,0.1,0l0,0C84.7,117.9,84.7,118,84.6,118.1L84.6,118.1z"/>
			<path class="st16" d="M107.7,111.4c-0.3,2-0.9,2.9-1.7,2.9c-0.8,0-1.3-0.8-1.3-2.2c0-1.7,0.5-3.5,1.5-5.5
				c0.3-0.5,0.4-0.7,0.5-0.7c0,0.1-0.1,0.3-0.2,0.8c-0.7,2-1,3.4-1,4.2c0,1.1,0.3,1.7,0.8,1.7c0.3,0,0.8-0.4,1.2-1.3
				c0.1-0.1,0.1-0.1,0.1-0.1c0.1-0.1,0.1,0,0.1,0l0,0C107.8,111.3,107.8,111.3,107.7,111.4L107.7,111.4z"/>
			<path class="st16" d="M98.6,115.6c-0.3,2-0.9,2.9-1.7,2.9c-0.8,0-1.3-0.8-1.3-2.2c0-1.7,0.5-3.5,1.5-5.5c0.3-0.5,0.4-0.7,0.5-0.7
				c0,0.1-0.1,0.3-0.2,0.8c-0.7,2-1,3.4-1,4.2c0,1.1,0.3,1.7,0.8,1.7c0.3,0,0.8-0.4,1.2-1.3c0.1-0.1,0.1-0.1,0.1-0.1
				c0.1-0.1,0.1,0,0.1,0l0,0C98.7,115.4,98.7,115.5,98.6,115.6L98.6,115.6z"/>
			<path class="st16" d="M37.8,66c-0.2,1.4-0.6,2.1-1.2,2.1s-0.9-0.5-0.9-1.5c0-1.2,0.3-2.5,1-3.9c0.2-0.3,0.3-0.5,0.3-0.5
				c0,0,0,0.2-0.1,0.5c-0.5,1.4-0.7,2.4-0.7,3c0,0.8,0.2,1.2,0.6,1.2c0.2,0,0.5-0.3,0.8-0.9c0,0,0.1-0.1,0.1-0.1c0,0,0,0,0,0l0,0
				C37.9,65.9,37.9,66,37.8,66L37.8,66z"/>
			<path class="st16" d="M127.1,82.3c-0.3,1.6-0.8,2.4-1.5,2.4s-1-0.6-1-1.8c0-1.5,0.4-3,1.2-4.6c0.2-0.4,0.3-0.6,0.4-0.6
				c0,0.1-0.1,0.3-0.2,0.6c-0.6,1.7-0.8,2.8-0.8,3.5c0,0.9,0.2,1.4,0.7,1.4c0.3,0,0.6-0.3,1-1c0.1-0.1,0.1-0.1,0.1-0.1
				c0.1-0.1,0.1,0,0.1,0l0,0C127.2,82.2,127.2,82.2,127.1,82.3z"/>
			<path class="st16" d="M41.5,58.4c-0.3,1.9-0.9,2.9-1.7,2.9c-0.8,0-1.2-0.8-1.2-2.1c0-1.7,0.5-3.5,1.5-5.5
				c0.3-0.5,0.4-0.7,0.5-0.7c0,0.1-0.1,0.3-0.2,0.8c-0.7,2-1,3.4-1,4.2c0,1.1,0.3,1.7,0.8,1.7c0.3,0,0.8-0.4,1.2-1.2
				c0.1-0.1,0.1-0.1,0.1-0.1c0.1-0.1,0.1,0,0.1,0l0,0C41.5,58.3,41.5,58.3,41.5,58.4L41.5,58.4z"/>
			<path class="st16" d="M127.5,70.1c-0.5,2.7-1.2,4-2.4,4s-1.7-1.1-1.7-3c0-2.4,0.7-4.9,2-7.6c0.4-0.7,0.6-1,0.7-1
				c0,0.1-0.1,0.5-0.3,1.1c-1,2.8-1.3,4.7-1.3,5.7c0,1.5,0.4,2.3,1.2,2.3c0.5,0,1.1-0.6,1.6-1.7c0.1-0.1,0.2-0.2,0.2-0.2
				c0.1-0.1,0.1,0,0.1,0l0,0C127.6,69.9,127.6,70,127.5,70.1L127.5,70.1z"/>
			<path class="st16" d="M43.6,95.4c-0.3,2-0.9,2.9-1.7,2.9s-1.3-0.8-1.3-2.2c0-1.7,0.5-3.5,1.5-5.5c0.3-0.5,0.4-0.7,0.5-0.7
				c0,0.1-0.1,0.3-0.2,0.8c-0.7,2-1,3.4-1,4.2c0,1.1,0.3,1.7,0.8,1.7c0.3,0,0.8-0.4,1.2-1.3c0.1-0.1,0.1-0.1,0.1-0.1
				c0.1-0.1,0.1,0,0.1,0l0,0C43.7,95.3,43.7,95.3,43.6,95.4L43.6,95.4z"/>
			<path class="st16" d="M71.8,117.8c-0.3,1.7-0.8,2.5-1.5,2.5s-1.1-0.7-1.1-1.9c0-1.5,0.4-3.1,1.3-4.8c0.2-0.4,0.4-0.6,0.4-0.6
				c0,0.1-0.1,0.3-0.2,0.7c-0.6,1.7-0.8,2.9-0.8,3.6c0,1,0.2,1.4,0.7,1.4c0.3,0,0.7-0.4,1-1.1c0.1-0.1,0.1-0.1,0.1-0.1
				c0.1-0.1,0.1,0,0.1,0l0,0C71.8,117.7,71.8,117.8,71.8,117.8L71.8,117.8z"/>
			<path class="st16" d="M94.9,45.2c-0.2,1.2-0.5,1.8-1.1,1.8s-0.8-0.5-0.8-1.3c0-1.1,0.3-2.1,0.9-3.3c0.2-0.3,0.3-0.4,0.3-0.4
				c0,0,0,0.2-0.1,0.5c-0.4,1.2-0.6,2.1-0.6,2.5c0,0.7,0.2,1,0.5,1c0.2,0,0.5-0.3,0.7-0.8c0,0,0.1-0.1,0.1-0.1c0,0,0,0,0,0l0,0
				C94.9,45.1,94.9,45.2,94.9,45.2L94.9,45.2z"/>
			<path class="st16" d="M54.7,110.6c-0.2,1.2-0.5,1.8-1.1,1.8c-0.5,0-0.8-0.5-0.8-1.3c0-1,0.3-2.1,0.9-3.3c0.2-0.3,0.3-0.4,0.3-0.4
				c0,0,0,0.2-0.1,0.5c-0.4,1.2-0.6,2.1-0.6,2.5c0,0.7,0.2,1,0.5,1c0.2,0,0.5-0.3,0.7-0.8c0,0,0.1-0.1,0.1-0.1c0,0,0,0,0,0l0,0
				C54.7,110.6,54.7,110.6,54.7,110.6L54.7,110.6z"/>
			<path class="st16" d="M58.4,55.2c-0.3-0.6-0.8-1.1-1.5-1.5c-0.2-0.1-0.4-0.2-0.6-0.2c-0.2,0-0.3,0.1-0.5,0.2
				c-0.1,0.2-0.2,0.5-0.1,0.8c-0.2,0.3-0.2,0.6-0.2,0.9c0,0.4,0.3,0.7,0.9,0.8c-0.5,0.5-1.1,0.9-2,1.4c-0.7,0.4-1.5,0.9-2.2,1.3
				C52,59.1,52,59.2,52,59.2c0,0,0,0,0,0c0,0,0.2,0,0.3-0.1c1-0.4,1.6-0.6,1.7-0.6c0.5-0.2,1-0.5,1.6-1c0.5-0.4,0.9-0.8,1.2-1.2
				c0.7,0.1,1,0.1,1.1,0.1c0.1,0,0.2-0.1,0.4-0.4c0.1-0.3,0.2-0.5,0.2-0.7C58.5,55.3,58.4,55.2,58.4,55.2L58.4,55.2z M56.8,55.6
				c-0.6-0.1-0.8-0.2-0.8-0.4c0-0.1,0.1-0.2,0.2-0.3c0.1-0.1,0.3-0.2,0.3-0.2c0.2,0,0.3,0.1,0.3,0.3C56.8,55.2,56.8,55.4,56.8,55.6
				L56.8,55.6z M58,55.7c-0.6-0.1-0.9-0.1-0.9-0.1c0.1-0.2,0.1-0.5,0.1-0.8c0.4,0.2,0.7,0.4,0.8,0.8C58.1,55.7,58.1,55.7,58,55.7
				C58,55.8,58,55.8,58,55.7L58,55.7z"/>
			<path class="st16" d="M51.5,81c-0.3-0.7-0.9-1.3-1.7-1.7c-0.2-0.2-0.5-0.2-0.6-0.2c-0.2,0-0.4,0.1-0.5,0.2
				c-0.2,0.2-0.2,0.5-0.1,1c-0.2,0.3-0.3,0.7-0.3,1.1c0,0.5,0.3,0.8,1,0.9c-0.5,0.5-1.3,1.1-2.3,1.6c-0.8,0.5-1.7,1-2.5,1.5
				c-0.2,0.2-0.3,0.2-0.3,0.3c0,0,0,0,0,0c0,0,0.2,0,0.3-0.1c1.2-0.4,1.8-0.7,1.9-0.7c0.6-0.3,1.2-0.6,1.8-1.1
				c0.5-0.4,1-0.9,1.4-1.4c0.8,0.1,1.1,0.1,1.2,0.1c0.1,0,0.3-0.2,0.4-0.5c0.2-0.3,0.2-0.6,0.2-0.8C51.6,81,51.5,81,51.5,81L51.5,81
				z M49.6,81.4c-0.7-0.1-1-0.2-1-0.5c0-0.1,0.1-0.2,0.2-0.4c0.2-0.2,0.3-0.2,0.4-0.2c0.2,0,0.3,0.1,0.3,0.4
				C49.7,80.9,49.7,81.2,49.6,81.4L49.6,81.4z M51,81.6c-0.7-0.1-1-0.1-1.1-0.2c0.1-0.2,0.2-0.5,0.2-1c0.4,0.2,0.8,0.5,1,0.9
				C51.1,81.5,51.1,81.5,51,81.6C51.1,81.6,51.1,81.6,51,81.6L51,81.6z"/>
			<g id="kaleam-tashkeel-maad-tashkeel-1">
				<path class="st16" d="M93.2,107.3c-0.8-1.3-1.4-1.5-1.9-1.2c-1.2,1-1.3,6.4-2,8.6l0.4-0.3c0.8-2.2,0.6-6.1,1.5-6.8
					c0.3-0.3,0.9-0.1,1.6,0.7L93.2,107.3z"/>
				<path class="st16" d="M89.2,114.7c-0.7-3.2-2-6.2-4-6.7c-0.1,0-0.1,0.1-0.2,0.2l0.6-1c0-0.1,0.1-0.1,0.1-0.1
					c2.8,0.3,3.9,5.3,3.9,7.4L89.2,114.7L89.2,114.7z"/>
				<path class="st16" d="M85,108.1c-0.2,0.4,0.1,1.3,1.6,1.6l0.8-1.1c-1.5-0.3-2.1-1.1-1.9-1.5L85,108.1z"/>
			</g>
			<g id="kaleam-tashkeel-jazem-tashkeel">
				<path class="st16" d="M53.1,84.2c1.9-0.2,4.3,0,4.9,0.6l-0.8,1.7c-0.8-0.1-3.3-0.3-5.3-0.2L53.1,84.2z"/>
				<path class="st16" d="M58,84.8c-0.6,1.5-2.1,2.5-4,3.2c-0.4,0.1-0.7,0.2-1,0.3l-0.2,0.1c-0.4,0.1,1,0,1.4,0
					c1.9-0.2,2.3-0.5,3-1.9L58,84.8L58,84.8z"/>
				<path class="st16" d="M53,88.3c-0.1,0-0.1,0-0.2,0.1l0,0c0,0,0,0,0,0L53,88.3L53,88.3z"/>
			</g>
			<path class="st16" d="M61.7,70.7c0,0.4-0.1,0.8-0.3,1.3c0,0,0,0.1-0.1,0.1c-0.3,0.5-0.5,0.7-0.9,0.8h0c-0.1,0-0.1,0-0.2,0
				c-0.4-0.1-0.7-0.3-0.9-0.7c-0.1-0.2-0.1-0.3-0.2-0.5c-0.3,1-0.8,1.6-1.6,1.6c-0.3,0-0.5-0.2-0.7-0.4c-0.2-0.3-0.3-0.8-0.3-1.3
				v-1.3c0-0.1-0.1-0.2-0.2-0.2c-0.2-0.1-0.2-0.2-0.2-0.3c0-0.3,0.1-0.6,0.3-0.9c0.2-0.2,0.4-0.3,0.5-0.3c0.1,0,0.2,0.3,0.2,0.8
				c0,0.3-0.1,0.5-0.1,0.8c-0.1,0.2-0.1,0.3-0.1,0.5c0,0.3,0.1,0.6,0.2,0.9c0.2,0.3,0.3,0.5,0.6,0.5c0.3,0,0.6-0.2,0.8-0.4
				c0.2-0.3,0.4-0.5,0.4-0.9c0-0.2-0.1-0.5-0.2-1c-0.1-0.5-0.2-0.8-0.2-0.9c0-0.1,0.1-0.3,0.2-0.5c0.1-0.2,0.2-0.3,0.2-0.3
				c0.1,0,0.2,0.3,0.3,0.9c0.1,0.3,0.1,0.6,0.2,0.8c0.1,0.2,0.1,0.4,0.1,0.6c0,0,0,0,0,0.1c0,0.8,0.3,1.2,0.9,1.2c0,0,0.1,0,0.1,0
				c0,0,0.1,0,0.1,0c0,0,0.1,0,0.1,0c0.2-0.1,0.2-0.2,0.3-0.4c-0.6-1-0.9-1.8-0.9-2.4c0-0.3,0.1-0.6,0.3-0.9
				c0.1-0.2,0.2-0.2,0.2-0.2c0,0,0.1,0.1,0.1,0.3c0.1,0.3,0.1,0.5,0.2,0.7c0,0.1,0.2,0.4,0.4,1.1C61.6,70.2,61.7,70.5,61.7,70.7
				L61.7,70.7z"/>
			<path class="st16" d="M66,71.5c-0.3-0.2-0.5-0.4-0.8-0.6c-0.6-0.4-1.2-0.8-1.8-1.2c-0.2-0.1-0.2-0.2-0.1-0.4
				c0.3-0.7,0.7-1.4,1-2.1c0-0.1,0.1-0.1,0.2-0.2c1,0.5,1.9,1.2,2.8,1.9C67.1,69.8,66.6,70.6,66,71.5L66,71.5z"/>
			<path class="st16" d="M76.5,111.6c-0.3-0.2-0.5-0.4-0.8-0.6c-0.6-0.4-1.2-0.8-1.8-1.2c-0.2-0.1-0.2-0.2-0.1-0.4
				c0.3-0.7,0.7-1.4,1-2.1c0-0.1,0.1-0.1,0.2-0.2c1,0.5,1.9,1.2,2.8,1.9C77.6,109.9,77.1,110.7,76.5,111.6L76.5,111.6z"/>
			<path class="st16" d="M85.4,38.5c0.2-0.6,0.3-1,0.3-1.4c0-0.1,0-0.1,0-0.2c0-0.5-0.1-0.8-0.4-0.9c-0.4-0.1-0.8,0-1.3,0.5
				c-0.6,0.5-0.8,1-0.8,1.5c0,0.5,0.4,0.9,1.2,1.4c-0.4,0.4-0.9,0.8-1.5,1.3c-0.4,0.3-0.8,0.6-1.3,0.8c-1.1,0.7-2.1,1.3-3.2,1.9
				c-0.2,0.2-0.3,0.3-0.3,0.3c0,0,0,0,0.1,0c0,0,0.2,0,0.4-0.1c1.4-0.5,2.2-0.8,2.4-0.9c0.7-0.3,1.4-0.8,2.3-1.4c0,0,0,0,0,0
				c0.7-0.5,1.2-1.1,1.7-1.7c0.4,0.2,0.7,0.4,0.8,0.6c0.4-0.6,0.6-0.9,0.6-1.1C86.1,38.9,85.9,38.8,85.4,38.5L85.4,38.5z M84.1,37.3
				c0-0.1,0.1-0.2,0.2-0.2c0.2-0.1,0.3-0.1,0.4-0.1c0.1,0,0.2,0.1,0.3,0.2c0,0.1,0.1,0.2,0.1,0.3c0,0.2,0,0.5,0,0.7
				C84.4,37.7,84.1,37.5,84.1,37.3L84.1,37.3z"/>
			<path class="st16" d="M58.3,37.1c0.2-0.5,0.2-0.9,0.3-1.3c0,0,0-0.1,0-0.1c0-0.5-0.1-0.8-0.4-0.9c-0.3-0.1-0.7,0-1.2,0.5
				c-0.5,0.4-0.7,0.9-0.7,1.4c0,0.4,0.4,0.9,1.1,1.2c-0.3,0.4-0.8,0.8-1.4,1.2c-0.4,0.3-0.8,0.5-1.2,0.8c-1,0.6-1.9,1.2-2.9,1.7
				c-0.2,0.2-0.3,0.3-0.3,0.3c0,0,0,0,0,0c0,0,0.2,0,0.4-0.1c1.3-0.5,2-0.8,2.1-0.8c0.6-0.3,1.3-0.7,2.1-1.2c0,0,0,0,0,0
				c0.6-0.5,1.1-1,1.5-1.6c0.4,0.2,0.6,0.4,0.7,0.6c0.3-0.5,0.5-0.9,0.5-1C58.9,37.5,58.6,37.3,58.3,37.1L58.3,37.1z M57.1,36
				c0-0.1,0.1-0.2,0.2-0.2c0.2-0.1,0.3-0.1,0.3-0.1c0.1,0,0.2,0.1,0.2,0.2c0,0.1,0.1,0.1,0.1,0.2c0,0.2,0,0.4,0,0.6
				C57.4,36.4,57.1,36.2,57.1,36L57.1,36z"/>
			<path class="st16" d="M44.5,65.8c0.2-0.6,0.3-1.1,0.3-1.5c0-0.1,0-0.1,0-0.2c0-0.5-0.1-0.9-0.4-1c-0.4-0.1-0.8,0-1.4,0.5
				c-0.6,0.5-0.8,1-0.8,1.6c0,0.5,0.4,1,1.3,1.4c-0.4,0.4-0.9,0.9-1.6,1.3c-0.4,0.3-0.9,0.6-1.4,0.9c-1.1,0.7-2.2,1.3-3.4,2
				c-0.2,0.2-0.3,0.3-0.3,0.3c0,0,0,0,0.1,0c0,0,0.2,0,0.4-0.1c1.5-0.5,2.3-0.9,2.5-0.9c0.7-0.3,1.5-0.8,2.4-1.4c0,0,0,0,0,0
				c0.7-0.5,1.3-1.2,1.8-1.8c0.4,0.2,0.7,0.4,0.8,0.6c0.4-0.6,0.6-1,0.6-1.2C45.2,66.3,45,66.1,44.5,65.8L44.5,65.8z M43.2,64.5
				c0-0.1,0.1-0.2,0.2-0.3c0.2-0.1,0.3-0.1,0.4-0.1c0.1,0,0.2,0.1,0.3,0.2c0,0.1,0.1,0.2,0.1,0.3c0,0.2,0,0.5,0,0.7
				C43.5,65,43.2,64.8,43.2,64.5z"/>
			<g id="kaleam-tashkeel-fathaa-tashkeel-1">
				<path class="st16" d="M72.6,29.4c-3.1,1.1-5.8,2.1-8.5,3.1c-1.6,0.6-2.2,1.1-2.3,2.1c0,0.8,0.2,1.7,1.9,2.6l0.2-1.1
					c-1.6-0.9-1.5-1.3-1.5-1.4c0.1-0.4,0.7-0.6,1.6-1c2.7-1,5.4-2,8.5-3.1L72.6,29.4L72.6,29.4z"/>
			</g>
			<g id="kaleam-tashkeel-fathaa-tashkeel-1-2">
				<path class="st16" d="M85.5,29l-0.2,1.1c-3.1,1.1-9.5,3.3-12.2,4.3c-0.1,0-0.2,0.1-0.2,0.1l0.2-1.1c0.1,0,0.1-0.1,0.2-0.1
					C76,32.3,82.4,30.1,85.5,29L85.5,29z"/>
			</g>
			<path class="st16" d="M70.9,75L70.9,75c0,0.9-0.1,2-0.6,3.1c-0.3,0.7-0.8,1.6-1.6,2.1c-0.4,0.2-0.7,0.4-1,0.4
				c-1.2,0.2-2.2-0.2-3.1-0.9c-0.5-0.5-0.8-1.1-1-1.9l-0.2-0.9l-0.2,0.3c-0.1,0.1-0.1,0.2-0.2,0.2c-0.1,0.1-0.1,0.1-0.2,0.2l0,0.1
				c-0.2,0.3-0.4,0.6-0.7,0.8c-1.3,1.4-2.6,2.2-3.9,2.5c-0.9,0.2-1.8,0.1-2.6,0.1l0,0c-0.5,0-1-0.1-1.5-0.3
				c-0.8-0.3-1.3-0.7-1.7-1.3c-0.4-0.5-0.7-1-1-1.5l-0.1-0.1c-0.2-0.3-0.4-0.6-0.6-0.9c-0.2-0.3-0.4-0.6-0.7-0.9
				c-0.4-0.4-0.8-0.6-1.4-0.5c-1.1,0.2-1.8,0.9-2.4,1.6c-0.9,1-1.6,2.1-2.1,3.4c-0.5,1.3-1.1,2.6-1.8,4c-0.2,0.6-0.6,1.1-1.1,1.6
				c-0.5,0.5-1,0.7-1.6,0.7c-0.6,0-1.2-0.3-1.8-0.9c-0.5-0.5-0.9-1.2-1.3-2.2c-0.5-1.2-0.8-2.3-0.9-3.4c-0.1-1.2-0.2-2.3-0.1-3.3
				l0-0.2c0.1-0.8,0.2-1.5,0.3-2.2c0.1-0.4,0.2-0.8,0.3-1.2c0-0.1,0.1-0.2,0.1-0.3c0,0,0-0.1,0-0.1c0,0.1,0,0.2,0,0.4l0,0
				c-0.3,1.8-0.3,3.6-0.2,5.6c0.1,1,0.2,2.2,0.7,3.5c0.3,0.6,0.6,1.1,1,1.5c0.9,0.7,2.4,0.8,3.3-0.2c0.5-0.5,0.9-1.2,1.3-2
				c0.2-0.5,0.5-1.1,0.7-1.6c0.4-0.8,0.8-1.7,1.2-2.5c0.6-1.4,1.5-2.6,2.5-3.6c0.5-0.5,1-1,1.8-1.3c0.9-0.4,1.6-0.2,2.1,0.5
				c0.4,0.5,0.7,1,1,1.5l0.1,0.1c0.1,0.1,0.1,0.2,0.1,0.2c0.1,0.1,0.1,0.2,0.1,0.2c0.4,0.6,0.8,1.1,1.3,1.6c0.7,0.6,1.5,1,2.5,1.1
				c1.3,0.1,2.4,0,3.5-0.3c1.4-0.4,2.5-1.1,3.5-2.3c0.4-0.4,0.8-0.9,1.2-1.3l0.1-0.1c0.1-0.1,0.2-0.2,0.3-0.3c0-0.1,0.1-0.1,0.2-0.1
				c0,0.1,0,0.2,0,0.3l0,0.1c0,0.1,0,0.3-0.1,0.4l0,0.1c0,0.2-0.1,0.5-0.1,0.8c-0.1,1.1,0.6,1.9,1.8,2.2c0.7,0.2,1.5,0.1,2.5-0.1
				c0.4-0.1,0.8-0.3,1.1-0.6c0.2-0.2,0.3-0.5,0.2-0.8l-0.1-0.3c-0.1-0.3-0.3-0.6-0.5-0.9c-0.3-0.5-0.4-1-0.2-1.6
				c0.1-0.3,0.2-0.5,0.2-0.8l0-0.1c0.1-0.2,0.1-0.5,0.2-0.7c0-0.1,0.1-0.2,0.1-0.3l0,0c0.1,0.1,0.1,0.1,0.2,0.2
				C70.6,72.7,70.9,73.9,70.9,75L70.9,75z"/>
			<g id="kaleam-tashkeel-naskh-dagger-alef">
				<path class="st16" d="M49.5,87.1c1.3,1.2,2.6,3,3.2,6c0.8,3.8-0.5,7.4-0.4,5.3l0-0.3c0-0.9-0.1-1.9-0.2-2.7
					c-0.4-2.2-1.9-4.3-3.2-5.5L49.5,87.1L49.5,87.1z"/>
			</g>
			<path class="st16" d="M86.9,47.8c-0.2,1.2-0.5,1.8-1.1,1.8s-0.8-0.5-0.8-1.3c0-1,0.3-2.1,0.9-3.3c0.2-0.3,0.3-0.4,0.3-0.4
				c0,0,0,0.2-0.1,0.5c-0.4,1.2-0.6,2.1-0.6,2.5c0,0.7,0.2,1,0.5,1c0.2,0,0.5-0.3,0.7-0.8c0,0,0.1-0.1,0.1-0.1c0,0,0,0,0,0l0,0
				C87,47.7,87,47.7,86.9,47.8L86.9,47.8z"/>
		</g>
		<g id="kaleam-tashkeel-kaaf-tashkeel">
			
				<linearGradient id="SVGID_00000140697853685108362200000004414522855918321049_" gradientUnits="userSpaceOnUse" x1="63.3476" y1="269.085" x2="96.5332" y2="235.8994" gradientTransform="matrix(1 0 0 -1 0 326.1102)">
				<stop  offset="0" style="stop-color:#E3E3BE"/>
				<stop  offset="0.21" style="stop-color:#F0F0DC"/>
				<stop  offset="0.43" style="stop-color:#FBFBF5"/>
				<stop  offset="0.56" style="stop-color:#FFFFFF"/>
				<stop  offset="1" style="stop-color:#E3E3BE"/>
			</linearGradient>
			<path style="fill:url(#SVGID_00000140697853685108362200000004414522855918321049_);" d="M96,89.6C96,89.5,96,89.5,96,89.6
				l-0.1,0.1c0,0,0,0,0,0L96,89.6L96,89.6z"/>
			<path class="st16" d="M96,89.5c0.1-0.2,0.2-0.4,0.1-0.5c-0.1-0.2-0.4-0.3-0.7-0.3c-0.3,0-1.4,0-1.9,0.5l-0.2,0.3
				c0.4-0.4,1.4-0.5,1.9-0.4c0.3,0,0.6,0.1,0.7,0.3c0.1,0.2,0,0.4,0.1,0.3L96,89.5L96,89.5z"/>
			<path class="st16" d="M93.4,89.2c0,0.4,1.1,0.7,1.8,1.1c0.9,0.4,1.9,0.9,1.2,1.6c-0.5,0.6-0.5,0.3-2.2-0.4
				c-0.9-0.5-1.8-0.7-2.1-1.3C92,90,91.9,89.7,92,89.4l0-0.1c0.1-0.3-0.1,0.1,0.3,0.6c0.5,0.6,1.6,1,2.3,1.4
				c1.3,0.6,1.4,0.7,1.5,0.7c0.2-0.6-0.7-0.9-1.4-1.2c-0.6-0.3-2.1-0.7-1.7-1.1L93.4,89.2L93.4,89.2z"/>
		</g>
		<path class="st16" d="M81.3,46.1c0,0-0.1,0-0.2,0.1c-0.4,0.2-0.7,0.4-1,0.8c-0.3,0.4-0.7,0.8-1,1.2c-0.2,0.2-0.3,0.3-0.4,0.5
			c-0.2,0.2-0.3,0.3-0.4,0.5c-1.2,1.4-2.8,2.1-4.5,2.1h-0.1c-0.7,0-1.3,0-2-0.1c-0.2,0-0.5-0.1-0.7-0.1c-0.1,0-0.1,0-0.2,0
			c-0.1,0-0.1,0-0.2,0l-0.2,0l0.1-0.2c0,0,0-0.1,0.1-0.1l0-0.1c0-0.1,0.1-0.2,0.1-0.3c0.4-0.6,0.7-1.3,0.9-2.2
			c0.3-1.5,0.3-2.7,0-3.8c-0.2-0.7-0.4-1.2-0.7-1.6c-0.3-0.5-1-0.8-1.7-0.4c-0.2,0.1-0.4,0.2-0.6,0.4c-0.8,0.7-1.5,1.6-2.1,2.7
			c-0.6,1.1-0.9,2.1-0.9,3.2c0,1,0.2,1.7,0.5,2.5l0.1,0.2L66,51.3c-1,0.5-2.1,0.6-3.3,0.5c-1.3-0.1-2.3-0.7-3.2-1.8
			c-0.2-0.3-0.5-0.7-0.7-1c-0.1-0.2-0.2-0.4-0.4-0.5c-0.1-0.1-0.1-0.2-0.2-0.3l-0.1-0.1c-0.2-0.3-0.4-0.6-0.6-0.8
			c-0.5-0.7-1.2-0.8-2-0.5C55,47.1,54.4,47.6,54,48c-1,1-1.8,2.2-2.4,3.5c-0.3,0.7-0.5,1.1-0.8,1.7l0,1.3l-2.4,3.8l-0.1-0.8l0,0
			c-0.9,1-2.2,0.7-3,0.1c-0.4-0.4-0.7-0.8-1-1.5c-0.5-1.2-0.6-2.5-0.7-3.7c-0.1-1.6,0-3.1,0.2-4.5l0-0.1c0-0.2,0.1-0.4,0-0.7
			c0,0,0,0,0,0l-0.1,0.3c-0.1,0.3-0.2,0.6-0.3,0.9c-0.3,1.4-0.4,2.8-0.4,4.1c0,1.7,0.3,3.4,1.1,5.1c0.3,0.7,0.7,1.3,1.1,1.8
			c0.5,0.5,1.1,0.8,1.7,0.8h0c0.5,0,1-0.2,1.5-0.7c0.2-0.2,0.3-0.3,0.4-0.5c0.3-0.4,0.5-0.7,0.7-1.1c0.3-0.6,0.5-1.2,0.8-1.8
			c0.2-0.6,0.5-1.1,0.7-1.7c0.6-1.6,1.3-2.7,2.2-3.6c0.6-0.6,1.1-1.1,1.7-1.3c1.2-0.5,1.7-0.2,2.3,0.6c0.1,0.1,0.2,0.2,0.2,0.4
			c0.1,0.2,0.3,0.4,0.4,0.7c0.2,0.4,0.4,0.8,0.7,1.1c0.7,1.2,1.6,1.9,2.7,2.2c0.9,0.2,1.9,0.3,3.1,0.1c1.1-0.2,2-0.7,2.8-1.3
			c0.3-0.2,0.5-0.2,0.9-0.1c0.6,0.3,1.2,0.5,1.7,0.6c0.9,0.2,1.8,0.3,3,0.4l0.2,0c0.5,0,1,0,1.4-0.1c1.2-0.3,2.1-1.1,2.7-1.7
			c0.7-0.7,1.4-1.6,2.3-2.6c0.3-0.3,0.6-0.5,0.9-0.6c0.1,0,0.2-0.1,0.3-0.3c0.3-0.8,0.4-1.6,0.5-2.5C81.3,46.2,81.3,46.1,81.3,46.1
			L81.3,46.1z M69,49.8c0,0-0.1,0-0.1,0.1c0,0,0,0-0.1,0c-0.2,0.2-0.4,0.3-0.6,0.3c-0.2,0-0.5-0.1-0.6-0.2c-0.6-0.4-1-0.8-1.3-1.3
			c-0.2-0.3-0.2-0.6,0-0.8c0.6-1.1,1.3-1.9,2.2-2.5c0.4-0.3,0.6-0.4,0.9-0.3c0.2,0.1,0.4,0.2,0.7,0.7c0.4,0.6,0.6,1.3,0.8,2.1
			c0,0.1,0,0.1,0,0.2c0,0.1,0,0.1,0,0.1l0,0l0,0.1c0,0,0,0,0,0.1c0,0.1-0.1,0.2-0.1,0.3C70.2,49.1,69.6,49.5,69,49.8L69,49.8z"/>
		<g id="kaleam-tashkeel-naskh-maad2">
			<path class="st16" d="M72.7,70.7c0-0.2,0.1-0.7,0-1.2c-0.5-1.5-1.2-2-1.6-2.4l-0.4,1.6c0.4,0.4,1,0.6,1.6,1.5
				c0.4,0.8,0.3,1.4,0.5,0.7L72.7,70.7L72.7,70.7z"/>
			<path class="st16" d="M71.1,67c3.4,2.1,8.2,1.4,10.3,0.6c1.6-0.6,3-1.6,2-0.6l-0.1,0.2c-0.6,0.6-1.3,1.2-2.5,1.7
				c-1.5,0.7-6.7,1.8-10.1-0.3L71.1,67L71.1,67z"/>
		</g>
	</g>
</g>
<g>
	<g>
		<path class="st18" d="M228.1,61.5v21.7h-10.9V64.4c-0.5-1-1.1-1.7-1.9-2.1c-0.8-0.4-2.1-0.6-3.7-0.6H210v27.5
			c-1.4,2.5-3.6,4.3-6.7,5.6c-3.1,1.3-6.4,2-10,2c-3.6,0-7.2-0.7-10.3-2.2c-3.2-1.4-5.4-3.5-6.6-6.1V66.6h10.9l0.1,19
			c0.5,0.8,1.3,1.5,2.4,2s2.3,0.7,3.6,0.7s2.4-0.2,3.5-0.6c1.1-0.4,1.8-1.1,2.4-1.9l-0.1-32.6h13.4c4.5,0,7.9,0.7,10.2,2
			C225,56.5,226.8,58.6,228.1,61.5L228.1,61.5z"/>
		<path class="st18" d="M254.6,75.3v7.4c-0.3,0.4-0.9,0.6-1.9,0.6h-4.8v6.2c-0.9,2.1-2.4,3.8-4.4,5.2c-2,1.4-4.6,2-7.8,2
			c-1.7,0-3.3-0.3-4.8-0.8v-7.7h1.5c1.1,0,2.1-0.2,2.9-0.6c0.8-0.4,1.4-1,1.7-1.7V53.2h10.9v21.5h4.8
			C253.7,74.7,254.3,74.9,254.6,75.3z"/>
		<path class="st18" d="M275.7,75.3v7.4c-0.3,0.4-0.9,0.6-1.9,0.6h-0.1c-1.7,0-3.2-0.2-4.3-0.7c-1.1-0.5-2.1-1.2-3.1-2.2
			c-2.3,1.9-5.2,2.9-8.6,2.9h-5.1c-1,0-1.6-0.2-1.9-0.6v-7.4c0.3-0.4,0.9-0.6,1.9-0.6h0.6c1.3,0,2.3-0.1,3-0.3
			c0.7-0.2,1.2-0.6,1.6-1.1V53.2h10.9v20.2c0.8,0.9,2.1,1.3,3.8,1.3h1.2C274.8,74.7,275.4,74.9,275.7,75.3L275.7,75.3z M257.7,93.2
			v-3.9c0.4-0.8,1.1-1.5,2-2.1c1-0.5,2.1-0.8,3.6-0.8s2.6,0.3,3.6,0.8c1,0.5,1.6,1.2,2,2.1v3.9c-0.4,0.8-1.1,1.5-2,2.1
			c-1,0.5-2.1,0.8-3.6,0.8s-2.6-0.3-3.6-0.8C258.8,94.8,258.1,94.1,257.7,93.2z"/>
		<path class="st18" d="M313.3,75.3v7.4c-0.3,0.4-0.9,0.6-1.9,0.6h-37.6c-1,0-1.6-0.2-1.9-0.6v-7.4c0.3-0.4,0.9-0.6,1.9-0.6h21.9v-9
			c-0.6-1.6-1.6-2.9-2.9-3.6c-1.3-0.8-3.1-1.1-5.3-1.1h-10.7v-7.2l15.1-14.9h8.5v6.6l-9.4,7c4.2,0.2,7.6,1.1,10.1,2.8
			c2.5,1.7,4.4,4.2,5.6,7.5v12h4.7C312.4,74.7,313,74.9,313.3,75.3L313.3,75.3z"/>
		<path class="st18" d="M327.6,38.8v44.4h-16.2c-1,0-1.6-0.2-1.9-0.6v-7.4c0.3-0.4,0.9-0.6,1.9-0.6h5.3V38.8L327.6,38.8L327.6,38.8z
			"/>
		<path class="st18" d="M345.9,38.8v44.4H335V38.8H345.9z"/>
		<path class="st18" d="M400.9,75.3v7.4c-0.3,0.4-0.9,0.6-1.9,0.6h-20c-3.2,0-5.9-0.6-8.3-1.9c-2.4-1.2-4.1-3-5.3-5.3V60
			c0.9-1.9,2.6-3.7,5.1-5.3s5.7-2.4,9.5-2.4c3.8,0,7,0.8,9.5,2.4c2.5,1.6,4.2,3.4,5.2,5.4v14.7h4.3C400,74.7,400.6,74.9,400.9,75.3
			L400.9,75.3z M369.1,46.7v-4c0.3-0.7,0.9-1.3,1.8-1.9c0.9-0.5,2-0.8,3.2-0.8s2.4,0.3,3.2,0.8c0.9,0.5,1.5,1.2,1.8,1.9v4
			c-0.3,0.7-0.9,1.3-1.8,1.9c-0.9,0.5-2,0.8-3.2,0.8s-2.3-0.3-3.2-0.8C370,48,369.4,47.4,369.1,46.7z M380.4,74.9h3.4V62.8
			c-0.3-0.6-0.8-1.1-1.4-1.5s-1.4-0.6-2.3-0.6c-0.8,0-1.6,0.2-2.3,0.6c-0.7,0.4-1.1,0.9-1.4,1.5v10.3
			C377.2,74.3,378.5,74.9,380.4,74.9L380.4,74.9z M381,46.7v-4c0.3-0.7,1-1.3,1.8-1.9c0.9-0.5,2-0.8,3.2-0.8s2.3,0.3,3.2,0.8
			s1.5,1.1,1.9,1.9v4c-0.3,0.7-0.9,1.3-1.8,1.9c-0.9,0.5-2,0.8-3.2,0.8c-1.3,0-2.3-0.3-3.2-0.8C382,48,381.4,47.4,381,46.7L381,46.7
			z"/>
		<path class="st18" d="M422.1,75.3v7.4c-0.3,0.4-0.9,0.6-1.9,0.6h-0.1c-1.7,0-3.2-0.2-4.3-0.7c-1.1-0.5-2.1-1.2-3.1-2.2
			c-2.3,1.9-5.2,2.9-8.6,2.9H399c-1,0-1.6-0.2-1.9-0.6v-7.4c0.3-0.4,0.9-0.6,1.9-0.6h0.6c1.3,0,2.3-0.1,3-0.3
			c0.7-0.2,1.2-0.6,1.6-1.1V53.2h10.9v20.2c0.8,0.9,2.1,1.3,3.8,1.3h1.2C421.1,74.7,421.8,74.9,422.1,75.3L422.1,75.3z M398.8,93.1
			v-4c0.3-0.8,0.9-1.4,1.8-1.9c0.9-0.5,2-0.8,3.2-0.8s2.4,0.3,3.2,0.8c0.9,0.5,1.5,1.2,1.8,1.9v4c-0.3,0.7-0.9,1.3-1.8,1.9
			c-0.9,0.5-2,0.8-3.2,0.8c-1.3,0-2.3-0.3-3.2-0.8C399.7,94.5,399.1,93.8,398.8,93.1z M410.7,93.1v-4c0.3-0.8,0.9-1.4,1.8-1.9
			c0.9-0.5,1.9-0.8,3.2-0.8c1.3,0,2.4,0.3,3.2,0.8c0.9,0.5,1.5,1.2,1.8,1.9v4c-0.4,0.8-1,1.4-1.9,1.9c-0.9,0.5-1.9,0.8-3.2,0.8
			s-2.3-0.3-3.2-0.8C411.6,94.5,411,93.8,410.7,93.1L410.7,93.1z"/>
		<path class="st18" d="M436.1,53.2v30h-16c-1,0-1.6-0.2-1.9-0.6v-7.4c0.3-0.4,0.9-0.6,1.9-0.6h5.1V53.2L436.1,53.2L436.1,53.2z
			 M425,46.6v-3.9c0.4-0.8,1.1-1.5,2-2.1c1-0.5,2.1-0.8,3.6-0.8c1.4,0,2.6,0.3,3.6,0.8c1,0.5,1.6,1.2,2,2.1v3.9
			c-0.4,0.8-1.1,1.5-2,2.1c-1,0.5-2.1,0.8-3.6,0.8c-1.4,0-2.6-0.3-3.6-0.8C426.1,48.2,425.4,47.5,425,46.6z"/>
		<path class="st18" d="M448,39.6c-0.7-0.4-1.3-0.7-1.7-0.9c-0.4-0.2-0.9-0.3-1.3-0.3c-0.6,0-1.1,0.2-1.6,0.6
			c-0.5,0.4-0.8,0.8-0.9,1.2h-2.8v-2.7c0.5-1,1.3-1.8,2.2-2.3c0.9-0.5,2-0.8,3.1-0.8c1,0,1.8,0.2,2.6,0.5s1.6,0.8,2.5,1.3
			c0.2,0.1,0.5,0.2,0.9,0.5c0.4,0.2,0.8,0.4,1.1,0.5c0.3,0.1,0.7,0.2,1,0.2c0.6,0,1.1-0.2,1.6-0.6c0.4-0.4,0.7-0.8,0.9-1.2h2.8v2.8
			c-0.5,1-1.2,1.8-2.2,2.3c-0.9,0.5-2,0.8-3.1,0.8c-0.9,0-1.7-0.1-2.4-0.4C449.8,40.6,449,40.2,448,39.6L448,39.6z M454.4,44v39.2
			h-10.9V44H454.4z"/>
		<path class="st18" d="M480.9,75.3v7.4c-0.3,0.4-0.9,0.6-1.9,0.6h-4.8v6.2c-0.9,2.1-2.4,3.8-4.4,5.2c-2,1.4-4.6,2-7.8,2
			c-1.7,0-3.3-0.3-4.8-0.8v-7.7h1.5c1.1,0,2.1-0.2,2.9-0.6c0.8-0.4,1.4-1,1.7-1.7V53.2h10.9v21.5h4.8
			C479.9,74.7,480.6,74.9,480.9,75.3L480.9,75.3z"/>
		<path class="st18" d="M518,75.3v7.4c-0.3,0.4-0.9,0.6-1.9,0.6h-38c-1,0-1.6-0.2-1.9-0.6v-7.4c0.3-0.4,0.9-0.6,1.9-0.6h4.4V60
			c1-2,2.7-3.8,5.2-5.4s5.6-2.4,9.5-2.4c3.9,0,7,0.8,9.5,2.4c2.5,1.6,4.2,3.4,5.1,5.4v14.7h4.4C517.1,74.7,517.7,74.9,518,75.3z
			 M486.2,46.7v-4c0.3-0.7,0.9-1.3,1.8-1.9c0.9-0.5,2-0.8,3.2-0.8s2.4,0.3,3.2,0.8c0.9,0.5,1.5,1.2,1.8,1.9v4
			c-0.3,0.7-0.9,1.3-1.8,1.9c-0.9,0.5-2,0.8-3.2,0.8c-1.3,0-2.3-0.3-3.2-0.8C487,48,486.4,47.4,486.2,46.7z M493.5,73.1
			c0.3,0.6,0.8,1.1,1.4,1.5c0.7,0.4,1.4,0.6,2.3,0.6c0.8,0,1.6-0.2,2.3-0.6c0.7-0.4,1.1-0.9,1.4-1.5V62.8c-0.3-0.6-0.8-1.1-1.4-1.5
			s-1.4-0.6-2.3-0.6c-0.8,0-1.6,0.2-2.3,0.6c-0.7,0.4-1.1,0.9-1.4,1.5V73.1z M498,46.7v-4c0.3-0.7,1-1.3,1.8-1.9
			c0.9-0.5,2-0.8,3.2-0.8s2.3,0.3,3.2,0.8s1.5,1.1,1.9,1.9v4c-0.3,0.7-0.9,1.3-1.8,1.9c-0.9,0.5-2,0.8-3.2,0.8
			c-1.3,0-2.3-0.3-3.2-0.8C499,48,498.4,47.4,498,46.7L498,46.7z"/>
		<path class="st18" d="M532.3,38.8v44.4h-16.2c-1,0-1.6-0.2-1.9-0.6v-7.4c0.3-0.4,0.9-0.6,1.9-0.6h5.3V38.8L532.3,38.8L532.3,38.8z
			"/>
		<path class="st18" d="M550.6,38.8v44.4h-10.9V38.8H550.6z"/>
		<path class="st18" d="M605.6,75.3v7.4c-0.3,0.4-0.9,0.6-1.9,0.6h-20c-3.2,0-5.9-0.6-8.3-1.9c-2.4-1.2-4.1-3-5.3-5.3V60
			c0.9-1.9,2.6-3.7,5.1-5.3s5.7-2.4,9.5-2.4s7,0.8,9.5,2.4c2.5,1.6,4.2,3.4,5.2,5.4v14.7h4.3C604.7,74.7,605.3,74.9,605.6,75.3
			L605.6,75.3z M573.9,46.7v-4c0.3-0.7,0.9-1.3,1.8-1.9c0.9-0.5,2-0.8,3.2-0.8s2.4,0.3,3.2,0.8c0.9,0.5,1.5,1.2,1.8,1.9v4
			c-0.3,0.7-0.9,1.3-1.8,1.9c-0.9,0.5-2,0.8-3.2,0.8c-1.3,0-2.3-0.3-3.2-0.8C574.7,48,574.1,47.4,573.9,46.7z M585.1,74.9h3.4V62.8
			c-0.3-0.6-0.8-1.1-1.4-1.5c-0.7-0.4-1.4-0.6-2.3-0.6c-0.8,0-1.6,0.2-2.3,0.6c-0.7,0.4-1.1,0.9-1.4,1.5v10.3
			C581.9,74.3,583.3,74.9,585.1,74.9L585.1,74.9z M585.7,46.7v-4c0.3-0.7,1-1.3,1.8-1.9c0.9-0.5,2-0.8,3.2-0.8s2.3,0.3,3.2,0.8
			s1.5,1.1,1.9,1.9v4c-0.3,0.7-0.9,1.3-1.8,1.9c-0.9,0.5-2,0.8-3.2,0.8c-1.3,0-2.3-0.3-3.2-0.8C586.7,48,586.1,47.4,585.7,46.7
			L585.7,46.7z"/>
		<path class="st18" d="M643.6,75.3v7.4c-0.3,0.4-0.9,0.6-1.9,0.6h-38c-1,0-1.6-0.2-1.9-0.6v-7.4c0.3-0.4,0.9-0.6,1.9-0.6h4.4V60
			c1-2,2.7-3.8,5.2-5.4s5.6-2.4,9.5-2.4s7,0.8,9.5,2.4c2.5,1.6,4.2,3.4,5.1,5.4v14.7h4.4C642.7,74.7,643.3,74.9,643.6,75.3z
			 M611.8,46.7v-4c0.3-0.7,0.9-1.3,1.8-1.9c0.9-0.5,2-0.8,3.2-0.8s2.4,0.3,3.2,0.8c0.9,0.5,1.5,1.2,1.8,1.9v4
			c-0.3,0.7-0.9,1.3-1.8,1.9c-0.9,0.5-2,0.8-3.2,0.8s-2.3-0.3-3.2-0.8C612.7,48,612.1,47.4,611.8,46.7z M619.1,73.1
			c0.3,0.6,0.8,1.1,1.4,1.5c0.7,0.4,1.4,0.6,2.3,0.6s1.6-0.2,2.3-0.6c0.7-0.4,1.1-0.9,1.4-1.5V62.8c-0.3-0.6-0.8-1.1-1.4-1.5
			c-0.7-0.4-1.4-0.6-2.3-0.6s-1.6,0.2-2.3,0.6c-0.7,0.4-1.1,0.9-1.4,1.5V73.1z M623.7,46.7v-4c0.3-0.7,1-1.3,1.8-1.9
			c0.9-0.5,2-0.8,3.2-0.8s2.3,0.3,3.2,0.8s1.5,1.1,1.9,1.9v4c-0.3,0.7-0.9,1.3-1.8,1.9c-0.9,0.5-2,0.8-3.2,0.8
			c-1.3,0-2.3-0.3-3.2-0.8C624.6,48,624,47.4,623.7,46.7L623.7,46.7z"/>
		<path class="st18" d="M657.7,53.2v30h-16c-1,0-1.6-0.2-1.9-0.6v-7.4c0.3-0.4,0.9-0.6,1.9-0.6h5.1V53.2L657.7,53.2L657.7,53.2z
			 M646.6,93.2v-3.9c0.4-0.8,1.1-1.5,2-2.1c1-0.5,2.1-0.8,3.6-0.8c1.4,0,2.6,0.3,3.6,0.8c1,0.5,1.6,1.2,2,2.1v3.9
			c-0.4,0.8-1.1,1.5-2,2.1c-1,0.5-2.1,0.8-3.6,0.8c-1.4,0-2.6-0.3-3.6-0.8C647.7,94.8,647,94.1,646.6,93.2z"/>
		<path class="st18" d="M665,38.8h10.9v35.9h5.1c1,0,1.6,0.2,1.9,0.6v7.4c-0.3,0.4-0.9,0.6-1.9,0.6h-16L665,38.8L665,38.8z"/>
		<path class="st18" d="M742.2,75.3v7.4c-0.3,0.4-1,0.6-1.9,0.6h-0.1c-3.1,0-5.6-0.9-7.3-2.7c-1.1,0.9-2.5,1.6-3.9,2
			c-1.5,0.4-3,0.7-4.5,0.7c-1.8,0-3.4-0.3-5-0.8c-1.5-0.5-2.9-1.3-4-2.4c-1.1,1.1-2.4,1.9-4,2.4c-1.6,0.5-3.3,0.8-5.1,0.8
			s-3.5-0.3-5.1-0.8c-1.6-0.5-2.9-1.3-4-2.3c-2.3,2.1-5.5,3.1-9.5,3.1H681c-1,0-1.6-0.2-1.9-0.6v-7.4c0.3-0.4,0.9-0.6,1.9-0.6h2.9
			c2.1,0,3.6-0.5,4.5-1.4V59h10.9v14.3c0.4,0.5,1,0.8,1.6,1.1c0.7,0.3,1.3,0.4,2.1,0.4c0.8,0,1.5-0.1,2.2-0.4
			c0.7-0.3,1.2-0.6,1.6-1.1V59h10.7v14.4c0.4,0.4,0.9,0.8,1.6,1c0.6,0.3,1.3,0.4,1.9,0.4c0.7,0,1.4-0.1,2-0.4
			c0.6-0.2,1.1-0.6,1.5-1.1V53.2h10.9v20.2c0.9,0.9,2.2,1.3,3.9,1.3h1.1C741.2,74.7,741.9,74.9,742.2,75.3L742.2,75.3z"/>
		<path class="st18" d="M779.9,75.3v7.4c-0.3,0.4-0.9,0.6-1.9,0.6h-7.1c-3.1,2.8-7,4.2-11.9,4.2s-8.8-1.4-11.8-4.2h-6.9
			c-1,0-1.6-0.2-1.9-0.6v-7.4c0.3-0.4,0.9-0.6,1.9-0.6h4.2V63.2c0.9-2,2.6-3.8,5.1-5.4c2.5-1.6,5.6-2.3,9.5-2.3
			c3.9,0,7.1,0.8,9.5,2.3c2.5,1.6,4.2,3.4,5.1,5.4v11.5h4.3C779,74.7,779.6,74.9,779.9,75.3L779.9,75.3z M762.7,66
			c-0.3-0.6-0.8-1.1-1.4-1.5c-0.7-0.4-1.4-0.6-2.3-0.6c-0.8,0-1.6,0.2-2.3,0.6c-0.7,0.4-1.1,0.9-1.4,1.5v10.9
			c0.3,0.6,0.8,1.1,1.4,1.5s1.4,0.6,2.3,0.6c0.8,0,1.6-0.2,2.3-0.6c0.7-0.4,1.1-0.9,1.4-1.5V66z"/>
		<path class="st18" d="M794.2,38.8v44.4H778c-1,0-1.6-0.2-1.9-0.6v-7.4c0.3-0.4,0.9-0.6,1.9-0.6h5.3V38.8L794.2,38.8L794.2,38.8z"
			/>
		<path class="st18" d="M812.5,38.8v44.4h-10.9V38.8H812.5z"/>
	</g>
	<g class="st19">
		<path class="st20" d="M266,137.3v-4.5h11.7v10.7c-1.1,1.1-2.8,2.1-4.9,2.9s-4.3,1.3-6.5,1.3c-2.8,0-5.3-0.6-7.3-1.8
			c-2.1-1.2-3.7-2.9-4.7-5.1c-1.1-2.2-1.6-4.6-1.6-7.2c0-2.8,0.6-5.3,1.8-7.5c1.2-2.2,2.9-3.8,5.1-5c1.7-0.9,3.9-1.3,6.4-1.3
			c3.3,0,5.9,0.7,7.8,2.1c1.9,1.4,3.1,3.3,3.6,5.8l-5.4,1c-0.4-1.3-1.1-2.4-2.1-3.1c-1-0.8-2.3-1.1-3.9-1.1c-2.4,0-4.3,0.8-5.6,2.3
			c-1.4,1.5-2.1,3.7-2.1,6.7c0,3.2,0.7,5.6,2.1,7.2c1.4,1.6,3.3,2.4,5.6,2.4c1.1,0,2.3-0.2,3.4-0.7c1.1-0.4,2.1-1,2.9-1.6v-3.4H266z
			"/>
		<path class="st20" d="M287.6,147.2h-5.1v-19.4h4.8v2.8c0.8-1.3,1.6-2.2,2.2-2.6c0.7-0.4,1.4-0.6,2.2-0.6c1.2,0,2.3,0.3,3.4,1
			l-1.6,4.5c-0.9-0.6-1.7-0.8-2.4-0.8c-0.7,0-1.3,0.2-1.8,0.6s-0.9,1.1-1.2,2.2c-0.3,1-0.4,3.2-0.4,6.5V147.2z"/>
		<path class="st20" d="M301.1,133.6l-4.7-0.8c0.5-1.9,1.4-3.3,2.7-4.2c1.3-0.9,3.2-1.4,5.7-1.4c2.3,0,4,0.3,5.1,0.8
			c1.1,0.5,1.9,1.2,2.4,2.1c0.5,0.8,0.7,2.4,0.7,4.6l-0.1,6c0,1.7,0.1,3,0.2,3.8c0.2,0.8,0.5,1.7,0.9,2.6H309
			c-0.1-0.3-0.3-0.8-0.5-1.5c-0.1-0.3-0.1-0.5-0.2-0.6c-0.9,0.9-1.8,1.5-2.8,1.9c-1,0.4-2.1,0.6-3.2,0.6c-2,0-3.6-0.5-4.7-1.6
			c-1.2-1.1-1.7-2.5-1.7-4.1c0-1.1,0.3-2.1,0.8-2.9c0.5-0.9,1.3-1.5,2.2-2c0.9-0.5,2.3-0.9,4.1-1.2c2.4-0.5,4.1-0.9,5-1.3V134
			c0-1-0.2-1.7-0.7-2.1c-0.5-0.4-1.4-0.6-2.8-0.6c-0.9,0-1.6,0.2-2.1,0.5C301.8,132.1,301.4,132.7,301.1,133.6z M308,137.8
			c-0.7,0.2-1.7,0.5-3.1,0.8c-1.4,0.3-2.4,0.6-2.8,0.9c-0.7,0.5-1,1.1-1,1.8c0,0.7,0.3,1.3,0.8,1.9c0.5,0.5,1.2,0.8,2.1,0.8
			c0.9,0,1.8-0.3,2.7-0.9c0.6-0.5,1-1,1.2-1.7c0.1-0.4,0.2-1.3,0.2-2.5V137.8z"/>
		<path class="st20" d="M335.8,147.2h-5.1v-9.9c0-2.1-0.1-3.5-0.3-4.1c-0.2-0.6-0.6-1.1-1.1-1.4c-0.5-0.3-1.1-0.5-1.8-0.5
			c-0.9,0-1.7,0.2-2.4,0.7c-0.7,0.5-1.2,1.1-1.5,1.9c-0.3,0.8-0.4,2.3-0.4,4.5v8.8h-5.1v-19.4h4.8v2.9c1.7-2.2,3.8-3.3,6.4-3.3
			c1.1,0,2.2,0.2,3.1,0.6c0.9,0.4,1.7,0.9,2.1,1.6c0.5,0.6,0.8,1.4,1,2.2c0.2,0.8,0.3,2,0.3,3.5V147.2z"/>
		<path class="st20" d="M358.8,147.2h-4.8v-2.9c-0.8,1.1-1.7,1.9-2.8,2.5c-1.1,0.5-2.2,0.8-3.3,0.8c-2.2,0-4.1-0.9-5.7-2.7
			c-1.6-1.8-2.4-4.3-2.4-7.5c0-3.3,0.8-5.8,2.3-7.5s3.5-2.6,5.9-2.6c2.2,0,4.1,0.9,5.6,2.7v-9.7h5.1V147.2z M345.1,137
			c0,2.1,0.3,3.6,0.9,4.5c0.8,1.3,2,2,3.5,2c1.2,0,2.2-0.5,3-1.5s1.2-2.5,1.2-4.5c0-2.2-0.4-3.8-1.2-4.8s-1.8-1.5-3.1-1.5
			c-1.2,0-2.2,0.5-3.1,1.5S345.1,135.1,345.1,137z"/>
		<path class="st20" d="M396,143.8c1.3,1,2.8,1.7,4.3,2.3l-2,3.8c-0.8-0.2-1.6-0.6-2.4-1c-0.2-0.1-1.4-0.9-3.6-2.4
			c-1.8,0.8-3.7,1.2-5.8,1.2c-4.1,0-7.4-1.2-9.7-3.6c-2.3-2.4-3.5-5.8-3.5-10.2c0-4.4,1.2-7.8,3.5-10.2c2.3-2.4,5.5-3.7,9.5-3.7
			c4,0,7.1,1.2,9.5,3.7c2.3,2.4,3.5,5.8,3.5,10.2c0,2.3-0.3,4.4-1,6.1C397.8,141.2,397,142.5,396,143.8z M391.6,140.7
			c0.7-0.8,1.2-1.8,1.6-3c0.3-1.2,0.5-2.5,0.5-4c0-3.1-0.7-5.4-2.1-6.9c-1.4-1.5-3.2-2.3-5.4-2.3c-2.2,0-4,0.8-5.4,2.3
			s-2.1,3.9-2.1,6.9c0,3.1,0.7,5.5,2.1,7s3.1,2.3,5.2,2.3c0.8,0,1.5-0.1,2.2-0.4c-1.1-0.7-2.2-1.3-3.4-1.7l1.5-3.1
			C388.3,138.6,390,139.5,391.6,140.7z"/>
		<path class="st20" d="M416.3,147.2v-2.9c-0.7,1-1.6,1.9-2.8,2.5c-1.2,0.6-2.4,0.9-3.7,0.9c-1.3,0-2.5-0.3-3.5-0.9
			c-1-0.6-1.8-1.4-2.3-2.4s-0.7-2.5-0.7-4.3v-12.3h5.1v8.9c0,2.7,0.1,4.4,0.3,5c0.2,0.6,0.5,1.1,1,1.5c0.5,0.4,1.1,0.5,1.9,0.5
			c0.9,0,1.7-0.2,2.4-0.7s1.2-1.1,1.4-1.8c0.3-0.7,0.4-2.5,0.4-5.2v-8.2h5.1v19.4H416.3z"/>
		<path class="st20" d="M431.3,147.2h-5.1v-19.4h4.8v2.8c0.8-1.3,1.6-2.2,2.2-2.6c0.7-0.4,1.4-0.6,2.2-0.6c1.2,0,2.3,0.3,3.4,1
			l-1.6,4.5c-0.9-0.6-1.7-0.8-2.4-0.8c-0.7,0-1.3,0.2-1.8,0.6s-0.9,1.1-1.2,2.2c-0.3,1-0.4,3.2-0.4,6.5V147.2z"/>
		<path class="st20" d="M444.8,133.6l-4.7-0.8c0.5-1.9,1.4-3.3,2.7-4.2c1.3-0.9,3.2-1.4,5.7-1.4c2.3,0,4,0.3,5.1,0.8
			c1.1,0.5,1.9,1.2,2.4,2.1c0.5,0.8,0.7,2.4,0.7,4.6l-0.1,6c0,1.7,0.1,3,0.2,3.8c0.2,0.8,0.5,1.7,0.9,2.6h-5.1
			c-0.1-0.3-0.3-0.8-0.5-1.5c-0.1-0.3-0.1-0.5-0.2-0.6c-0.9,0.9-1.8,1.5-2.8,1.9c-1,0.4-2.1,0.6-3.2,0.6c-2,0-3.6-0.5-4.7-1.6
			c-1.2-1.1-1.7-2.5-1.7-4.1c0-1.1,0.3-2.1,0.8-2.9c0.5-0.9,1.3-1.5,2.2-2c0.9-0.5,2.3-0.9,4.1-1.2c2.4-0.5,4.1-0.9,5-1.3V134
			c0-1-0.2-1.7-0.7-2.1c-0.5-0.4-1.4-0.6-2.8-0.6c-0.9,0-1.6,0.2-2.1,0.5C445.6,132.1,445.2,132.7,444.8,133.6z M451.7,137.8
			c-0.7,0.2-1.7,0.5-3.1,0.8c-1.4,0.3-2.4,0.6-2.8,0.9c-0.7,0.5-1,1.1-1,1.8c0,0.7,0.3,1.3,0.8,1.9c0.5,0.5,1.2,0.8,2.1,0.8
			c0.9,0,1.8-0.3,2.7-0.9c0.6-0.5,1-1,1.2-1.7c0.1-0.4,0.2-1.3,0.2-2.5V137.8z"/>
		<path class="st20" d="M479.5,147.2h-5.1v-9.9c0-2.1-0.1-3.5-0.3-4.1c-0.2-0.6-0.6-1.1-1.1-1.4c-0.5-0.3-1.1-0.5-1.8-0.5
			c-0.9,0-1.7,0.2-2.4,0.7c-0.7,0.5-1.2,1.1-1.5,1.9c-0.3,0.8-0.4,2.3-0.4,4.5v8.8h-5.1v-19.4h4.8v2.9c1.7-2.2,3.8-3.3,6.4-3.3
			c1.1,0,2.2,0.2,3.1,0.6c0.9,0.4,1.7,0.9,2.1,1.6c0.5,0.6,0.8,1.4,1,2.2c0.2,0.8,0.3,2,0.3,3.5V147.2z"/>
		<path class="st20" d="M484.7,125.1v-4.8h5.1v4.8H484.7z M484.7,147.2v-19.4h5.1v19.4H484.7z"/>
		<path class="st20" d="M512.1,133.5l-5.1,0.9c-0.2-1-0.6-1.8-1.2-2.3c-0.6-0.5-1.4-0.8-2.4-0.8c-1.3,0-2.3,0.4-3.1,1.3
			c-0.8,0.9-1.1,2.4-1.1,4.4c0,2.3,0.4,3.9,1.2,4.9c0.8,1,1.8,1.4,3.1,1.4c1,0,1.8-0.3,2.4-0.8c0.6-0.6,1.1-1.5,1.3-2.9l5.1,0.9
			c-0.5,2.3-1.5,4.1-3,5.3c-1.5,1.2-3.5,1.8-6,1.8c-2.8,0-5.1-0.9-6.8-2.7c-1.7-1.8-2.5-4.3-2.5-7.5c0-3.2,0.8-5.7,2.5-7.5
			c1.7-1.8,4-2.7,6.9-2.7c2.4,0,4.3,0.5,5.6,1.5C510.5,129.8,511.5,131.4,512.1,133.5z"/>
		<path class="st20" d="M543.7,137.3l5.3,1.7c-0.8,2.9-2.1,5.1-4,6.5c-1.9,1.4-4.3,2.1-7.1,2.1c-3.6,0-6.5-1.2-8.8-3.7
			c-2.3-2.4-3.4-5.8-3.4-10c0-4.5,1.2-7.9,3.5-10.4c2.3-2.5,5.3-3.7,9.1-3.7c3.3,0,6,1,8,2.9c1.2,1.1,2.1,2.8,2.7,4.9l-5.4,1.3
			c-0.3-1.4-1-2.5-2-3.3c-1-0.8-2.2-1.2-3.7-1.2c-2,0-3.6,0.7-4.8,2.1c-1.2,1.4-1.9,3.7-1.9,6.9c0,3.4,0.6,5.8,1.8,7.3
			s2.8,2.2,4.8,2.2c1.4,0,2.7-0.5,3.7-1.4C542.5,140.7,543.2,139.3,543.7,137.3z"/>
		<path class="st20" d="M552.3,137.2c0-1.7,0.4-3.4,1.3-5c0.8-1.6,2-2.8,3.6-3.7c1.5-0.8,3.3-1.3,5.2-1.3c2.9,0,5.4,1,7.2,2.9
			c1.9,1.9,2.8,4.3,2.8,7.2c0,2.9-0.9,5.4-2.8,7.3c-1.9,1.9-4.3,2.9-7.2,2.9c-1.8,0-3.5-0.4-5.1-1.2c-1.6-0.8-2.8-2-3.7-3.5
			C552.8,141.3,552.3,139.4,552.3,137.2z M557.6,137.4c0,1.9,0.5,3.4,1.4,4.4c0.9,1,2,1.5,3.4,1.5s2.5-0.5,3.4-1.5
			c0.9-1,1.4-2.5,1.4-4.5c0-1.9-0.5-3.4-1.4-4.4s-2-1.5-3.4-1.5s-2.5,0.5-3.4,1.5S557.6,135.5,557.6,137.4z"/>
		<path class="st20" d="M576,127.7h4.7v2.7c1.7-2.1,3.7-3.1,6.1-3.1c1.2,0,2.3,0.3,3.2,0.8s1.7,1.3,2.3,2.3c0.9-1,1.8-1.8,2.8-2.3
			c1-0.5,2-0.8,3.2-0.8c1.4,0,2.6,0.3,3.6,0.9c1,0.6,1.7,1.4,2.2,2.6c0.4,0.8,0.5,2.2,0.5,4v12.4h-5.1V136c0-1.9-0.2-3.2-0.5-3.7
			c-0.5-0.7-1.2-1.1-2.2-1.1c-0.7,0-1.4,0.2-2,0.7s-1.1,1.1-1.4,1.9c-0.3,0.8-0.4,2.2-0.4,4v9.3h-5.1v-10.7c0-1.9-0.1-3.1-0.3-3.7
			c-0.2-0.5-0.5-1-0.9-1.2c-0.4-0.3-0.9-0.4-1.6-0.4c-0.8,0-1.5,0.2-2.1,0.6c-0.6,0.4-1.1,1-1.4,1.8s-0.4,2.1-0.4,4v9.4H576V127.7z"
			/>
		<path class="st20" d="M609.6,127.7h4.8v2.9c0.6-1,1.5-1.8,2.5-2.4c1.1-0.6,2.2-0.9,3.5-0.9c2.3,0,4.2,0.9,5.8,2.7
			c1.6,1.8,2.4,4.2,2.4,7.4c0,3.2-0.8,5.8-2.4,7.6c-1.6,1.8-3.5,2.7-5.8,2.7c-1.1,0-2-0.2-2.9-0.6c-0.9-0.4-1.8-1.2-2.8-2.2v9.8
			h-5.1V127.7z M614.7,137.1c0,2.2,0.4,3.8,1.3,4.8c0.9,1,1.9,1.6,3.2,1.6c1.2,0,2.2-0.5,3-1.4c0.8-1,1.2-2.5,1.2-4.7
			c0-2-0.4-3.6-1.2-4.5c-0.8-1-1.8-1.5-3-1.5c-1.3,0-2.3,0.5-3.1,1.5C615.1,133.8,614.7,135.2,614.7,137.1z"/>
		<path class="st20" d="M643.9,141l5.1,0.9c-0.7,1.9-1.7,3.3-3.1,4.3s-3.2,1.5-5.3,1.5c-3.4,0-5.9-1.1-7.5-3.3
			c-1.3-1.8-1.9-4-1.9-6.7c0-3.2,0.8-5.7,2.5-7.6c1.7-1.8,3.8-2.7,6.4-2.7c2.9,0,5.2,1,6.8,2.9c1.7,1.9,2.5,4.8,2.4,8.8h-12.9
			c0,1.5,0.5,2.7,1.2,3.6c0.8,0.8,1.8,1.3,3,1.3c0.8,0,1.5-0.2,2-0.7C643.2,142.7,643.7,142,643.9,141z M644.2,135.8
			c0-1.5-0.4-2.6-1.2-3.4s-1.6-1.2-2.7-1.2c-1.1,0-2.1,0.4-2.8,1.2c-0.7,0.8-1.1,1.9-1.1,3.3H644.2z"/>
		<path class="st20" d="M662.4,127.7v4.1h-3.5v7.8c0,1.6,0,2.5,0.1,2.8c0.1,0.3,0.2,0.5,0.5,0.7s0.5,0.3,0.9,0.3
			c0.5,0,1.2-0.2,2.1-0.5l0.4,4c-1.2,0.5-2.6,0.8-4.1,0.8c-0.9,0-1.8-0.2-2.5-0.5c-0.7-0.3-1.3-0.7-1.6-1.2c-0.3-0.5-0.6-1.2-0.7-2
			c-0.1-0.6-0.2-1.8-0.2-3.6v-8.5h-2.4v-4.1h2.4v-3.9l5.2-3v6.9H662.4z"/>
		<path class="st20" d="M666,125.1v-4.8h5.1v4.8H666z M666,147.2v-19.4h5.1v19.4H666z"/>
		<path class="st20" d="M685.3,127.7v4.1h-3.5v7.8c0,1.6,0,2.5,0.1,2.8c0.1,0.3,0.2,0.5,0.5,0.7s0.5,0.3,0.9,0.3
			c0.5,0,1.2-0.2,2.1-0.5l0.4,4c-1.2,0.5-2.6,0.8-4.1,0.8c-0.9,0-1.8-0.2-2.5-0.5c-0.7-0.3-1.3-0.7-1.6-1.2c-0.3-0.5-0.6-1.2-0.7-2
			c-0.1-0.6-0.2-1.8-0.2-3.6v-8.5h-2.4v-4.1h2.4v-3.9l5.2-3v6.9H685.3z"/>
		<path class="st20" d="M688.9,125.1v-4.8h5.1v4.8H688.9z M688.9,147.2v-19.4h5.1v19.4H688.9z"/>
		<path class="st20" d="M698.1,137.2c0-1.7,0.4-3.4,1.3-5c0.8-1.6,2-2.8,3.6-3.7c1.5-0.8,3.3-1.3,5.2-1.3c2.9,0,5.4,1,7.2,2.9
			s2.8,4.3,2.8,7.2c0,2.9-1,5.4-2.8,7.3c-1.9,1.9-4.3,2.9-7.2,2.9c-1.8,0-3.5-0.4-5.1-1.2c-1.6-0.8-2.8-2-3.7-3.5
			C698.6,141.3,698.1,139.4,698.1,137.2z M703.4,137.4c0,1.9,0.5,3.4,1.4,4.4c0.9,1,2,1.5,3.4,1.5s2.5-0.5,3.4-1.5
			c0.9-1,1.4-2.5,1.4-4.5c0-1.9-0.5-3.4-1.4-4.4s-2-1.5-3.4-1.5s-2.5,0.5-3.4,1.5C703.9,134,703.4,135.5,703.4,137.4z"/>
		<path class="st20" d="M739.9,147.2h-5.1v-9.9c0-2.1-0.1-3.5-0.3-4.1c-0.2-0.6-0.6-1.1-1.1-1.4c-0.5-0.3-1.1-0.5-1.8-0.5
			c-0.9,0-1.7,0.2-2.4,0.7c-0.7,0.5-1.2,1.1-1.5,1.9s-0.4,2.3-0.4,4.5v8.8h-5.1v-19.4h4.8v2.9c1.7-2.2,3.8-3.3,6.4-3.3
			c1.1,0,2.2,0.2,3.1,0.6c0.9,0.4,1.7,0.9,2.1,1.6s0.8,1.4,1,2.2s0.3,2,0.3,3.5V147.2z"/>
	</g>
</g>
</svg>
